{
	"asset":{
		"generator":"Khronos glTF Blender I/O v4.3.47",
		"version":"2.0"
	},
	"scene":0,
	"scenes":[
		{
			"name":"Scene",
			"nodes":[
				0,
				1
			]
		}
	],
	"nodes":[
		{
			"mesh":0,
			"name":"Plane",
			"rotation":[
				0,
				0,
				-0.7071068286895752,
				0.7071068286895752
			],
			"scale":[
				1,
				1,
				0.016645848751068115
			]
		},
		{
			"mesh":1,
			"name":"Plane.001",
			"rotation":[
				-0.5,
				0.5,
				-0.5,
				0.5000000596046448
			],
			"scale":[
				1,
				1,
				0.016645848751068115
			]
		}
	],
	"materials":[
		{
			"doubleSided":true,
			"name":"Material.001",
			"pbrMetallicRoughness":{
				"baseColorTexture":{
					"index":0
				},
				"metallicFactor":0,
				"roughnessFactor":0.5
			}
		},
		{
			"doubleSided":true,
			"name":"Material.002",
			"pbrMetallicRoughness":{
				"baseColorTexture":{
					"index":1
				},
				"metallicFactor":0,
				"roughnessFactor":0.5
			}
		}
	],
	"meshes":[
		{
			"name":"Plane",
			"primitives":[
				{
					"attributes":{
						"POSITION":0,
						"NORMAL":1,
						"TEXCOORD_0":2
					},
					"indices":3,
					"material":0
				}
			]
		},
		{
			"name":"Plane.001",
			"primitives":[
				{
					"attributes":{
						"POSITION":4,
						"NORMAL":5,
						"TEXCOORD_0":6
					},
					"indices":7,
					"material":1
				}
			]
		}
	],
	"textures":[
		{
			"sampler":0,
			"source":0
		},
		{
			"sampler":0,
			"source":1
		}
	],
	"images":[
		{
			"mimeType":"image/jpeg",
			"name":"tina-dawson-Kim9COAIEGc-unsplash",
			"uri":"tina-dawson-Kim9COAIEGc-unsplash.jpg"
		},
		{
			"mimeType":"image/jpeg",
			"name":"Wallet texture",
			"uri":"Wallet%20texture.jpg"
		}
	],
	"accessors":[
		{
			"bufferView":0,
			"componentType":5126,
			"count":3863,
			"max":[
				0.9999996423721313,
				0.020000122487545013,
				17.028499603271484
			],
			"min":[
				-3.1975834369659424,
				-0.030000008642673492,
				-17.3115291595459
			],
			"type":"VEC3"
		},
		{
			"bufferView":1,
			"componentType":5126,
			"count":3863,
			"type":"VEC3"
		},
		{
			"bufferView":2,
			"componentType":5126,
			"count":3863,
			"type":"VEC2"
		},
		{
			"bufferView":3,
			"componentType":5123,
			"count":22608,
			"type":"SCALAR"
		},
		{
			"bufferView":4,
			"componentType":5126,
			"count":1663,
			"max":[
				0.9999996423721313,
				0.020000122487545013,
				17.028499603271484
			],
			"min":[
				-3.1975834369659424,
				-0.030000008642673492,
				-17.3115291595459
			],
			"type":"VEC3"
		},
		{
			"bufferView":5,
			"componentType":5126,
			"count":1663,
			"type":"VEC3"
		},
		{
			"bufferView":6,
			"componentType":5126,
			"count":1663,
			"type":"VEC2"
		},
		{
			"bufferView":7,
			"componentType":5123,
			"count":9216,
			"type":"SCALAR"
		}
	],
	"bufferViews":[
		{
			"buffer":0,
			"byteLength":46356,
			"byteOffset":0,
			"target":34962
		},
		{
			"buffer":0,
			"byteLength":46356,
			"byteOffset":46356,
			"target":34962
		},
		{
			"buffer":0,
			"byteLength":30904,
			"byteOffset":92712,
			"target":34962
		},
		{
			"buffer":0,
			"byteLength":45216,
			"byteOffset":123616,
			"target":34963
		},
		{
			"buffer":0,
			"byteLength":19956,
			"byteOffset":168832,
			"target":34962
		},
		{
			"buffer":0,
			"byteLength":19956,
			"byteOffset":188788,
			"target":34962
		},
		{
			"buffer":0,
			"byteLength":13304,
			"byteOffset":208744,
			"target":34962
		},
		{
			"buffer":0,
			"byteLength":18432,
			"byteOffset":222048,
			"target":34963
		}
	],
	"samplers":[
		{
			"magFilter":9729,
			"minFilter":9987
		}
	],
	"buffers":[
		{
			"byteLength":240480,
			"uri":"arrow.bin"
		}
	]
}
