{
	"asset":{
		"generator":"Khronos glTF Blender I/O v4.3.47",
		"version":"2.0"
	},
	"scene":0,
	"scenes":[
		{
			"name":"Scene",
			"nodes":[
				1
			]
		}
	],
	"nodes":[
		{
			"mesh":0,
			"name":"Cylinder.001",
			"scale":[
				0.4847811162471771,
				0.12174706161022186,
				0.4847811162471771
			],
			"translation":[
				0,
				5.134706497192383,
				0
			]
		},
		{
			"children":[
				0
			],
			"mesh":1,
			"name":"Cylinder",
			"scale":[
				0.9700742363929749,
				0.9700742363929749,
				0.9700742363929749
			],
			"translation":[
				0,
				-1.0426162481307983,
				0
			]
		}
	],
	"materials":[
		{
			"doubleSided":true,
			"name":"Top",
			"pbrMetallicRoughness":{
				"baseColorFactor":[
					0.02190301939845085,
					0.02190301939845085,
					0.02190301939845085,
					1
				],
				"metallicFactor":0.9136363863945007,
				"roughnessFactor":0.09999999403953552
			}
		},
		{
			"alphaMode":"BLEND",
			"doubleSided":true,
			"name":"Bottom",
			"pbrMetallicRoughness":{
				"baseColorFactor":[
					0.6466087698936462,
					0.36588239669799805,
					0.11223684996366501,
					0.6454545259475708
				],
				"metallicFactor":0.6590908765792847,
				"roughnessFactor":0.13181819021701813
			}
		}
	],
	"meshes":[
		{
			"name":"Cylinder.001",
			"primitives":[
				{
					"attributes":{
						"POSITION":0,
						"NORMAL":1,
						"TEXCOORD_0":2
					},
					"indices":3,
					"material":0
				}
			]
		},
		{
			"name":"Cylinder",
			"primitives":[
				{
					"attributes":{
						"POSITION":4,
						"NORMAL":5,
						"TEXCOORD_0":6
					},
					"indices":7,
					"material":1
				}
			]
		}
	],
	"accessors":[
		{
			"bufferView":0,
			"componentType":5126,
			"count":1193,
			"max":[
				1,
				1,
				1
			],
			"min":[
				-1,
				-1,
				-1
			],
			"type":"VEC3"
		},
		{
			"bufferView":1,
			"componentType":5126,
			"count":1193,
			"type":"VEC3"
		},
		{
			"bufferView":2,
			"componentType":5126,
			"count":1193,
			"type":"VEC2"
		},
		{
			"bufferView":3,
			"componentType":5123,
			"count":4212,
			"type":"SCALAR"
		},
		{
			"bufferView":4,
			"componentType":5126,
			"count":1976,
			"max":[
				1.0324465036392212,
				5.130584239959717,
				1.0324465036392212
			],
			"min":[
				-1.0324465036392212,
				-2.6024329662323,
				-1.0324465036392212
			],
			"type":"VEC3"
		},
		{
			"bufferView":5,
			"componentType":5126,
			"count":1976,
			"type":"VEC3"
		},
		{
			"bufferView":6,
			"componentType":5126,
			"count":1976,
			"type":"VEC2"
		},
		{
			"bufferView":7,
			"componentType":5123,
			"count":10728,
			"type":"SCALAR"
		}
	],
	"bufferViews":[
		{
			"buffer":0,
			"byteLength":14316,
			"byteOffset":0,
			"target":34962
		},
		{
			"buffer":0,
			"byteLength":14316,
			"byteOffset":14316,
			"target":34962
		},
		{
			"buffer":0,
			"byteLength":9544,
			"byteOffset":28632,
			"target":34962
		},
		{
			"buffer":0,
			"byteLength":8424,
			"byteOffset":38176,
			"target":34963
		},
		{
			"buffer":0,
			"byteLength":23712,
			"byteOffset":46600,
			"target":34962
		},
		{
			"buffer":0,
			"byteLength":23712,
			"byteOffset":70312,
			"target":34962
		},
		{
			"buffer":0,
			"byteLength":15808,
			"byteOffset":94024,
			"target":34962
		},
		{
			"buffer":0,
			"byteLength":21456,
			"byteOffset":109832,
			"target":34963
		}
	],
	"buffers":[
		{
			"byteLength":131288,
			"uri":"bearBottle15.bin"
		}
	]
}
