{
	"asset":{
		"generator":"Khronos glTF Blender I/O v4.3.47",
		"version":"2.0"
	},
	"scene":0,
	"scenes":[
		{
			"name":"Scene",
			"nodes":[
				0,
				1
			]
		}
	],
	"nodes":[
		{
			"mesh":0,
			"name":"Cylinder",
			"scale":[
				0.5890785455703735,
				0.5890785455703735,
				0.5890785455703735
			],
			"translation":[
				0,
				-0.8330619931221008,
				0
			]
		},
		{
			"mesh":1,
			"name":"Cylinder.001",
			"scale":[
				0.28557413816452026,
				0.07171858102083206,
				0.28557413816452026
			],
			"translation":[
				0,
				2.191683292388916,
				0
			]
		}
	],
	"materials":[
		{
			"alphaMode":"BLEND",
			"doubleSided":true,
			"name":"Bottom",
			"pbrMetallicRoughness":{
				"baseColorFactor":[
					0.1585315763950348,
					0.07047353684902191,
					0.013535892590880394,
					0.7681817412376404
				],
				"metallicFactor":0.8409090638160706,
				"roughnessFactor":0.30000001192092896
			}
		}
	],
	"meshes":[
		{
			"name":"Cylinder",
			"primitives":[
				{
					"attributes":{
						"POSITION":0,
						"NORMAL":1,
						"TEXCOORD_0":2
					},
					"indices":3,
					"material":0
				}
			]
		},
		{
			"name":"Cylinder.001",
			"primitives":[
				{
					"attributes":{
						"POSITION":4,
						"NORMAL":5,
						"TEXCOORD_0":6
					},
					"indices":7,
					"material":0
				}
			]
		}
	],
	"accessors":[
		{
			"bufferView":0,
			"componentType":5126,
			"count":988,
			"max":[
				1.0324465036392212,
				5.130584239959717,
				1.0324465036392212
			],
			"min":[
				-1.0324465036392212,
				-2.6024329662323,
				-1.0324465036392212
			],
			"type":"VEC3"
		},
		{
			"bufferView":1,
			"componentType":5126,
			"count":988,
			"type":"VEC3"
		},
		{
			"bufferView":2,
			"componentType":5126,
			"count":988,
			"type":"VEC2"
		},
		{
			"bufferView":3,
			"componentType":5123,
			"count":5364,
			"type":"SCALAR"
		},
		{
			"bufferView":4,
			"componentType":5126,
			"count":1193,
			"max":[
				1,
				1,
				1
			],
			"min":[
				-1,
				-1,
				-1
			],
			"type":"VEC3"
		},
		{
			"bufferView":5,
			"componentType":5126,
			"count":1193,
			"type":"VEC3"
		},
		{
			"bufferView":6,
			"componentType":5126,
			"count":1193,
			"type":"VEC2"
		},
		{
			"bufferView":7,
			"componentType":5123,
			"count":4212,
			"type":"SCALAR"
		}
	],
	"bufferViews":[
		{
			"buffer":0,
			"byteLength":11856,
			"byteOffset":0,
			"target":34962
		},
		{
			"buffer":0,
			"byteLength":11856,
			"byteOffset":11856,
			"target":34962
		},
		{
			"buffer":0,
			"byteLength":7904,
			"byteOffset":23712,
			"target":34962
		},
		{
			"buffer":0,
			"byteLength":10728,
			"byteOffset":31616,
			"target":34963
		},
		{
			"buffer":0,
			"byteLength":14316,
			"byteOffset":42344,
			"target":34962
		},
		{
			"buffer":0,
			"byteLength":14316,
			"byteOffset":56660,
			"target":34962
		},
		{
			"buffer":0,
			"byteLength":9544,
			"byteOffset":70976,
			"target":34962
		},
		{
			"buffer":0,
			"byteLength":8424,
			"byteOffset":80520,
			"target":34963
		}
	],
	"buffers":[
		{
			"byteLength":88944,
			"uri":"bearBottle2.bin"
		}
	]
}
