{
	"asset":{
		"generator":"Khronos glTF Blender I/O v4.3.47",
		"version":"2.0"
	},
	"scene":0,
	"scenes":[
		{
			"name":"Scene",
			"nodes":[
				0,
				1,
				2
			]
		}
	],
	"nodes":[
		{
			"mesh":0,
			"name":"Cylinder",
			"scale":[
				1,
				5.706705093383789,
				1
			],
			"translation":[
				0,
				-0.16494543850421906,
				0
			]
		},
		{
			"mesh":1,
			"name":"Cylinder.001",
			"scale":[
				0.9839698076248169,
				0.29029381275177,
				0.9839698076248169
			],
			"translation":[
				0,
				5.39999532699585,
				0
			]
		},
		{
			"mesh":2,
			"name":"Cylinder.002",
			"rotation":[
				1,
				0,
				0,
				2.6618774427333847e-05
			],
			"scale":[
				0.9839698076248169,
				0.29029381275177,
				0.9839698076248169
			],
			"translation":[
				0,
				-5.693790435791016,
				0
			]
		}
	],
	"animations":[
		{
			"channels":[
				{
					"sampler":0,
					"target":{
						"node":0,
						"path":"translation"
					}
				},
				{
					"sampler":1,
					"target":{
						"node":0,
						"path":"rotation"
					}
				}
			],
			"name":"CylinderAction",
			"samplers":[
				{
					"input":11,
					"interpolation":"LINEAR",
					"output":12
				},
				{
					"input":11,
					"interpolation":"LINEAR",
					"output":13
				}
			]
		},
		{
			"channels":[
				{
					"sampler":0,
					"target":{
						"node":1,
						"path":"translation"
					}
				},
				{
					"sampler":1,
					"target":{
						"node":1,
						"path":"rotation"
					}
				}
			],
			"name":"Cylinder.001Action",
			"samplers":[
				{
					"input":14,
					"interpolation":"LINEAR",
					"output":15
				},
				{
					"input":14,
					"interpolation":"LINEAR",
					"output":16
				}
			]
		}
	],
	"materials":[
		{
			"doubleSided":true,
			"name":"Material.001",
			"pbrMetallicRoughness":{
				"baseColorTexture":{
					"index":0
				},
				"metallicFactor":0,
				"roughnessFactor":0.5
			}
		},
		{
			"doubleSided":true,
			"name":"Top",
			"pbrMetallicRoughness":{
				"baseColorFactor":[
					0.4076292812824249,
					0.4076292812824249,
					0.4076292812824249,
					1
				],
				"metallicFactor":0.8602150082588196,
				"roughnessFactor":0.11290323734283447
			}
		}
	],
	"meshes":[
		{
			"name":"Cylinder",
			"primitives":[
				{
					"attributes":{
						"POSITION":0,
						"NORMAL":1,
						"TEXCOORD_0":2
					},
					"indices":3,
					"material":0
				}
			]
		},
		{
			"name":"Cylinder.001",
			"primitives":[
				{
					"attributes":{
						"POSITION":4,
						"NORMAL":5,
						"TEXCOORD_0":6
					},
					"indices":7,
					"material":1
				}
			]
		},
		{
			"name":"Cylinder.002",
			"primitives":[
				{
					"attributes":{
						"POSITION":8,
						"NORMAL":9,
						"TEXCOORD_0":10
					},
					"indices":7,
					"material":1
				}
			]
		}
	],
	"textures":[
		{
			"sampler":0,
			"source":0
		}
	],
	"images":[
		{
			"mimeType":"image/jpeg",
			"name":"CardBoard",
			"uri":"CardBoard.jpg"
		}
	],
	"accessors":[
		{
			"bufferView":0,
			"componentType":5126,
			"count":132,
			"max":[
				1,
				1,
				1
			],
			"min":[
				-1,
				-1,
				-1
			],
			"type":"VEC3"
		},
		{
			"bufferView":1,
			"componentType":5126,
			"count":132,
			"type":"VEC3"
		},
		{
			"bufferView":2,
			"componentType":5126,
			"count":132,
			"type":"VEC2"
		},
		{
			"bufferView":3,
			"componentType":5123,
			"count":768,
			"type":"SCALAR"
		},
		{
			"bufferView":4,
			"componentType":5126,
			"count":580,
			"max":[
				1,
				1.0031638145446777,
				1
			],
			"min":[
				-1,
				-0.9999991059303284,
				-1
			],
			"type":"VEC3"
		},
		{
			"bufferView":5,
			"componentType":5126,
			"count":580,
			"type":"VEC3"
		},
		{
			"bufferView":6,
			"componentType":5126,
			"count":580,
			"type":"VEC2"
		},
		{
			"bufferView":7,
			"componentType":5123,
			"count":3060,
			"type":"SCALAR"
		},
		{
			"bufferView":8,
			"componentType":5126,
			"count":580,
			"max":[
				1,
				1.0031638145446777,
				1
			],
			"min":[
				-1,
				-0.9999991059303284,
				-1
			],
			"type":"VEC3"
		},
		{
			"bufferView":9,
			"componentType":5126,
			"count":580,
			"type":"VEC3"
		},
		{
			"bufferView":10,
			"componentType":5126,
			"count":580,
			"type":"VEC2"
		},
		{
			"bufferView":11,
			"componentType":5126,
			"count":1,
			"max":[
				0.041666666666666664
			],
			"min":[
				0.041666666666666664
			],
			"type":"SCALAR"
		},
		{
			"bufferView":12,
			"componentType":5126,
			"count":1,
			"type":"VEC3"
		},
		{
			"bufferView":13,
			"componentType":5126,
			"count":1,
			"type":"VEC4"
		},
		{
			"bufferView":14,
			"componentType":5126,
			"count":21,
			"max":[
				0.8333333333333334
			],
			"min":[
				0
			],
			"type":"SCALAR"
		},
		{
			"bufferView":15,
			"componentType":5126,
			"count":21,
			"type":"VEC3"
		},
		{
			"bufferView":16,
			"componentType":5126,
			"count":21,
			"type":"VEC4"
		}
	],
	"bufferViews":[
		{
			"buffer":0,
			"byteLength":1584,
			"byteOffset":0,
			"target":34962
		},
		{
			"buffer":0,
			"byteLength":1584,
			"byteOffset":1584,
			"target":34962
		},
		{
			"buffer":0,
			"byteLength":1056,
			"byteOffset":3168,
			"target":34962
		},
		{
			"buffer":0,
			"byteLength":1536,
			"byteOffset":4224,
			"target":34963
		},
		{
			"buffer":0,
			"byteLength":6960,
			"byteOffset":5760,
			"target":34962
		},
		{
			"buffer":0,
			"byteLength":6960,
			"byteOffset":12720,
			"target":34962
		},
		{
			"buffer":0,
			"byteLength":4640,
			"byteOffset":19680,
			"target":34962
		},
		{
			"buffer":0,
			"byteLength":6120,
			"byteOffset":24320,
			"target":34963
		},
		{
			"buffer":0,
			"byteLength":6960,
			"byteOffset":30440,
			"target":34962
		},
		{
			"buffer":0,
			"byteLength":6960,
			"byteOffset":37400,
			"target":34962
		},
		{
			"buffer":0,
			"byteLength":4640,
			"byteOffset":44360,
			"target":34962
		},
		{
			"buffer":0,
			"byteLength":4,
			"byteOffset":49000
		},
		{
			"buffer":0,
			"byteLength":12,
			"byteOffset":49004
		},
		{
			"buffer":0,
			"byteLength":16,
			"byteOffset":49016
		},
		{
			"buffer":0,
			"byteLength":84,
			"byteOffset":49032
		},
		{
			"buffer":0,
			"byteLength":252,
			"byteOffset":49116
		},
		{
			"buffer":0,
			"byteLength":336,
			"byteOffset":49368
		}
	],
	"samplers":[
		{
			"magFilter":9729,
			"minFilter":9987
		}
	],
	"buffers":[
		{
			"byteLength":49704,
			"uri":"Bottle.bin"
		}
	]
}
