{
	"asset":{
		"generator":"Khronos glTF Blender I/O v4.3.47",
		"version":"2.0"
	},
	"scene":0,
	"scenes":[
		{
			"name":"Scene",
			"nodes":[
				0,
				1
			]
		}
	],
	"nodes":[
		{
			"mesh":0,
			"name":"Cylinder",
			"scale":[
				2.16176700592041,
				2.16176700592041,
				2.16176700592041
			]
		},
		{
			"mesh":1,
			"name":"Cylinder.001",
			"rotation":[
				0,
				0,
				-1,
				0
			],
			"scale":[
				-2.2416763305664062,
				-0.27472761273384094,
				-2.2337965965270996
			],
			"translation":[
				0,
				2.331233024597168,
				0
			]
		}
	],
	"animations":[
		{
			"channels":[
				{
					"sampler":0,
					"target":{
						"node":0,
						"path":"translation"
					}
				},
				{
					"sampler":1,
					"target":{
						"node":0,
						"path":"rotation"
					}
				}
			],
			"name":"CylinderAction",
			"samplers":[
				{
					"input":8,
					"interpolation":"LINEAR",
					"output":9
				},
				{
					"input":8,
					"interpolation":"LINEAR",
					"output":10
				}
			]
		},
		{
			"channels":[
				{
					"sampler":0,
					"target":{
						"node":1,
						"path":"translation"
					}
				},
				{
					"sampler":1,
					"target":{
						"node":1,
						"path":"rotation"
					}
				}
			],
			"name":"Cylinder.001Action",
			"samplers":[
				{
					"input":11,
					"interpolation":"LINEAR",
					"output":12
				},
				{
					"input":11,
					"interpolation":"LINEAR",
					"output":13
				}
			]
		}
	],
	"materials":[
		{
			"doubleSided":true,
			"name":"Base",
			"pbrMetallicRoughness":{
				"baseColorTexture":{
					"index":0
				},
				"metallicFactor":0,
				"roughnessFactor":0.5
			}
		},
		{
			"alphaMode":"BLEND",
			"doubleSided":true,
			"name":"Top",
			"pbrMetallicRoughness":{
				"baseColorFactor":[
					0.800000011920929,
					0.800000011920929,
					0.800000011920929,
					0.46236559748649597
				],
				"metallicFactor":0.2795698940753937,
				"roughnessFactor":0.048387110233306885
			}
		}
	],
	"meshes":[
		{
			"name":"Cylinder",
			"primitives":[
				{
					"attributes":{
						"POSITION":0,
						"NORMAL":1,
						"TEXCOORD_0":2
					},
					"indices":3,
					"material":0
				}
			]
		},
		{
			"name":"Cylinder.001",
			"primitives":[
				{
					"attributes":{
						"POSITION":4,
						"NORMAL":5,
						"TEXCOORD_0":6
					},
					"indices":7,
					"material":1
				}
			]
		}
	],
	"textures":[
		{
			"sampler":0,
			"source":0
		}
	],
	"images":[
		{
			"mimeType":"image/jpeg",
			"name":"CoffeeTexture",
			"uri":"CoffeeTexture.jpg"
		}
	],
	"accessors":[
		{
			"bufferView":0,
			"componentType":5126,
			"count":324,
			"max":[
				1,
				1.004184365272522,
				1
			],
			"min":[
				-1,
				-0.9999998807907104,
				-1
			],
			"type":"VEC3"
		},
		{
			"bufferView":1,
			"componentType":5126,
			"count":324,
			"type":"VEC3"
		},
		{
			"bufferView":2,
			"componentType":5126,
			"count":324,
			"type":"VEC2"
		},
		{
			"bufferView":3,
			"componentType":5123,
			"count":1524,
			"type":"SCALAR"
		},
		{
			"bufferView":4,
			"componentType":5126,
			"count":61392,
			"max":[
				0.9973194003105164,
				3.0700254440307617,
				0.9973194003105164
			],
			"min":[
				-0.9973194003105164,
				-1.0000001192092896,
				-0.9973194003105164
			],
			"type":"VEC3"
		},
		{
			"bufferView":5,
			"componentType":5126,
			"count":61392,
			"type":"VEC3"
		},
		{
			"bufferView":6,
			"componentType":5126,
			"count":61392,
			"type":"VEC2"
		},
		{
			"bufferView":7,
			"componentType":5123,
			"count":362868,
			"type":"SCALAR"
		},
		{
			"bufferView":8,
			"componentType":5126,
			"count":1,
			"max":[
				0.041666666666666664
			],
			"min":[
				0.041666666666666664
			],
			"type":"SCALAR"
		},
		{
			"bufferView":9,
			"componentType":5126,
			"count":1,
			"type":"VEC3"
		},
		{
			"bufferView":10,
			"componentType":5126,
			"count":1,
			"type":"VEC4"
		},
		{
			"bufferView":11,
			"componentType":5126,
			"count":25,
			"max":[
				1.0416666666666667
			],
			"min":[
				0.041666666666666664
			],
			"type":"SCALAR"
		},
		{
			"bufferView":12,
			"componentType":5126,
			"count":25,
			"type":"VEC3"
		},
		{
			"bufferView":13,
			"componentType":5126,
			"count":25,
			"type":"VEC4"
		}
	],
	"bufferViews":[
		{
			"buffer":0,
			"byteLength":3888,
			"byteOffset":0,
			"target":34962
		},
		{
			"buffer":0,
			"byteLength":3888,
			"byteOffset":3888,
			"target":34962
		},
		{
			"buffer":0,
			"byteLength":2592,
			"byteOffset":7776,
			"target":34962
		},
		{
			"buffer":0,
			"byteLength":3048,
			"byteOffset":10368,
			"target":34963
		},
		{
			"buffer":0,
			"byteLength":736704,
			"byteOffset":13416,
			"target":34962
		},
		{
			"buffer":0,
			"byteLength":736704,
			"byteOffset":750120,
			"target":34962
		},
		{
			"buffer":0,
			"byteLength":491136,
			"byteOffset":1486824,
			"target":34962
		},
		{
			"buffer":0,
			"byteLength":725736,
			"byteOffset":1977960,
			"target":34963
		},
		{
			"buffer":0,
			"byteLength":4,
			"byteOffset":2703696
		},
		{
			"buffer":0,
			"byteLength":12,
			"byteOffset":2703700
		},
		{
			"buffer":0,
			"byteLength":16,
			"byteOffset":2703712
		},
		{
			"buffer":0,
			"byteLength":100,
			"byteOffset":2703728
		},
		{
			"buffer":0,
			"byteLength":300,
			"byteOffset":2703828
		},
		{
			"buffer":0,
			"byteLength":400,
			"byteOffset":2704128
		}
	],
	"samplers":[
		{
			"magFilter":9729,
			"minFilter":9987
		}
	],
	"buffers":[
		{
			"byteLength":2704528,
			"uri":"CoffeeCup1.bin"
		}
	]
}
