{
	"asset":{
		"generator":"Khronos glTF Blender I/O v4.3.47",
		"version":"2.0"
	},
	"scene":0,
	"scenes":[
		{
			"name":"Scene",
			"nodes":[
				0,
				1
			]
		}
	],
	"nodes":[
		{
			"mesh":0,
			"name":"Plane",
			"scale":[
				2.2525200843811035,
				2.2525200843811035,
				2.2525200843811035
			]
		},
		{
			"mesh":1,
			"name":"Plane.001",
			"scale":[
				3.3113131523132324,
				3.3113131523132324,
				3.3113131523132324
			],
			"translation":[
				0,
				-0.004963982850313187,
				0
			]
		}
	],
	"meshes":[
		{
			"name":"Plane",
			"primitives":[
				{
					"attributes":{
						"POSITION":0,
						"NORMAL":1,
						"TEXCOORD_0":2
					},
					"indices":3
				}
			]
		},
		{
			"name":"Plane.001",
			"primitives":[
				{
					"attributes":{
						"POSITION":4,
						"NORMAL":5,
						"TEXCOORD_0":6
					},
					"indices":7
				}
			]
		}
	],
	"accessors":[
		{
			"bufferView":0,
			"componentType":5126,
			"count":5538,
			"max":[
				1.0001115798950195,
				0.3712805211544037,
				1.0001081228256226
			],
			"min":[
				-1,
				0,
				-1.0004962682724
			],
			"type":"VEC3"
		},
		{
			"bufferView":1,
			"componentType":5126,
			"count":5538,
			"type":"VEC3"
		},
		{
			"bufferView":2,
			"componentType":5126,
			"count":5538,
			"type":"VEC2"
		},
		{
			"bufferView":3,
			"componentType":5123,
			"count":5829,
			"type":"SCALAR"
		},
		{
			"bufferView":4,
			"componentType":5126,
			"count":4,
			"max":[
				1,
				0,
				1
			],
			"min":[
				-1,
				0,
				-1
			],
			"type":"VEC3"
		},
		{
			"bufferView":5,
			"componentType":5126,
			"count":4,
			"type":"VEC3"
		},
		{
			"bufferView":6,
			"componentType":5126,
			"count":4,
			"type":"VEC2"
		},
		{
			"bufferView":7,
			"componentType":5123,
			"count":6,
			"type":"SCALAR"
		}
	],
	"bufferViews":[
		{
			"buffer":0,
			"byteLength":66456,
			"byteOffset":0,
			"target":34962
		},
		{
			"buffer":0,
			"byteLength":66456,
			"byteOffset":66456,
			"target":34962
		},
		{
			"buffer":0,
			"byteLength":44304,
			"byteOffset":132912,
			"target":34962
		},
		{
			"buffer":0,
			"byteLength":11658,
			"byteOffset":177216,
			"target":34963
		},
		{
			"buffer":0,
			"byteLength":48,
			"byteOffset":188876,
			"target":34962
		},
		{
			"buffer":0,
			"byteLength":48,
			"byteOffset":188924,
			"target":34962
		},
		{
			"buffer":0,
			"byteLength":32,
			"byteOffset":188972,
			"target":34962
		},
		{
			"buffer":0,
			"byteLength":12,
			"byteOffset":189004,
			"target":34963
		}
	],
	"buffers":[
		{
			"byteLength":189016,
			"uri":"Hill.bin"
		}
	]
}
