{
	"asset":{
		"generator":"Khronos glTF Blender I/O v4.3.47",
		"version":"2.0"
	},
	"scene":0,
	"scenes":[
		{
			"name":"Scene",
			"nodes":[
				5
			]
		}
	],
	"nodes":[
		{
			"name":"Bone.002",
			"rotation":[
				-3.552713678800501e-15,
				0,
				0,
				1
			],
			"translation":[
				0,
				2,
				7.105427357601002e-15
			]
		},
		{
			"children":[
				0
			],
			"name":"Bone.001",
			"rotation":[
				2.1855694143368964e-08,
				0,
				0,
				1
			],
			"translation":[
				0,
				1.0000001192092896,
				3.552713678800501e-15
			]
		},
		{
			"children":[
				1
			],
			"name":"Bone"
		},
		{
			"name":"neutral_bone",
			"rotation":[
				-0.7071067690849304,
				0,
				0,
				0.7071067690849304
			]
		},
		{
			"mesh":0,
			"name":"Plane",
			"skin":0
		},
		{
			"children":[
				4,
				2,
				3
			],
			"name":"Armature",
			"rotation":[
				-0.7071068286895752,
				0,
				0,
				0.7071068286895752
			],
			"translation":[
				0,
				0,
				-1.0075839757919312
			]
		}
	],
	"animations":[
		{
			"channels":[
				{
					"sampler":0,
					"target":{
						"node":2,
						"path":"translation"
					}
				},
				{
					"sampler":1,
					"target":{
						"node":2,
						"path":"rotation"
					}
				},
				{
					"sampler":2,
					"target":{
						"node":2,
						"path":"scale"
					}
				},
				{
					"sampler":3,
					"target":{
						"node":1,
						"path":"translation"
					}
				},
				{
					"sampler":4,
					"target":{
						"node":1,
						"path":"rotation"
					}
				},
				{
					"sampler":5,
					"target":{
						"node":1,
						"path":"scale"
					}
				},
				{
					"sampler":6,
					"target":{
						"node":0,
						"path":"translation"
					}
				},
				{
					"sampler":7,
					"target":{
						"node":0,
						"path":"rotation"
					}
				},
				{
					"sampler":8,
					"target":{
						"node":0,
						"path":"scale"
					}
				}
			],
			"name":"ArmatureAction",
			"samplers":[
				{
					"input":40,
					"interpolation":"STEP",
					"output":41
				},
				{
					"input":42,
					"interpolation":"LINEAR",
					"output":43
				},
				{
					"input":40,
					"interpolation":"STEP",
					"output":44
				},
				{
					"input":40,
					"interpolation":"STEP",
					"output":45
				},
				{
					"input":42,
					"interpolation":"LINEAR",
					"output":46
				},
				{
					"input":40,
					"interpolation":"STEP",
					"output":47
				},
				{
					"input":40,
					"interpolation":"STEP",
					"output":48
				},
				{
					"input":42,
					"interpolation":"LINEAR",
					"output":49
				},
				{
					"input":40,
					"interpolation":"STEP",
					"output":50
				}
			]
		}
	],
	"materials":[
		{
			"doubleSided":true,
			"name":"Front",
			"pbrMetallicRoughness":{
				"baseColorTexture":{
					"index":0
				},
				"metallicFactor":0,
				"roughnessFactor":0.5
			}
		},
		{
			"doubleSided":true,
			"name":"Back",
			"pbrMetallicRoughness":{
				"baseColorTexture":{
					"index":1
				},
				"metallicFactor":0,
				"roughnessFactor":0.5
			}
		},
		{
			"doubleSided":true,
			"name":"Top",
			"pbrMetallicRoughness":{
				"baseColorTexture":{
					"index":2
				},
				"metallicFactor":0,
				"roughnessFactor":0.5
			}
		},
		{
			"doubleSided":true,
			"name":"Bottom",
			"pbrMetallicRoughness":{
				"baseColorTexture":{
					"index":3
				},
				"metallicFactor":0,
				"roughnessFactor":0.5
			}
		},
		{
			"doubleSided":true,
			"name":"Left",
			"pbrMetallicRoughness":{
				"baseColorTexture":{
					"index":4
				},
				"metallicFactor":0,
				"roughnessFactor":0.5
			}
		},
		{
			"doubleSided":true,
			"name":"Right",
			"pbrMetallicRoughness":{
				"baseColorTexture":{
					"index":5
				},
				"metallicFactor":0,
				"roughnessFactor":0.5
			}
		},
		{
			"doubleSided":true,
			"name":"holder",
			"pbrMetallicRoughness":{
				"baseColorTexture":{
					"index":6
				},
				"metallicFactor":0.7526881694793701,
				"roughnessFactor":0.29569894075393677
			}
		}
	],
	"meshes":[
		{
			"name":"Plane",
			"primitives":[
				{
					"attributes":{
						"POSITION":0,
						"NORMAL":1,
						"TEXCOORD_0":2,
						"JOINTS_0":3,
						"WEIGHTS_0":4
					},
					"indices":5,
					"material":0
				},
				{
					"attributes":{
						"POSITION":6,
						"NORMAL":7,
						"TEXCOORD_0":8,
						"JOINTS_0":9,
						"WEIGHTS_0":10
					},
					"indices":11,
					"material":1
				},
				{
					"attributes":{
						"POSITION":12,
						"NORMAL":13,
						"TEXCOORD_0":14,
						"JOINTS_0":15,
						"WEIGHTS_0":16
					},
					"indices":11,
					"material":2
				},
				{
					"attributes":{
						"POSITION":17,
						"NORMAL":18,
						"TEXCOORD_0":19,
						"JOINTS_0":20,
						"WEIGHTS_0":21
					},
					"indices":11,
					"material":3
				},
				{
					"attributes":{
						"POSITION":22,
						"NORMAL":23,
						"TEXCOORD_0":24,
						"JOINTS_0":25,
						"WEIGHTS_0":26
					},
					"indices":27,
					"material":4
				},
				{
					"attributes":{
						"POSITION":28,
						"NORMAL":29,
						"TEXCOORD_0":30,
						"JOINTS_0":31,
						"WEIGHTS_0":32
					},
					"indices":27,
					"material":5
				},
				{
					"attributes":{
						"POSITION":33,
						"NORMAL":34,
						"TEXCOORD_0":35,
						"JOINTS_0":36,
						"WEIGHTS_0":37
					},
					"indices":38,
					"material":6
				}
			]
		}
	],
	"textures":[
		{
			"sampler":0,
			"source":0
		},
		{
			"sampler":0,
			"source":0
		},
		{
			"sampler":0,
			"source":0
		},
		{
			"sampler":0,
			"source":0
		},
		{
			"sampler":0,
			"source":0
		},
		{
			"sampler":0,
			"source":0
		},
		{
			"sampler":0,
			"source":1
		}
	],
	"images":[
		{
			"mimeType":"image/jpeg",
			"name":"Wallet texture",
			"uri":"Wallet%20texture.jpg"
		},
		{
			"mimeType":"image/jpeg",
			"name":"cardboard-texture-background",
			"uri":"cardboard-texture-background.jpg"
		}
	],
	"skins":[
		{
			"inverseBindMatrices":39,
			"joints":[
				2,
				1,
				0,
				3
			],
			"name":"Armature"
		}
	],
	"accessors":[
		{
			"bufferView":0,
			"componentType":5126,
			"count":19788,
			"max":[
				1.3779264688491821,
				0.7297177314758301,
				1
			],
			"min":[
				-1,
				-0.014999999664723873,
				-5
			],
			"type":"VEC3"
		},
		{
			"bufferView":1,
			"componentType":5126,
			"count":19788,
			"type":"VEC3"
		},
		{
			"bufferView":2,
			"componentType":5126,
			"count":19788,
			"type":"VEC2"
		},
		{
			"bufferView":3,
			"componentType":5121,
			"count":19788,
			"type":"VEC4"
		},
		{
			"bufferView":4,
			"componentType":5126,
			"count":19788,
			"type":"VEC4"
		},
		{
			"bufferView":5,
			"componentType":5123,
			"count":84846,
			"type":"SCALAR"
		},
		{
			"bufferView":6,
			"componentType":5126,
			"count":4,
			"max":[
				1,
				-0.014999999664723873,
				-1
			],
			"min":[
				-1,
				-0.014999999664723873,
				-2
			],
			"type":"VEC3"
		},
		{
			"bufferView":7,
			"componentType":5126,
			"count":4,
			"type":"VEC3"
		},
		{
			"bufferView":8,
			"componentType":5126,
			"count":4,
			"type":"VEC2"
		},
		{
			"bufferView":9,
			"componentType":5121,
			"count":4,
			"type":"VEC4"
		},
		{
			"bufferView":10,
			"componentType":5126,
			"count":4,
			"type":"VEC4"
		},
		{
			"bufferView":11,
			"componentType":5123,
			"count":6,
			"type":"SCALAR"
		},
		{
			"bufferView":12,
			"componentType":5126,
			"count":4,
			"max":[
				1,
				-0.014999999664723873,
				-2
			],
			"min":[
				-1,
				-0.014999999664723873,
				-4
			],
			"type":"VEC3"
		},
		{
			"bufferView":13,
			"componentType":5126,
			"count":4,
			"type":"VEC3"
		},
		{
			"bufferView":14,
			"componentType":5126,
			"count":4,
			"type":"VEC2"
		},
		{
			"bufferView":15,
			"componentType":5121,
			"count":4,
			"type":"VEC4"
		},
		{
			"bufferView":16,
			"componentType":5126,
			"count":4,
			"type":"VEC4"
		},
		{
			"bufferView":17,
			"componentType":5126,
			"count":4,
			"max":[
				1,
				-0.014999999664723873,
				1
			],
			"min":[
				-1,
				-0.014999999664723873,
				-1
			],
			"type":"VEC3"
		},
		{
			"bufferView":18,
			"componentType":5126,
			"count":4,
			"type":"VEC3"
		},
		{
			"bufferView":19,
			"componentType":5126,
			"count":4,
			"type":"VEC2"
		},
		{
			"bufferView":20,
			"componentType":5121,
			"count":4,
			"type":"VEC4"
		},
		{
			"bufferView":21,
			"componentType":5126,
			"count":4,
			"type":"VEC4"
		},
		{
			"bufferView":22,
			"componentType":5126,
			"count":4,
			"max":[
				-0.9433472752571106,
				0.7233789563179016,
				0.9474846124649048
			],
			"min":[
				-0.9474846124649048,
				0.013567963615059853,
				-0.9474846124649048
			],
			"type":"VEC3"
		},
		{
			"bufferView":23,
			"componentType":5126,
			"count":4,
			"type":"VEC3"
		},
		{
			"bufferView":24,
			"componentType":5126,
			"count":4,
			"type":"VEC2"
		},
		{
			"bufferView":25,
			"componentType":5121,
			"count":4,
			"type":"VEC4"
		},
		{
			"bufferView":26,
			"componentType":5126,
			"count":4,
			"type":"VEC4"
		},
		{
			"bufferView":27,
			"componentType":5123,
			"count":6,
			"type":"SCALAR"
		},
		{
			"bufferView":28,
			"componentType":5126,
			"count":4,
			"max":[
				0.9474846124649048,
				0.7233789563179016,
				0.9474846124649048
			],
			"min":[
				0.9433472752571106,
				0.013567963615059853,
				-0.9474846124649048
			],
			"type":"VEC3"
		},
		{
			"bufferView":29,
			"componentType":5126,
			"count":4,
			"type":"VEC3"
		},
		{
			"bufferView":30,
			"componentType":5126,
			"count":4,
			"type":"VEC2"
		},
		{
			"bufferView":31,
			"componentType":5121,
			"count":4,
			"type":"VEC4"
		},
		{
			"bufferView":32,
			"componentType":5126,
			"count":4,
			"type":"VEC4"
		},
		{
			"bufferView":33,
			"componentType":5126,
			"count":1292,
			"max":[
				1.3779206275939941,
				0.4807220995426178,
				0.4908890724182129
			],
			"min":[
				0.630549967288971,
				0.4507220685482025,
				-0.4908890724182129
			],
			"type":"VEC3"
		},
		{
			"bufferView":34,
			"componentType":5126,
			"count":1292,
			"type":"VEC3"
		},
		{
			"bufferView":35,
			"componentType":5126,
			"count":1292,
			"type":"VEC2"
		},
		{
			"bufferView":36,
			"componentType":5121,
			"count":1292,
			"type":"VEC4"
		},
		{
			"bufferView":37,
			"componentType":5126,
			"count":1292,
			"type":"VEC4"
		},
		{
			"bufferView":38,
			"componentType":5123,
			"count":3876,
			"type":"SCALAR"
		},
		{
			"bufferView":39,
			"componentType":5126,
			"count":4,
			"type":"MAT4"
		},
		{
			"bufferView":40,
			"componentType":5126,
			"count":2,
			"max":[
				1.0416666666666667
			],
			"min":[
				0.041666666666666664
			],
			"type":"SCALAR"
		},
		{
			"bufferView":41,
			"componentType":5126,
			"count":2,
			"type":"VEC3"
		},
		{
			"bufferView":42,
			"componentType":5126,
			"count":25,
			"max":[
				1.0416666666666667
			],
			"min":[
				0.041666666666666664
			],
			"type":"SCALAR"
		},
		{
			"bufferView":43,
			"componentType":5126,
			"count":25,
			"type":"VEC4"
		},
		{
			"bufferView":44,
			"componentType":5126,
			"count":2,
			"type":"VEC3"
		},
		{
			"bufferView":45,
			"componentType":5126,
			"count":2,
			"type":"VEC3"
		},
		{
			"bufferView":46,
			"componentType":5126,
			"count":25,
			"type":"VEC4"
		},
		{
			"bufferView":47,
			"componentType":5126,
			"count":2,
			"type":"VEC3"
		},
		{
			"bufferView":48,
			"componentType":5126,
			"count":2,
			"type":"VEC3"
		},
		{
			"bufferView":49,
			"componentType":5126,
			"count":25,
			"type":"VEC4"
		},
		{
			"bufferView":50,
			"componentType":5126,
			"count":2,
			"type":"VEC3"
		}
	],
	"bufferViews":[
		{
			"buffer":0,
			"byteLength":237456,
			"byteOffset":0,
			"target":34962
		},
		{
			"buffer":0,
			"byteLength":237456,
			"byteOffset":237456,
			"target":34962
		},
		{
			"buffer":0,
			"byteLength":158304,
			"byteOffset":474912,
			"target":34962
		},
		{
			"buffer":0,
			"byteLength":79152,
			"byteOffset":633216,
			"target":34962
		},
		{
			"buffer":0,
			"byteLength":316608,
			"byteOffset":712368,
			"target":34962
		},
		{
			"buffer":0,
			"byteLength":169692,
			"byteOffset":1028976,
			"target":34963
		},
		{
			"buffer":0,
			"byteLength":48,
			"byteOffset":1198668,
			"target":34962
		},
		{
			"buffer":0,
			"byteLength":48,
			"byteOffset":1198716,
			"target":34962
		},
		{
			"buffer":0,
			"byteLength":32,
			"byteOffset":1198764,
			"target":34962
		},
		{
			"buffer":0,
			"byteLength":16,
			"byteOffset":1198796,
			"target":34962
		},
		{
			"buffer":0,
			"byteLength":64,
			"byteOffset":1198812,
			"target":34962
		},
		{
			"buffer":0,
			"byteLength":12,
			"byteOffset":1198876,
			"target":34963
		},
		{
			"buffer":0,
			"byteLength":48,
			"byteOffset":1198888,
			"target":34962
		},
		{
			"buffer":0,
			"byteLength":48,
			"byteOffset":1198936,
			"target":34962
		},
		{
			"buffer":0,
			"byteLength":32,
			"byteOffset":1198984,
			"target":34962
		},
		{
			"buffer":0,
			"byteLength":16,
			"byteOffset":1199016,
			"target":34962
		},
		{
			"buffer":0,
			"byteLength":64,
			"byteOffset":1199032,
			"target":34962
		},
		{
			"buffer":0,
			"byteLength":48,
			"byteOffset":1199096,
			"target":34962
		},
		{
			"buffer":0,
			"byteLength":48,
			"byteOffset":1199144,
			"target":34962
		},
		{
			"buffer":0,
			"byteLength":32,
			"byteOffset":1199192,
			"target":34962
		},
		{
			"buffer":0,
			"byteLength":16,
			"byteOffset":1199224,
			"target":34962
		},
		{
			"buffer":0,
			"byteLength":64,
			"byteOffset":1199240,
			"target":34962
		},
		{
			"buffer":0,
			"byteLength":48,
			"byteOffset":1199304,
			"target":34962
		},
		{
			"buffer":0,
			"byteLength":48,
			"byteOffset":1199352,
			"target":34962
		},
		{
			"buffer":0,
			"byteLength":32,
			"byteOffset":1199400,
			"target":34962
		},
		{
			"buffer":0,
			"byteLength":16,
			"byteOffset":1199432,
			"target":34962
		},
		{
			"buffer":0,
			"byteLength":64,
			"byteOffset":1199448,
			"target":34962
		},
		{
			"buffer":0,
			"byteLength":12,
			"byteOffset":1199512,
			"target":34963
		},
		{
			"buffer":0,
			"byteLength":48,
			"byteOffset":1199524,
			"target":34962
		},
		{
			"buffer":0,
			"byteLength":48,
			"byteOffset":1199572,
			"target":34962
		},
		{
			"buffer":0,
			"byteLength":32,
			"byteOffset":1199620,
			"target":34962
		},
		{
			"buffer":0,
			"byteLength":16,
			"byteOffset":1199652,
			"target":34962
		},
		{
			"buffer":0,
			"byteLength":64,
			"byteOffset":1199668,
			"target":34962
		},
		{
			"buffer":0,
			"byteLength":15504,
			"byteOffset":1199732,
			"target":34962
		},
		{
			"buffer":0,
			"byteLength":15504,
			"byteOffset":1215236,
			"target":34962
		},
		{
			"buffer":0,
			"byteLength":10336,
			"byteOffset":1230740,
			"target":34962
		},
		{
			"buffer":0,
			"byteLength":5168,
			"byteOffset":1241076,
			"target":34962
		},
		{
			"buffer":0,
			"byteLength":20672,
			"byteOffset":1246244,
			"target":34962
		},
		{
			"buffer":0,
			"byteLength":7752,
			"byteOffset":1266916,
			"target":34963
		},
		{
			"buffer":0,
			"byteLength":256,
			"byteOffset":1274668
		},
		{
			"buffer":0,
			"byteLength":8,
			"byteOffset":1274924
		},
		{
			"buffer":0,
			"byteLength":24,
			"byteOffset":1274932
		},
		{
			"buffer":0,
			"byteLength":100,
			"byteOffset":1274956
		},
		{
			"buffer":0,
			"byteLength":400,
			"byteOffset":1275056
		},
		{
			"buffer":0,
			"byteLength":24,
			"byteOffset":1275456
		},
		{
			"buffer":0,
			"byteLength":24,
			"byteOffset":1275480
		},
		{
			"buffer":0,
			"byteLength":400,
			"byteOffset":1275504
		},
		{
			"buffer":0,
			"byteLength":24,
			"byteOffset":1275904
		},
		{
			"buffer":0,
			"byteLength":24,
			"byteOffset":1275928
		},
		{
			"buffer":0,
			"byteLength":400,
			"byteOffset":1275952
		},
		{
			"buffer":0,
			"byteLength":24,
			"byteOffset":1276352
		}
	],
	"samplers":[
		{
			"magFilter":9729,
			"minFilter":9987
		}
	],
	"buffers":[
		{
			"byteLength":1276376,
			"uri":"LittleBottleHolder.bin"
		}
	]
}
