{
	"asset":{
		"generator":"Khronos glTF Blender I/O v4.3.47",
		"version":"2.0"
	},
	"scene":0,
	"scenes":[
		{
			"name":"Scene",
			"nodes":[
				0,
				1
			]
		}
	],
	"nodes":[
		{
			"mesh":0,
			"name":"Cylinder",
			"scale":[
				2.1654722690582275,
				0.5712794065475464,
				2.1654722690582275
			]
		},
		{
			"mesh":1,
			"name":"Cylinder.001",
			"scale":[
				2.4353222846984863,
				0.10992431640625,
				2.4353222846984863
			],
			"translation":[
				0,
				0.608610212802887,
				0
			]
		}
	],
	"animations":[
		{
			"channels":[
				{
					"sampler":0,
					"target":{
						"node":1,
						"path":"translation"
					}
				},
				{
					"sampler":1,
					"target":{
						"node":1,
						"path":"rotation"
					}
				}
			],
			"name":"Cylinder.001Action",
			"samplers":[
				{
					"input":8,
					"interpolation":"LINEAR",
					"output":9
				},
				{
					"input":8,
					"interpolation":"LINEAR",
					"output":10
				}
			]
		}
	],
	"materials":[
		{
			"doubleSided":true,
			"name":"Bottom",
			"pbrMetallicRoughness":{
				"baseColorTexture":{
					"index":0
				},
				"metallicFactor":0,
				"roughnessFactor":0.9545454978942871
			}
		},
		{
			"alphaMode":"BLEND",
			"doubleSided":true,
			"name":"Top",
			"pbrMetallicRoughness":{
				"baseColorFactor":[
					0.7173916697502136,
					0.7173916697502136,
					0.7173916697502136,
					0.586363673210144
				],
				"metallicFactor":0.06363636255264282,
				"roughnessFactor":0.3272727131843567
			}
		}
	],
	"meshes":[
		{
			"name":"Cylinder",
			"primitives":[
				{
					"attributes":{
						"POSITION":0,
						"NORMAL":1,
						"TEXCOORD_0":2
					},
					"indices":3,
					"material":0
				}
			]
		},
		{
			"name":"Cylinder.002",
			"primitives":[
				{
					"attributes":{
						"POSITION":4,
						"NORMAL":5,
						"TEXCOORD_0":6
					},
					"indices":7,
					"material":1
				}
			]
		}
	],
	"textures":[
		{
			"sampler":0,
			"source":0
		}
	],
	"images":[
		{
			"mimeType":"image/jpeg",
			"name":"CoffeeTexture",
			"uri":"CoffeeTexture.jpg"
		}
	],
	"accessors":[
		{
			"bufferView":0,
			"componentType":5126,
			"count":324,
			"max":[
				1.1166775226593018,
				1.0017472505569458,
				1.1166775226593018
			],
			"min":[
				-1.1166775226593018,
				-1,
				-1.1166775226593018
			],
			"type":"VEC3"
		},
		{
			"bufferView":1,
			"componentType":5126,
			"count":324,
			"type":"VEC3"
		},
		{
			"bufferView":2,
			"componentType":5126,
			"count":324,
			"type":"VEC2"
		},
		{
			"bufferView":3,
			"componentType":5123,
			"count":1524,
			"type":"SCALAR"
		},
		{
			"bufferView":4,
			"componentType":5126,
			"count":113370,
			"max":[
				1.0109796524047852,
				3.5176711082458496,
				1.0109796524047852
			],
			"min":[
				-1.0109796524047852,
				-1.000157117843628,
				-1.0109796524047852
			],
			"type":"VEC3"
		},
		{
			"bufferView":5,
			"componentType":5126,
			"count":113370,
			"type":"VEC3"
		},
		{
			"bufferView":6,
			"componentType":5126,
			"count":113370,
			"type":"VEC2"
		},
		{
			"bufferView":7,
			"componentType":5125,
			"count":669684,
			"type":"SCALAR"
		},
		{
			"bufferView":8,
			"componentType":5126,
			"count":26,
			"max":[
				1.0416666666666667
			],
			"min":[
				0
			],
			"type":"SCALAR"
		},
		{
			"bufferView":9,
			"componentType":5126,
			"count":26,
			"type":"VEC3"
		},
		{
			"bufferView":10,
			"componentType":5126,
			"count":26,
			"type":"VEC4"
		}
	],
	"bufferViews":[
		{
			"buffer":0,
			"byteLength":3888,
			"byteOffset":0,
			"target":34962
		},
		{
			"buffer":0,
			"byteLength":3888,
			"byteOffset":3888,
			"target":34962
		},
		{
			"buffer":0,
			"byteLength":2592,
			"byteOffset":7776,
			"target":34962
		},
		{
			"buffer":0,
			"byteLength":3048,
			"byteOffset":10368,
			"target":34963
		},
		{
			"buffer":0,
			"byteLength":1360440,
			"byteOffset":13416,
			"target":34962
		},
		{
			"buffer":0,
			"byteLength":1360440,
			"byteOffset":1373856,
			"target":34962
		},
		{
			"buffer":0,
			"byteLength":906960,
			"byteOffset":2734296,
			"target":34962
		},
		{
			"buffer":0,
			"byteLength":2678736,
			"byteOffset":3641256,
			"target":34963
		},
		{
			"buffer":0,
			"byteLength":104,
			"byteOffset":6319992
		},
		{
			"buffer":0,
			"byteLength":312,
			"byteOffset":6320096
		},
		{
			"buffer":0,
			"byteLength":416,
			"byteOffset":6320408
		}
	],
	"samplers":[
		{
			"magFilter":9729,
			"minFilter":9987
		}
	],
	"buffers":[
		{
			"byteLength":6320824,
			"uri":"Model16Full.bin"
		}
	]
}
