{
	"asset":{
		"generator":"Khronos glTF Blender I/O v4.3.47",
		"version":"2.0"
	},
	"scene":0,
	"scenes":[
		{
			"name":"Scene",
			"nodes":[
				0,
				1
			]
		}
	],
	"nodes":[
		{
			"mesh":0,
			"name":"Plane",
			"scale":[
				1,
				1,
				2
			],
			"translation":[
				0,
				-1,
				0
			]
		},
		{
			"mesh":1,
			"name":"Plane.001",
			"rotation":[
				0,
				0,
				1,
				1.6292068494294654e-07
			],
			"scale":[
				1.0274882316589355,
				1.0274882316589355,
				2.054976463317871
			],
			"translation":[
				0,
				0.4959670901298523,
				0
			]
		}
	],
	"animations":[
		{
			"channels":[
				{
					"sampler":0,
					"target":{
						"node":1,
						"path":"translation"
					}
				},
				{
					"sampler":1,
					"target":{
						"node":1,
						"path":"rotation"
					}
				}
			],
			"name":"Plane.001Action",
			"samplers":[
				{
					"input":22,
					"interpolation":"LINEAR",
					"output":23
				},
				{
					"input":22,
					"interpolation":"LINEAR",
					"output":24
				}
			]
		}
	],
	"materials":[
		{
			"doubleSided":true,
			"name":"Bottom",
			"pbrMetallicRoughness":{
				"baseColorTexture":{
					"index":0
				},
				"metallicFactor":0,
				"roughnessFactor":0.5
			}
		},
		{
			"doubleSided":true,
			"name":"Top",
			"pbrMetallicRoughness":{
				"baseColorTexture":{
					"index":1
				},
				"metallicFactor":0,
				"roughnessFactor":0.5
			}
		},
		{
			"doubleSided":true,
			"name":"Front",
			"pbrMetallicRoughness":{
				"baseColorTexture":{
					"index":2
				},
				"metallicFactor":0,
				"roughnessFactor":0.5
			}
		},
		{
			"doubleSided":true,
			"name":"Back",
			"pbrMetallicRoughness":{
				"baseColorTexture":{
					"index":3
				},
				"metallicFactor":0,
				"roughnessFactor":0.5
			}
		},
		{
			"doubleSided":true,
			"name":"Left",
			"pbrMetallicRoughness":{
				"baseColorTexture":{
					"index":4
				},
				"metallicFactor":0,
				"roughnessFactor":0.5
			}
		},
		{
			"doubleSided":true,
			"name":"Right",
			"pbrMetallicRoughness":{
				"baseColorTexture":{
					"index":5
				},
				"metallicFactor":0,
				"roughnessFactor":0.5
			}
		}
	],
	"meshes":[
		{
			"name":"Plane",
			"primitives":[
				{
					"attributes":{
						"POSITION":0,
						"NORMAL":1,
						"TEXCOORD_0":2
					},
					"indices":3,
					"material":0
				}
			]
		},
		{
			"name":"Plane.001",
			"primitives":[
				{
					"attributes":{
						"POSITION":4,
						"NORMAL":5,
						"TEXCOORD_0":6
					},
					"indices":7,
					"material":1
				},
				{
					"attributes":{
						"POSITION":8,
						"NORMAL":9,
						"TEXCOORD_0":10
					},
					"indices":11,
					"material":2
				},
				{
					"attributes":{
						"POSITION":12,
						"NORMAL":13,
						"TEXCOORD_0":14
					},
					"indices":15,
					"material":3
				},
				{
					"attributes":{
						"POSITION":16,
						"NORMAL":17,
						"TEXCOORD_0":18
					},
					"indices":11,
					"material":4
				},
				{
					"attributes":{
						"POSITION":19,
						"NORMAL":20,
						"TEXCOORD_0":21
					},
					"indices":15,
					"material":5
				}
			]
		}
	],
	"textures":[
		{
			"sampler":0,
			"source":0
		},
		{
			"sampler":0,
			"source":0
		},
		{
			"sampler":0,
			"source":0
		},
		{
			"sampler":0,
			"source":0
		},
		{
			"sampler":0,
			"source":0
		},
		{
			"sampler":0,
			"source":0
		}
	],
	"images":[
		{
			"mimeType":"image/jpeg",
			"name":"cardboard-texture-background",
			"uri":"cardboard-texture-background.jpg"
		}
	],
	"accessors":[
		{
			"bufferView":0,
			"componentType":5126,
			"count":68,
			"max":[
				1.0149999856948853,
				1.5,
				1.0106066465377808
			],
			"min":[
				-1.0149999856948853,
				-0.008660254068672657,
				-1.0149999856948853
			],
			"type":"VEC3"
		},
		{
			"bufferView":1,
			"componentType":5126,
			"count":68,
			"type":"VEC3"
		},
		{
			"bufferView":2,
			"componentType":5126,
			"count":68,
			"type":"VEC2"
		},
		{
			"bufferView":3,
			"componentType":5123,
			"count":108,
			"type":"SCALAR"
		},
		{
			"bufferView":4,
			"componentType":5126,
			"count":52,
			"max":[
				1.0149999856948853,
				1.5,
				1.0106066465377808
			],
			"min":[
				-1.0149999856948853,
				-0.008660254068672657,
				-1.0149999856948853
			],
			"type":"VEC3"
		},
		{
			"bufferView":5,
			"componentType":5126,
			"count":52,
			"type":"VEC3"
		},
		{
			"bufferView":6,
			"componentType":5126,
			"count":52,
			"type":"VEC2"
		},
		{
			"bufferView":7,
			"componentType":5123,
			"count":84,
			"type":"SCALAR"
		},
		{
			"bufferView":8,
			"componentType":5126,
			"count":4,
			"max":[
				1.0086601972579956,
				1.5,
				-1.0086601972579956
			],
			"min":[
				-1.0086601972579956,
				-0.008660254068672657,
				-1.0149999856948853
			],
			"type":"VEC3"
		},
		{
			"bufferView":9,
			"componentType":5126,
			"count":4,
			"type":"VEC3"
		},
		{
			"bufferView":10,
			"componentType":5126,
			"count":4,
			"type":"VEC2"
		},
		{
			"bufferView":11,
			"componentType":5123,
			"count":6,
			"type":"SCALAR"
		},
		{
			"bufferView":12,
			"componentType":5126,
			"count":4,
			"max":[
				1.0106066465377808,
				1.5,
				1.0106066465377808
			],
			"min":[
				-1.0106066465377808,
				-0.008660254068672657,
				1.0086601972579956
			],
			"type":"VEC3"
		},
		{
			"bufferView":13,
			"componentType":5126,
			"count":4,
			"type":"VEC3"
		},
		{
			"bufferView":14,
			"componentType":5126,
			"count":4,
			"type":"VEC2"
		},
		{
			"bufferView":15,
			"componentType":5123,
			"count":6,
			"type":"SCALAR"
		},
		{
			"bufferView":16,
			"componentType":5126,
			"count":4,
			"max":[
				-1.0086601972579956,
				1.5,
				1.0106066465377808
			],
			"min":[
				-1.0149999856948853,
				-0.008660254068672657,
				-1.0086601972579956
			],
			"type":"VEC3"
		},
		{
			"bufferView":17,
			"componentType":5126,
			"count":4,
			"type":"VEC3"
		},
		{
			"bufferView":18,
			"componentType":5126,
			"count":4,
			"type":"VEC2"
		},
		{
			"bufferView":19,
			"componentType":5126,
			"count":4,
			"max":[
				1.0149999856948853,
				1.5,
				1.0106066465377808
			],
			"min":[
				1.0086601972579956,
				-0.008660254068672657,
				-1.0086601972579956
			],
			"type":"VEC3"
		},
		{
			"bufferView":20,
			"componentType":5126,
			"count":4,
			"type":"VEC3"
		},
		{
			"bufferView":21,
			"componentType":5126,
			"count":4,
			"type":"VEC2"
		},
		{
			"bufferView":22,
			"componentType":5126,
			"count":25,
			"max":[
				1.0416666666666667
			],
			"min":[
				0.041666666666666664
			],
			"type":"SCALAR"
		},
		{
			"bufferView":23,
			"componentType":5126,
			"count":25,
			"type":"VEC3"
		},
		{
			"bufferView":24,
			"componentType":5126,
			"count":25,
			"type":"VEC4"
		}
	],
	"bufferViews":[
		{
			"buffer":0,
			"byteLength":816,
			"byteOffset":0,
			"target":34962
		},
		{
			"buffer":0,
			"byteLength":816,
			"byteOffset":816,
			"target":34962
		},
		{
			"buffer":0,
			"byteLength":544,
			"byteOffset":1632,
			"target":34962
		},
		{
			"buffer":0,
			"byteLength":216,
			"byteOffset":2176,
			"target":34963
		},
		{
			"buffer":0,
			"byteLength":624,
			"byteOffset":2392,
			"target":34962
		},
		{
			"buffer":0,
			"byteLength":624,
			"byteOffset":3016,
			"target":34962
		},
		{
			"buffer":0,
			"byteLength":416,
			"byteOffset":3640,
			"target":34962
		},
		{
			"buffer":0,
			"byteLength":168,
			"byteOffset":4056,
			"target":34963
		},
		{
			"buffer":0,
			"byteLength":48,
			"byteOffset":4224,
			"target":34962
		},
		{
			"buffer":0,
			"byteLength":48,
			"byteOffset":4272,
			"target":34962
		},
		{
			"buffer":0,
			"byteLength":32,
			"byteOffset":4320,
			"target":34962
		},
		{
			"buffer":0,
			"byteLength":12,
			"byteOffset":4352,
			"target":34963
		},
		{
			"buffer":0,
			"byteLength":48,
			"byteOffset":4364,
			"target":34962
		},
		{
			"buffer":0,
			"byteLength":48,
			"byteOffset":4412,
			"target":34962
		},
		{
			"buffer":0,
			"byteLength":32,
			"byteOffset":4460,
			"target":34962
		},
		{
			"buffer":0,
			"byteLength":12,
			"byteOffset":4492,
			"target":34963
		},
		{
			"buffer":0,
			"byteLength":48,
			"byteOffset":4504,
			"target":34962
		},
		{
			"buffer":0,
			"byteLength":48,
			"byteOffset":4552,
			"target":34962
		},
		{
			"buffer":0,
			"byteLength":32,
			"byteOffset":4600,
			"target":34962
		},
		{
			"buffer":0,
			"byteLength":48,
			"byteOffset":4632,
			"target":34962
		},
		{
			"buffer":0,
			"byteLength":48,
			"byteOffset":4680,
			"target":34962
		},
		{
			"buffer":0,
			"byteLength":32,
			"byteOffset":4728,
			"target":34962
		},
		{
			"buffer":0,
			"byteLength":100,
			"byteOffset":4760
		},
		{
			"buffer":0,
			"byteLength":300,
			"byteOffset":4860
		},
		{
			"buffer":0,
			"byteLength":400,
			"byteOffset":5160
		}
	],
	"samplers":[
		{
			"magFilter":9729,
			"minFilter":9987
		}
	],
	"buffers":[
		{
			"byteLength":5560,
			"uri":"Model7.bin"
		}
	]
}
