{
	"asset":{
		"generator":"Khronos glTF Blender I/O v4.3.47",
		"version":"2.0"
	},
	"scene":0,
	"scenes":[
		{
			"name":"Scene",
			"nodes":[
				3
			]
		}
	],
	"nodes":[
		{
			"name":"Bone",
			"rotation":[
				0,
				0,
				-3.5527132552840273e-15,
				1
			],
			"scale":[
				1.0000001192092896,
				1.0000001192092896,
				1.0000001192092896
			],
			"translation":[
				2.0181126103580027e-08,
				-1.6416205284031093e-08,
				0
			]
		},
		{
			"name":"neutral_bone",
			"rotation":[
				-0.7071067690849304,
				0,
				0,
				0.7071067690849304
			]
		},
		{
			"mesh":0,
			"name":"Cube",
			"skin":0
		},
		{
			"children":[
				2,
				0,
				1
			],
			"name":"Armature",
			"rotation":[
				0,
				0,
				0.7071068286895752,
				0.7071068286895752
			],
			"scale":[
				3.238717794418335,
				3.238717794418335,
				3.238717794418335
			],
			"translation":[
				1.504963994026184,
				0.574239194393158,
				0
			]
		}
	],
	"animations":[
		{
			"channels":[
				{
					"sampler":0,
					"target":{
						"node":0,
						"path":"translation"
					}
				},
				{
					"sampler":1,
					"target":{
						"node":0,
						"path":"rotation"
					}
				},
				{
					"sampler":2,
					"target":{
						"node":0,
						"path":"scale"
					}
				}
			],
			"name":"ArmatureAction",
			"samplers":[
				{
					"input":42,
					"interpolation":"STEP",
					"output":43
				},
				{
					"input":44,
					"interpolation":"LINEAR",
					"output":45
				},
				{
					"input":42,
					"interpolation":"STEP",
					"output":46
				}
			]
		}
	],
	"materials":[
		{
			"doubleSided":true,
			"name":"Top",
			"pbrMetallicRoughness":{
				"baseColorTexture":{
					"index":0
				},
				"metallicFactor":0,
				"roughnessFactor":0.5
			}
		},
		{
			"doubleSided":true,
			"name":"Bottom",
			"pbrMetallicRoughness":{
				"baseColorTexture":{
					"index":1
				},
				"metallicFactor":0,
				"roughnessFactor":0.5
			}
		},
		{
			"doubleSided":true,
			"name":"Front",
			"pbrMetallicRoughness":{
				"baseColorTexture":{
					"index":2
				},
				"metallicFactor":0,
				"roughnessFactor":0.5
			}
		},
		{
			"doubleSided":true,
			"name":"Back",
			"pbrMetallicRoughness":{
				"baseColorTexture":{
					"index":3
				},
				"metallicFactor":0,
				"roughnessFactor":0.5
			}
		},
		{
			"doubleSided":true,
			"name":"Left",
			"pbrMetallicRoughness":{
				"baseColorTexture":{
					"index":4
				},
				"metallicFactor":0,
				"roughnessFactor":0.5
			}
		},
		{
			"doubleSided":true,
			"name":"Right",
			"pbrMetallicRoughness":{
				"baseColorTexture":{
					"index":5
				},
				"metallicFactor":0,
				"roughnessFactor":0.5
			}
		},
		{
			"alphaMode":"BLEND",
			"doubleSided":true,
			"name":"Speacial",
			"pbrMetallicRoughness":{
				"baseColorFactor":[
					0.3054106533527374,
					0.3054106533527374,
					0.3054106533527374,
					0.5053763389587402
				],
				"metallicFactor":0,
				"roughnessFactor":0.6827957034111023
			}
		}
	],
	"meshes":[
		{
			"name":"Cube.001",
			"primitives":[
				{
					"attributes":{
						"POSITION":0,
						"NORMAL":1,
						"TEXCOORD_0":2,
						"JOINTS_0":3,
						"WEIGHTS_0":4
					},
					"indices":5,
					"material":0
				},
				{
					"attributes":{
						"POSITION":6,
						"NORMAL":7,
						"TEXCOORD_0":8,
						"JOINTS_0":9,
						"WEIGHTS_0":10
					},
					"indices":11,
					"material":1
				},
				{
					"attributes":{
						"POSITION":12,
						"NORMAL":13,
						"TEXCOORD_0":14,
						"JOINTS_0":15,
						"WEIGHTS_0":16
					},
					"indices":17,
					"material":2
				},
				{
					"attributes":{
						"POSITION":18,
						"NORMAL":19,
						"TEXCOORD_0":20,
						"JOINTS_0":21,
						"WEIGHTS_0":22
					},
					"indices":23,
					"material":3
				},
				{
					"attributes":{
						"POSITION":24,
						"NORMAL":25,
						"TEXCOORD_0":26,
						"JOINTS_0":27,
						"WEIGHTS_0":28
					},
					"indices":29,
					"material":4
				},
				{
					"attributes":{
						"POSITION":30,
						"NORMAL":31,
						"TEXCOORD_0":32,
						"JOINTS_0":33,
						"WEIGHTS_0":34
					},
					"indices":35,
					"material":5
				},
				{
					"attributes":{
						"POSITION":36,
						"NORMAL":37,
						"TEXCOORD_0":38,
						"JOINTS_0":39,
						"WEIGHTS_0":40
					},
					"indices":17,
					"material":6
				}
			]
		}
	],
	"textures":[
		{
			"sampler":0,
			"source":0
		},
		{
			"sampler":0,
			"source":0
		},
		{
			"sampler":0,
			"source":0
		},
		{
			"sampler":0,
			"source":0
		},
		{
			"sampler":0,
			"source":0
		},
		{
			"sampler":0,
			"source":0
		}
	],
	"images":[
		{
			"mimeType":"image/jpeg",
			"name":"CardBoard",
			"uri":"CardBoard.jpg"
		}
	],
	"skins":[
		{
			"inverseBindMatrices":41,
			"joints":[
				0,
				1
			],
			"name":"Armature"
		}
	],
	"accessors":[
		{
			"bufferView":0,
			"componentType":5126,
			"count":36,
			"max":[
				1.532669186592102,
				0.5746747255325317,
				2.862584114074707
			],
			"min":[
				-1.7386034727096558,
				0.5746747255325317,
				-2.8081486225128174
			],
			"type":"VEC3"
		},
		{
			"bufferView":1,
			"componentType":5126,
			"count":36,
			"type":"VEC3"
		},
		{
			"bufferView":2,
			"componentType":5126,
			"count":36,
			"type":"VEC2"
		},
		{
			"bufferView":3,
			"componentType":5121,
			"count":36,
			"type":"VEC4"
		},
		{
			"bufferView":4,
			"componentType":5126,
			"count":36,
			"type":"VEC4"
		},
		{
			"bufferView":5,
			"componentType":5123,
			"count":108,
			"type":"SCALAR"
		},
		{
			"bufferView":6,
			"componentType":5126,
			"count":8,
			"max":[
				1.1823636293411255,
				-0.5746747255325317,
				2.086066246032715
			],
			"min":[
				-1.1823638677597046,
				-0.5746747255325317,
				-2.086066246032715
			],
			"type":"VEC3"
		},
		{
			"bufferView":7,
			"componentType":5126,
			"count":8,
			"type":"VEC3"
		},
		{
			"bufferView":8,
			"componentType":5126,
			"count":8,
			"type":"VEC2"
		},
		{
			"bufferView":9,
			"componentType":5121,
			"count":8,
			"type":"VEC4"
		},
		{
			"bufferView":10,
			"componentType":5126,
			"count":8,
			"type":"VEC4"
		},
		{
			"bufferView":11,
			"componentType":5123,
			"count":18,
			"type":"SCALAR"
		},
		{
			"bufferView":12,
			"componentType":5126,
			"count":4,
			"max":[
				1.532669186592102,
				0.5746747255325317,
				-2.086066246032715
			],
			"min":[
				-1.5326694250106812,
				-0.5746747255325317,
				-2.7041168212890625
			],
			"type":"VEC3"
		},
		{
			"bufferView":13,
			"componentType":5126,
			"count":4,
			"type":"VEC3"
		},
		{
			"bufferView":14,
			"componentType":5126,
			"count":4,
			"type":"VEC2"
		},
		{
			"bufferView":15,
			"componentType":5121,
			"count":4,
			"type":"VEC4"
		},
		{
			"bufferView":16,
			"componentType":5126,
			"count":4,
			"type":"VEC4"
		},
		{
			"bufferView":17,
			"componentType":5123,
			"count":6,
			"type":"SCALAR"
		},
		{
			"bufferView":18,
			"componentType":5126,
			"count":4,
			"max":[
				1.532669186592102,
				0.5746747255325317,
				2.7041168212890625
			],
			"min":[
				-1.5326694250106812,
				-0.5746747255325317,
				2.086066246032715
			],
			"type":"VEC3"
		},
		{
			"bufferView":19,
			"componentType":5126,
			"count":4,
			"type":"VEC3"
		},
		{
			"bufferView":20,
			"componentType":5126,
			"count":4,
			"type":"VEC2"
		},
		{
			"bufferView":21,
			"componentType":5121,
			"count":4,
			"type":"VEC4"
		},
		{
			"bufferView":22,
			"componentType":5126,
			"count":4,
			"type":"VEC4"
		},
		{
			"bufferView":23,
			"componentType":5123,
			"count":6,
			"type":"SCALAR"
		},
		{
			"bufferView":24,
			"componentType":5126,
			"count":8,
			"max":[
				-1.1823638677597046,
				0.5746747255325317,
				2.7041168212890625
			],
			"min":[
				-1.5326694250106812,
				-0.5746747255325317,
				-2.7041168212890625
			],
			"type":"VEC3"
		},
		{
			"bufferView":25,
			"componentType":5126,
			"count":8,
			"type":"VEC3"
		},
		{
			"bufferView":26,
			"componentType":5126,
			"count":8,
			"type":"VEC2"
		},
		{
			"bufferView":27,
			"componentType":5121,
			"count":8,
			"type":"VEC4"
		},
		{
			"bufferView":28,
			"componentType":5126,
			"count":8,
			"type":"VEC4"
		},
		{
			"bufferView":29,
			"componentType":5123,
			"count":18,
			"type":"SCALAR"
		},
		{
			"bufferView":30,
			"componentType":5126,
			"count":8,
			"max":[
				1.532669186592102,
				0.5746747255325317,
				2.7041168212890625
			],
			"min":[
				1.1823636293411255,
				-0.5746747255325317,
				-2.7041168212890625
			],
			"type":"VEC3"
		},
		{
			"bufferView":31,
			"componentType":5126,
			"count":8,
			"type":"VEC3"
		},
		{
			"bufferView":32,
			"componentType":5126,
			"count":8,
			"type":"VEC2"
		},
		{
			"bufferView":33,
			"componentType":5121,
			"count":8,
			"type":"VEC4"
		},
		{
			"bufferView":34,
			"componentType":5126,
			"count":8,
			"type":"VEC4"
		},
		{
			"bufferView":35,
			"componentType":5123,
			"count":18,
			"type":"SCALAR"
		},
		{
			"bufferView":36,
			"componentType":5126,
			"count":4,
			"max":[
				1.532669186592102,
				0.5746747255325317,
				1.2016874551773071
			],
			"min":[
				-0.10296716541051865,
				0.5746747255325317,
				-1.0408920049667358
			],
			"type":"VEC3"
		},
		{
			"bufferView":37,
			"componentType":5126,
			"count":4,
			"type":"VEC3"
		},
		{
			"bufferView":38,
			"componentType":5126,
			"count":4,
			"type":"VEC2"
		},
		{
			"bufferView":39,
			"componentType":5121,
			"count":4,
			"type":"VEC4"
		},
		{
			"bufferView":40,
			"componentType":5126,
			"count":4,
			"type":"VEC4"
		},
		{
			"bufferView":41,
			"componentType":5126,
			"count":2,
			"type":"MAT4"
		},
		{
			"bufferView":42,
			"componentType":5126,
			"count":2,
			"max":[
				1.0416666666666667
			],
			"min":[
				0.041666666666666664
			],
			"type":"SCALAR"
		},
		{
			"bufferView":43,
			"componentType":5126,
			"count":2,
			"type":"VEC3"
		},
		{
			"bufferView":44,
			"componentType":5126,
			"count":25,
			"max":[
				1.0416666666666667
			],
			"min":[
				0.041666666666666664
			],
			"type":"SCALAR"
		},
		{
			"bufferView":45,
			"componentType":5126,
			"count":25,
			"type":"VEC4"
		},
		{
			"bufferView":46,
			"componentType":5126,
			"count":2,
			"type":"VEC3"
		}
	],
	"bufferViews":[
		{
			"buffer":0,
			"byteLength":432,
			"byteOffset":0,
			"target":34962
		},
		{
			"buffer":0,
			"byteLength":432,
			"byteOffset":432,
			"target":34962
		},
		{
			"buffer":0,
			"byteLength":288,
			"byteOffset":864,
			"target":34962
		},
		{
			"buffer":0,
			"byteLength":144,
			"byteOffset":1152,
			"target":34962
		},
		{
			"buffer":0,
			"byteLength":576,
			"byteOffset":1296,
			"target":34962
		},
		{
			"buffer":0,
			"byteLength":216,
			"byteOffset":1872,
			"target":34963
		},
		{
			"buffer":0,
			"byteLength":96,
			"byteOffset":2088,
			"target":34962
		},
		{
			"buffer":0,
			"byteLength":96,
			"byteOffset":2184,
			"target":34962
		},
		{
			"buffer":0,
			"byteLength":64,
			"byteOffset":2280,
			"target":34962
		},
		{
			"buffer":0,
			"byteLength":32,
			"byteOffset":2344,
			"target":34962
		},
		{
			"buffer":0,
			"byteLength":128,
			"byteOffset":2376,
			"target":34962
		},
		{
			"buffer":0,
			"byteLength":36,
			"byteOffset":2504,
			"target":34963
		},
		{
			"buffer":0,
			"byteLength":48,
			"byteOffset":2540,
			"target":34962
		},
		{
			"buffer":0,
			"byteLength":48,
			"byteOffset":2588,
			"target":34962
		},
		{
			"buffer":0,
			"byteLength":32,
			"byteOffset":2636,
			"target":34962
		},
		{
			"buffer":0,
			"byteLength":16,
			"byteOffset":2668,
			"target":34962
		},
		{
			"buffer":0,
			"byteLength":64,
			"byteOffset":2684,
			"target":34962
		},
		{
			"buffer":0,
			"byteLength":12,
			"byteOffset":2748,
			"target":34963
		},
		{
			"buffer":0,
			"byteLength":48,
			"byteOffset":2760,
			"target":34962
		},
		{
			"buffer":0,
			"byteLength":48,
			"byteOffset":2808,
			"target":34962
		},
		{
			"buffer":0,
			"byteLength":32,
			"byteOffset":2856,
			"target":34962
		},
		{
			"buffer":0,
			"byteLength":16,
			"byteOffset":2888,
			"target":34962
		},
		{
			"buffer":0,
			"byteLength":64,
			"byteOffset":2904,
			"target":34962
		},
		{
			"buffer":0,
			"byteLength":12,
			"byteOffset":2968,
			"target":34963
		},
		{
			"buffer":0,
			"byteLength":96,
			"byteOffset":2980,
			"target":34962
		},
		{
			"buffer":0,
			"byteLength":96,
			"byteOffset":3076,
			"target":34962
		},
		{
			"buffer":0,
			"byteLength":64,
			"byteOffset":3172,
			"target":34962
		},
		{
			"buffer":0,
			"byteLength":32,
			"byteOffset":3236,
			"target":34962
		},
		{
			"buffer":0,
			"byteLength":128,
			"byteOffset":3268,
			"target":34962
		},
		{
			"buffer":0,
			"byteLength":36,
			"byteOffset":3396,
			"target":34963
		},
		{
			"buffer":0,
			"byteLength":96,
			"byteOffset":3432,
			"target":34962
		},
		{
			"buffer":0,
			"byteLength":96,
			"byteOffset":3528,
			"target":34962
		},
		{
			"buffer":0,
			"byteLength":64,
			"byteOffset":3624,
			"target":34962
		},
		{
			"buffer":0,
			"byteLength":32,
			"byteOffset":3688,
			"target":34962
		},
		{
			"buffer":0,
			"byteLength":128,
			"byteOffset":3720,
			"target":34962
		},
		{
			"buffer":0,
			"byteLength":36,
			"byteOffset":3848,
			"target":34963
		},
		{
			"buffer":0,
			"byteLength":48,
			"byteOffset":3884,
			"target":34962
		},
		{
			"buffer":0,
			"byteLength":48,
			"byteOffset":3932,
			"target":34962
		},
		{
			"buffer":0,
			"byteLength":32,
			"byteOffset":3980,
			"target":34962
		},
		{
			"buffer":0,
			"byteLength":16,
			"byteOffset":4012,
			"target":34962
		},
		{
			"buffer":0,
			"byteLength":64,
			"byteOffset":4028,
			"target":34962
		},
		{
			"buffer":0,
			"byteLength":128,
			"byteOffset":4092
		},
		{
			"buffer":0,
			"byteLength":8,
			"byteOffset":4220
		},
		{
			"buffer":0,
			"byteLength":24,
			"byteOffset":4228
		},
		{
			"buffer":0,
			"byteLength":100,
			"byteOffset":4252
		},
		{
			"buffer":0,
			"byteLength":400,
			"byteOffset":4352
		},
		{
			"buffer":0,
			"byteLength":24,
			"byteOffset":4752
		}
	],
	"samplers":[
		{
			"magFilter":9729,
			"minFilter":9987
		}
	],
	"buffers":[
		{
			"byteLength":4776,
			"uri":"Model11.bin"
		}
	]
}
