{
	"asset":{
		"generator":"Khronos glTF Blender I/O v4.3.47",
		"version":"2.0"
	},
	"scene":0,
	"scenes":[
		{
			"name":"Scene",
			"nodes":[
				0,
				1
			]
		}
	],
	"nodes":[
		{
			"mesh":0,
			"name":"Plane",
			"scale":[
				1,
				1,
				2
			]
		},
		{
			"mesh":1,
			"name":"Plane.001",
			"rotation":[
				0,
				0,
				1,
				1.6292068494294654e-07
			],
			"scale":[
				1.0274882316589355,
				1.0274882316589355,
				2.054976463317871
			],
			"translation":[
				0,
				3.44339656829834,
				0
			]
		}
	],
	"materials":[
		{
			"doubleSided":true,
			"name":"Right",
			"pbrMetallicRoughness":{
				"baseColorTexture":{
					"index":0
				},
				"metallicFactor":0,
				"roughnessFactor":0.5
			}
		}
	],
	"meshes":[
		{
			"name":"Plane",
			"primitives":[
				{
					"attributes":{
						"POSITION":0,
						"NORMAL":1,
						"TEXCOORD_0":2
					},
					"indices":3,
					"material":0
				}
			]
		},
		{
			"name":"Plane.001",
			"primitives":[
				{
					"attributes":{
						"POSITION":4,
						"NORMAL":5,
						"TEXCOORD_0":6
					},
					"indices":3,
					"material":0
				}
			]
		}
	],
	"textures":[
		{
			"sampler":0,
			"source":0
		}
	],
	"images":[
		{
			"mimeType":"image/jpeg",
			"name":"cardboard-texture-background",
			"uri":"cardboard-texture-background.jpg"
		}
	],
	"accessors":[
		{
			"bufferView":0,
			"componentType":5126,
			"count":68,
			"max":[
				1.0149999856948853,
				1.5,
				1.0106066465377808
			],
			"min":[
				-1.0149999856948853,
				-0.008660254068672657,
				-1.0149999856948853
			],
			"type":"VEC3"
		},
		{
			"bufferView":1,
			"componentType":5126,
			"count":68,
			"type":"VEC3"
		},
		{
			"bufferView":2,
			"componentType":5126,
			"count":68,
			"type":"VEC2"
		},
		{
			"bufferView":3,
			"componentType":5123,
			"count":108,
			"type":"SCALAR"
		},
		{
			"bufferView":4,
			"componentType":5126,
			"count":68,
			"max":[
				1.0149999856948853,
				1.5,
				1.0106066465377808
			],
			"min":[
				-1.0149999856948853,
				-0.008660254068672657,
				-1.0149999856948853
			],
			"type":"VEC3"
		},
		{
			"bufferView":5,
			"componentType":5126,
			"count":68,
			"type":"VEC3"
		},
		{
			"bufferView":6,
			"componentType":5126,
			"count":68,
			"type":"VEC2"
		}
	],
	"bufferViews":[
		{
			"buffer":0,
			"byteLength":816,
			"byteOffset":0,
			"target":34962
		},
		{
			"buffer":0,
			"byteLength":816,
			"byteOffset":816,
			"target":34962
		},
		{
			"buffer":0,
			"byteLength":544,
			"byteOffset":1632,
			"target":34962
		},
		{
			"buffer":0,
			"byteLength":216,
			"byteOffset":2176,
			"target":34963
		},
		{
			"buffer":0,
			"byteLength":816,
			"byteOffset":2392,
			"target":34962
		},
		{
			"buffer":0,
			"byteLength":816,
			"byteOffset":3208,
			"target":34962
		},
		{
			"buffer":0,
			"byteLength":544,
			"byteOffset":4024,
			"target":34962
		}
	],
	"samplers":[
		{
			"magFilter":9729,
			"minFilter":9987
		}
	],
	"buffers":[
		{
			"byteLength":4568,
			"uri":"Model5.bin"
		}
	]
}
