{
	"asset":{
		"generator":"Khronos glTF Blender I/O v4.3.47",
		"version":"2.0"
	},
	"scene":0,
	"scenes":[
		{
			"name":"Scene",
			"nodes":[
				9
			]
		}
	],
	"nodes":[
		{
			"name":"Bone.001",
			"rotation":[
				-1.4249833265610515e-15,
				3.774895063202166e-08,
				3.774895063202166e-08,
				1
			],
			"translation":[
				0,
				1,
				0
			]
		},
		{
			"children":[
				0
			],
			"name":"Bone"
		},
		{
			"name":"Bone.003",
			"rotation":[
				-4.517485558693363e-22,
				-7.105427357601002e-15,
				7.105427357601002e-15,
				1
			],
			"translation":[
				-7.105427357601002e-15,
				1,
				-2.2585685988588088e-22
			]
		},
		{
			"children":[
				2
			],
			"name":"Bone.002",
			"rotation":[
				1,
				3.774895418473534e-08,
				3.774895418473534e-08,
				0
			],
			"translation":[
				2.264936966867026e-07,
				-2,
				0
			]
		},
		{
			"name":"Bone.006",
			"translation":[
				-1.1657341758564144e-15,
				0.9999998807907104,
				5.700301342059788e-15
			]
		},
		{
			"children":[
				4
			],
			"name":"Bone.004",
			"rotation":[
				-0.7071067690849304,
				0,
				0,
				0.7071067690849304
			],
			"translation":[
				1.515783196737175e-07,
				-1.0077159404754639,
				-1.6756144762039185
			]
		},
		{
			"name":"Bone.007",
			"translation":[
				1.1657341758564144e-15,
				1,
				5.700301342059788e-15
			]
		},
		{
			"children":[
				6
			],
			"name":"Bone.005",
			"rotation":[
				0,
				0.7071067690849304,
				0.7071067690849304,
				0
			],
			"translation":[
				1.515783196737175e-07,
				-1.0077159404754639,
				1.6553878784179688
			]
		},
		{
			"mesh":0,
			"name":"Plane",
			"skin":0
		},
		{
			"children":[
				8,
				1,
				3,
				5,
				7
			],
			"name":"Armature",
			"rotation":[
				0,
				0,
				0.7071068286895752,
				0.7071068286895752
			],
			"translation":[
				-1,
				0,
				0
			]
		}
	],
	"animations":[
		{
			"channels":[
				{
					"sampler":0,
					"target":{
						"node":1,
						"path":"translation"
					}
				},
				{
					"sampler":1,
					"target":{
						"node":1,
						"path":"rotation"
					}
				},
				{
					"sampler":2,
					"target":{
						"node":1,
						"path":"scale"
					}
				},
				{
					"sampler":3,
					"target":{
						"node":0,
						"path":"translation"
					}
				},
				{
					"sampler":4,
					"target":{
						"node":0,
						"path":"rotation"
					}
				},
				{
					"sampler":5,
					"target":{
						"node":0,
						"path":"scale"
					}
				},
				{
					"sampler":6,
					"target":{
						"node":3,
						"path":"translation"
					}
				},
				{
					"sampler":7,
					"target":{
						"node":3,
						"path":"rotation"
					}
				},
				{
					"sampler":8,
					"target":{
						"node":3,
						"path":"scale"
					}
				},
				{
					"sampler":9,
					"target":{
						"node":2,
						"path":"translation"
					}
				},
				{
					"sampler":10,
					"target":{
						"node":2,
						"path":"rotation"
					}
				},
				{
					"sampler":11,
					"target":{
						"node":2,
						"path":"scale"
					}
				},
				{
					"sampler":12,
					"target":{
						"node":5,
						"path":"translation"
					}
				},
				{
					"sampler":13,
					"target":{
						"node":5,
						"path":"rotation"
					}
				},
				{
					"sampler":14,
					"target":{
						"node":5,
						"path":"scale"
					}
				},
				{
					"sampler":15,
					"target":{
						"node":4,
						"path":"translation"
					}
				},
				{
					"sampler":16,
					"target":{
						"node":4,
						"path":"rotation"
					}
				},
				{
					"sampler":17,
					"target":{
						"node":4,
						"path":"scale"
					}
				},
				{
					"sampler":18,
					"target":{
						"node":7,
						"path":"translation"
					}
				},
				{
					"sampler":19,
					"target":{
						"node":7,
						"path":"rotation"
					}
				},
				{
					"sampler":20,
					"target":{
						"node":7,
						"path":"scale"
					}
				},
				{
					"sampler":21,
					"target":{
						"node":6,
						"path":"translation"
					}
				},
				{
					"sampler":22,
					"target":{
						"node":6,
						"path":"rotation"
					}
				},
				{
					"sampler":23,
					"target":{
						"node":6,
						"path":"scale"
					}
				}
			],
			"name":"ArmatureAction.001",
			"samplers":[
				{
					"input":36,
					"interpolation":"STEP",
					"output":37
				},
				{
					"input":38,
					"interpolation":"LINEAR",
					"output":39
				},
				{
					"input":36,
					"interpolation":"STEP",
					"output":40
				},
				{
					"input":36,
					"interpolation":"STEP",
					"output":41
				},
				{
					"input":38,
					"interpolation":"LINEAR",
					"output":42
				},
				{
					"input":36,
					"interpolation":"STEP",
					"output":43
				},
				{
					"input":36,
					"interpolation":"STEP",
					"output":44
				},
				{
					"input":38,
					"interpolation":"LINEAR",
					"output":45
				},
				{
					"input":36,
					"interpolation":"STEP",
					"output":46
				},
				{
					"input":36,
					"interpolation":"STEP",
					"output":47
				},
				{
					"input":38,
					"interpolation":"LINEAR",
					"output":48
				},
				{
					"input":36,
					"interpolation":"STEP",
					"output":49
				},
				{
					"input":36,
					"interpolation":"STEP",
					"output":50
				},
				{
					"input":38,
					"interpolation":"LINEAR",
					"output":51
				},
				{
					"input":36,
					"interpolation":"STEP",
					"output":52
				},
				{
					"input":36,
					"interpolation":"STEP",
					"output":53
				},
				{
					"input":38,
					"interpolation":"LINEAR",
					"output":54
				},
				{
					"input":36,
					"interpolation":"STEP",
					"output":55
				},
				{
					"input":36,
					"interpolation":"STEP",
					"output":56
				},
				{
					"input":38,
					"interpolation":"LINEAR",
					"output":57
				},
				{
					"input":36,
					"interpolation":"STEP",
					"output":58
				},
				{
					"input":36,
					"interpolation":"STEP",
					"output":59
				},
				{
					"input":38,
					"interpolation":"LINEAR",
					"output":60
				},
				{
					"input":36,
					"interpolation":"STEP",
					"output":61
				}
			]
		}
	],
	"materials":[
		{
			"doubleSided":true,
			"name":"Top",
			"pbrMetallicRoughness":{
				"baseColorTexture":{
					"index":0
				},
				"metallicFactor":0,
				"roughnessFactor":0.9516128897666931
			}
		},
		{
			"doubleSided":true,
			"name":"Bottom",
			"pbrMetallicRoughness":{
				"baseColorTexture":{
					"index":1
				},
				"metallicFactor":0,
				"roughnessFactor":0.9301075339317322
			}
		},
		{
			"doubleSided":true,
			"name":"Front",
			"pbrMetallicRoughness":{
				"baseColorTexture":{
					"index":2
				},
				"metallicFactor":0,
				"roughnessFactor":0.9623656272888184
			}
		},
		{
			"doubleSided":true,
			"name":"Back",
			"pbrMetallicRoughness":{
				"baseColorTexture":{
					"index":3
				},
				"metallicFactor":0,
				"roughnessFactor":0.9623656272888184
			}
		},
		{
			"doubleSided":true,
			"name":"Left",
			"pbrMetallicRoughness":{
				"baseColorTexture":{
					"index":4
				},
				"metallicFactor":0,
				"roughnessFactor":0.9731183052062988
			}
		},
		{
			"doubleSided":true,
			"name":"Right",
			"pbrMetallicRoughness":{
				"baseColorTexture":{
					"index":5
				},
				"metallicFactor":0,
				"roughnessFactor":0.9516128897666931
			}
		}
	],
	"meshes":[
		{
			"name":"Plane",
			"primitives":[
				{
					"attributes":{
						"POSITION":0,
						"NORMAL":1,
						"TEXCOORD_0":2,
						"JOINTS_0":3,
						"WEIGHTS_0":4
					},
					"indices":5,
					"material":0
				},
				{
					"attributes":{
						"POSITION":6,
						"NORMAL":7,
						"TEXCOORD_0":8,
						"JOINTS_0":9,
						"WEIGHTS_0":10
					},
					"indices":11,
					"material":1
				},
				{
					"attributes":{
						"POSITION":12,
						"NORMAL":13,
						"TEXCOORD_0":14,
						"JOINTS_0":15,
						"WEIGHTS_0":16
					},
					"indices":17,
					"material":2
				},
				{
					"attributes":{
						"POSITION":18,
						"NORMAL":19,
						"TEXCOORD_0":20,
						"JOINTS_0":21,
						"WEIGHTS_0":22
					},
					"indices":23,
					"material":3
				},
				{
					"attributes":{
						"POSITION":24,
						"NORMAL":25,
						"TEXCOORD_0":26,
						"JOINTS_0":27,
						"WEIGHTS_0":28
					},
					"indices":11,
					"material":4
				},
				{
					"attributes":{
						"POSITION":29,
						"NORMAL":30,
						"TEXCOORD_0":31,
						"JOINTS_0":32,
						"WEIGHTS_0":33
					},
					"indices":34,
					"material":5
				}
			]
		}
	],
	"textures":[
		{
			"sampler":0,
			"source":0
		},
		{
			"sampler":0,
			"source":0
		},
		{
			"sampler":0,
			"source":0
		},
		{
			"sampler":0,
			"source":0
		},
		{
			"sampler":0,
			"source":0
		},
		{
			"sampler":0,
			"source":0
		}
	],
	"images":[
		{
			"mimeType":"image/jpeg",
			"name":"model9",
			"uri":"model9.jpg"
		}
	],
	"skins":[
		{
			"inverseBindMatrices":35,
			"joints":[
				1,
				0,
				3,
				2,
				5,
				4,
				7,
				6
			],
			"name":"Armature"
		}
	],
	"accessors":[
		{
			"bufferView":0,
			"componentType":5126,
			"count":92,
			"max":[
				3,
				0,
				3.6661548614501953
			],
			"min":[
				-3,
				-0.029999999329447746,
				-3.6661548614501953
			],
			"type":"VEC3"
		},
		{
			"bufferView":1,
			"componentType":5126,
			"count":92,
			"type":"VEC3"
		},
		{
			"bufferView":2,
			"componentType":5126,
			"count":92,
			"type":"VEC2"
		},
		{
			"bufferView":3,
			"componentType":5121,
			"count":92,
			"type":"VEC4"
		},
		{
			"bufferView":4,
			"componentType":5126,
			"count":92,
			"type":"VEC4"
		},
		{
			"bufferView":5,
			"componentType":5123,
			"count":186,
			"type":"SCALAR"
		},
		{
			"bufferView":6,
			"componentType":5126,
			"count":4,
			"max":[
				1,
				-0.029999999329447746,
				1.6661546230316162
			],
			"min":[
				-1,
				-0.029999999329447746,
				-1.6661546230316162
			],
			"type":"VEC3"
		},
		{
			"bufferView":7,
			"componentType":5126,
			"count":4,
			"type":"VEC3"
		},
		{
			"bufferView":8,
			"componentType":5126,
			"count":4,
			"type":"VEC2"
		},
		{
			"bufferView":9,
			"componentType":5121,
			"count":4,
			"type":"VEC4"
		},
		{
			"bufferView":10,
			"componentType":5126,
			"count":4,
			"type":"VEC4"
		},
		{
			"bufferView":11,
			"componentType":5123,
			"count":6,
			"type":"SCALAR"
		},
		{
			"bufferView":12,
			"componentType":5126,
			"count":6,
			"max":[
				1,
				-0.029999999329447746,
				-1.6661546230316162
			],
			"min":[
				-1,
				-0.029999999329447746,
				-3.6661548614501953
			],
			"type":"VEC3"
		},
		{
			"bufferView":13,
			"componentType":5126,
			"count":6,
			"type":"VEC3"
		},
		{
			"bufferView":14,
			"componentType":5126,
			"count":6,
			"type":"VEC2"
		},
		{
			"bufferView":15,
			"componentType":5121,
			"count":6,
			"type":"VEC4"
		},
		{
			"bufferView":16,
			"componentType":5126,
			"count":6,
			"type":"VEC4"
		},
		{
			"bufferView":17,
			"componentType":5123,
			"count":12,
			"type":"SCALAR"
		},
		{
			"bufferView":18,
			"componentType":5126,
			"count":6,
			"max":[
				1,
				-0.029999999329447746,
				3.6661548614501953
			],
			"min":[
				-1,
				-0.029999999329447746,
				1.6661546230316162
			],
			"type":"VEC3"
		},
		{
			"bufferView":19,
			"componentType":5126,
			"count":6,
			"type":"VEC3"
		},
		{
			"bufferView":20,
			"componentType":5126,
			"count":6,
			"type":"VEC2"
		},
		{
			"bufferView":21,
			"componentType":5121,
			"count":6,
			"type":"VEC4"
		},
		{
			"bufferView":22,
			"componentType":5126,
			"count":6,
			"type":"VEC4"
		},
		{
			"bufferView":23,
			"componentType":5123,
			"count":12,
			"type":"SCALAR"
		},
		{
			"bufferView":24,
			"componentType":5126,
			"count":4,
			"max":[
				-1,
				-0.029999999329447746,
				1.6661546230316162
			],
			"min":[
				-2,
				-0.029999999329447746,
				-1.6661546230316162
			],
			"type":"VEC3"
		},
		{
			"bufferView":25,
			"componentType":5126,
			"count":4,
			"type":"VEC3"
		},
		{
			"bufferView":26,
			"componentType":5126,
			"count":4,
			"type":"VEC2"
		},
		{
			"bufferView":27,
			"componentType":5121,
			"count":4,
			"type":"VEC4"
		},
		{
			"bufferView":28,
			"componentType":5126,
			"count":4,
			"type":"VEC4"
		},
		{
			"bufferView":29,
			"componentType":5126,
			"count":4,
			"max":[
				2,
				-0.029999999329447746,
				1.6661546230316162
			],
			"min":[
				1,
				-0.029999999329447746,
				-1.6661546230316162
			],
			"type":"VEC3"
		},
		{
			"bufferView":30,
			"componentType":5126,
			"count":4,
			"type":"VEC3"
		},
		{
			"bufferView":31,
			"componentType":5126,
			"count":4,
			"type":"VEC2"
		},
		{
			"bufferView":32,
			"componentType":5121,
			"count":4,
			"type":"VEC4"
		},
		{
			"bufferView":33,
			"componentType":5126,
			"count":4,
			"type":"VEC4"
		},
		{
			"bufferView":34,
			"componentType":5123,
			"count":6,
			"type":"SCALAR"
		},
		{
			"bufferView":35,
			"componentType":5126,
			"count":8,
			"type":"MAT4"
		},
		{
			"bufferView":36,
			"componentType":5126,
			"count":2,
			"max":[
				1.375
			],
			"min":[
				0
			],
			"type":"SCALAR"
		},
		{
			"bufferView":37,
			"componentType":5126,
			"count":2,
			"type":"VEC3"
		},
		{
			"bufferView":38,
			"componentType":5126,
			"count":34,
			"max":[
				1.375
			],
			"min":[
				0
			],
			"type":"SCALAR"
		},
		{
			"bufferView":39,
			"componentType":5126,
			"count":34,
			"type":"VEC4"
		},
		{
			"bufferView":40,
			"componentType":5126,
			"count":2,
			"type":"VEC3"
		},
		{
			"bufferView":41,
			"componentType":5126,
			"count":2,
			"type":"VEC3"
		},
		{
			"bufferView":42,
			"componentType":5126,
			"count":34,
			"type":"VEC4"
		},
		{
			"bufferView":43,
			"componentType":5126,
			"count":2,
			"type":"VEC3"
		},
		{
			"bufferView":44,
			"componentType":5126,
			"count":2,
			"type":"VEC3"
		},
		{
			"bufferView":45,
			"componentType":5126,
			"count":34,
			"type":"VEC4"
		},
		{
			"bufferView":46,
			"componentType":5126,
			"count":2,
			"type":"VEC3"
		},
		{
			"bufferView":47,
			"componentType":5126,
			"count":2,
			"type":"VEC3"
		},
		{
			"bufferView":48,
			"componentType":5126,
			"count":34,
			"type":"VEC4"
		},
		{
			"bufferView":49,
			"componentType":5126,
			"count":2,
			"type":"VEC3"
		},
		{
			"bufferView":50,
			"componentType":5126,
			"count":2,
			"type":"VEC3"
		},
		{
			"bufferView":51,
			"componentType":5126,
			"count":34,
			"type":"VEC4"
		},
		{
			"bufferView":52,
			"componentType":5126,
			"count":2,
			"type":"VEC3"
		},
		{
			"bufferView":53,
			"componentType":5126,
			"count":2,
			"type":"VEC3"
		},
		{
			"bufferView":54,
			"componentType":5126,
			"count":34,
			"type":"VEC4"
		},
		{
			"bufferView":55,
			"componentType":5126,
			"count":2,
			"type":"VEC3"
		},
		{
			"bufferView":56,
			"componentType":5126,
			"count":2,
			"type":"VEC3"
		},
		{
			"bufferView":57,
			"componentType":5126,
			"count":34,
			"type":"VEC4"
		},
		{
			"bufferView":58,
			"componentType":5126,
			"count":2,
			"type":"VEC3"
		},
		{
			"bufferView":59,
			"componentType":5126,
			"count":2,
			"type":"VEC3"
		},
		{
			"bufferView":60,
			"componentType":5126,
			"count":34,
			"type":"VEC4"
		},
		{
			"bufferView":61,
			"componentType":5126,
			"count":2,
			"type":"VEC3"
		}
	],
	"bufferViews":[
		{
			"buffer":0,
			"byteLength":1104,
			"byteOffset":0,
			"target":34962
		},
		{
			"buffer":0,
			"byteLength":1104,
			"byteOffset":1104,
			"target":34962
		},
		{
			"buffer":0,
			"byteLength":736,
			"byteOffset":2208,
			"target":34962
		},
		{
			"buffer":0,
			"byteLength":368,
			"byteOffset":2944,
			"target":34962
		},
		{
			"buffer":0,
			"byteLength":1472,
			"byteOffset":3312,
			"target":34962
		},
		{
			"buffer":0,
			"byteLength":372,
			"byteOffset":4784,
			"target":34963
		},
		{
			"buffer":0,
			"byteLength":48,
			"byteOffset":5156,
			"target":34962
		},
		{
			"buffer":0,
			"byteLength":48,
			"byteOffset":5204,
			"target":34962
		},
		{
			"buffer":0,
			"byteLength":32,
			"byteOffset":5252,
			"target":34962
		},
		{
			"buffer":0,
			"byteLength":16,
			"byteOffset":5284,
			"target":34962
		},
		{
			"buffer":0,
			"byteLength":64,
			"byteOffset":5300,
			"target":34962
		},
		{
			"buffer":0,
			"byteLength":12,
			"byteOffset":5364,
			"target":34963
		},
		{
			"buffer":0,
			"byteLength":72,
			"byteOffset":5376,
			"target":34962
		},
		{
			"buffer":0,
			"byteLength":72,
			"byteOffset":5448,
			"target":34962
		},
		{
			"buffer":0,
			"byteLength":48,
			"byteOffset":5520,
			"target":34962
		},
		{
			"buffer":0,
			"byteLength":24,
			"byteOffset":5568,
			"target":34962
		},
		{
			"buffer":0,
			"byteLength":96,
			"byteOffset":5592,
			"target":34962
		},
		{
			"buffer":0,
			"byteLength":24,
			"byteOffset":5688,
			"target":34963
		},
		{
			"buffer":0,
			"byteLength":72,
			"byteOffset":5712,
			"target":34962
		},
		{
			"buffer":0,
			"byteLength":72,
			"byteOffset":5784,
			"target":34962
		},
		{
			"buffer":0,
			"byteLength":48,
			"byteOffset":5856,
			"target":34962
		},
		{
			"buffer":0,
			"byteLength":24,
			"byteOffset":5904,
			"target":34962
		},
		{
			"buffer":0,
			"byteLength":96,
			"byteOffset":5928,
			"target":34962
		},
		{
			"buffer":0,
			"byteLength":24,
			"byteOffset":6024,
			"target":34963
		},
		{
			"buffer":0,
			"byteLength":48,
			"byteOffset":6048,
			"target":34962
		},
		{
			"buffer":0,
			"byteLength":48,
			"byteOffset":6096,
			"target":34962
		},
		{
			"buffer":0,
			"byteLength":32,
			"byteOffset":6144,
			"target":34962
		},
		{
			"buffer":0,
			"byteLength":16,
			"byteOffset":6176,
			"target":34962
		},
		{
			"buffer":0,
			"byteLength":64,
			"byteOffset":6192,
			"target":34962
		},
		{
			"buffer":0,
			"byteLength":48,
			"byteOffset":6256,
			"target":34962
		},
		{
			"buffer":0,
			"byteLength":48,
			"byteOffset":6304,
			"target":34962
		},
		{
			"buffer":0,
			"byteLength":32,
			"byteOffset":6352,
			"target":34962
		},
		{
			"buffer":0,
			"byteLength":16,
			"byteOffset":6384,
			"target":34962
		},
		{
			"buffer":0,
			"byteLength":64,
			"byteOffset":6400,
			"target":34962
		},
		{
			"buffer":0,
			"byteLength":12,
			"byteOffset":6464,
			"target":34963
		},
		{
			"buffer":0,
			"byteLength":512,
			"byteOffset":6476
		},
		{
			"buffer":0,
			"byteLength":8,
			"byteOffset":6988
		},
		{
			"buffer":0,
			"byteLength":24,
			"byteOffset":6996
		},
		{
			"buffer":0,
			"byteLength":136,
			"byteOffset":7020
		},
		{
			"buffer":0,
			"byteLength":544,
			"byteOffset":7156
		},
		{
			"buffer":0,
			"byteLength":24,
			"byteOffset":7700
		},
		{
			"buffer":0,
			"byteLength":24,
			"byteOffset":7724
		},
		{
			"buffer":0,
			"byteLength":544,
			"byteOffset":7748
		},
		{
			"buffer":0,
			"byteLength":24,
			"byteOffset":8292
		},
		{
			"buffer":0,
			"byteLength":24,
			"byteOffset":8316
		},
		{
			"buffer":0,
			"byteLength":544,
			"byteOffset":8340
		},
		{
			"buffer":0,
			"byteLength":24,
			"byteOffset":8884
		},
		{
			"buffer":0,
			"byteLength":24,
			"byteOffset":8908
		},
		{
			"buffer":0,
			"byteLength":544,
			"byteOffset":8932
		},
		{
			"buffer":0,
			"byteLength":24,
			"byteOffset":9476
		},
		{
			"buffer":0,
			"byteLength":24,
			"byteOffset":9500
		},
		{
			"buffer":0,
			"byteLength":544,
			"byteOffset":9524
		},
		{
			"buffer":0,
			"byteLength":24,
			"byteOffset":10068
		},
		{
			"buffer":0,
			"byteLength":24,
			"byteOffset":10092
		},
		{
			"buffer":0,
			"byteLength":544,
			"byteOffset":10116
		},
		{
			"buffer":0,
			"byteLength":24,
			"byteOffset":10660
		},
		{
			"buffer":0,
			"byteLength":24,
			"byteOffset":10684
		},
		{
			"buffer":0,
			"byteLength":544,
			"byteOffset":10708
		},
		{
			"buffer":0,
			"byteLength":24,
			"byteOffset":11252
		},
		{
			"buffer":0,
			"byteLength":24,
			"byteOffset":11276
		},
		{
			"buffer":0,
			"byteLength":544,
			"byteOffset":11300
		},
		{
			"buffer":0,
			"byteLength":24,
			"byteOffset":11844
		}
	],
	"samplers":[
		{
			"magFilter":9729,
			"minFilter":9987
		}
	],
	"buffers":[
		{
			"byteLength":11868,
			"uri":"Model9Second.bin"
		}
	]
}
