{
	"asset":{
		"generator":"Khronos glTF Blender I/O v4.3.47",
		"version":"2.0"
	},
	"scene":0,
	"scenes":[
		{
			"name":"Scene",
			"nodes":[
				0,
				1
			]
		}
	],
	"nodes":[
		{
			"mesh":0,
			"name":"Cylinder",
			"scale":[
				2.691084146499634,
				2.691084146499634,
				2.691084146499634
			]
		},
		{
			"mesh":1,
			"name":"Cylinder.001",
			"scale":[
				3.022698163986206,
				0.6517347693443298,
				3.022698163986206
			],
			"translation":[
				0,
				3.298569679260254,
				0
			]
		}
	],
	"animations":[
		{
			"channels":[
				{
					"sampler":0,
					"target":{
						"node":1,
						"path":"translation"
					}
				},
				{
					"sampler":1,
					"target":{
						"node":1,
						"path":"rotation"
					}
				}
			],
			"name":"Cylinder.001Action",
			"samplers":[
				{
					"input":12,
					"interpolation":"LINEAR",
					"output":13
				},
				{
					"input":12,
					"interpolation":"LINEAR",
					"output":14
				}
			]
		}
	],
	"materials":[
		{
			"doubleSided":true,
			"name":"Bottom",
			"pbrMetallicRoughness":{
				"baseColorFactor":[
					0.5783880949020386,
					0.5783880949020386,
					0.5783880949020386,
					1
				],
				"metallicFactor":0,
				"roughnessFactor":0.9408602118492126
			}
		},
		{
			"doubleSided":true,
			"name":"Top",
			"pbrMetallicRoughness":{
				"baseColorFactor":[
					0.5576812028884888,
					0.5576812028884888,
					0.5576812028884888,
					1
				],
				"metallicFactor":0,
				"roughnessFactor":0.9301074743270874
			}
		},
		{
			"doubleSided":true,
			"name":"Front",
			"pbrMetallicRoughness":{
				"baseColorFactor":[
					0.5374140739440918,
					0.5374140739440918,
					0.5374140739440918,
					1
				],
				"metallicFactor":0,
				"roughnessFactor":0.9193547964096069
			}
		}
	],
	"meshes":[
		{
			"name":"Cylinder",
			"primitives":[
				{
					"attributes":{
						"POSITION":0,
						"NORMAL":1,
						"TEXCOORD_0":2
					},
					"indices":3,
					"material":0
				}
			]
		},
		{
			"name":"Cylinder.001",
			"primitives":[
				{
					"attributes":{
						"POSITION":4,
						"NORMAL":5,
						"TEXCOORD_0":6
					},
					"indices":7,
					"material":1
				},
				{
					"attributes":{
						"POSITION":8,
						"NORMAL":9,
						"TEXCOORD_0":10
					},
					"indices":11,
					"material":2
				}
			]
		}
	],
	"accessors":[
		{
			"bufferView":0,
			"componentType":5126,
			"count":428,
			"max":[
				1,
				1,
				1
			],
			"min":[
				-1,
				-1,
				-1
			],
			"type":"VEC3"
		},
		{
			"bufferView":1,
			"componentType":5126,
			"count":428,
			"type":"VEC3"
		},
		{
			"bufferView":2,
			"componentType":5126,
			"count":428,
			"type":"VEC2"
		},
		{
			"bufferView":3,
			"componentType":5123,
			"count":1524,
			"type":"SCALAR"
		},
		{
			"bufferView":4,
			"componentType":5126,
			"count":644,
			"max":[
				1,
				1,
				1
			],
			"min":[
				-1,
				-1,
				-1
			],
			"type":"VEC3"
		},
		{
			"bufferView":5,
			"componentType":5126,
			"count":644,
			"type":"VEC3"
		},
		{
			"bufferView":6,
			"componentType":5126,
			"count":644,
			"type":"VEC2"
		},
		{
			"bufferView":7,
			"componentType":5123,
			"count":2202,
			"type":"SCALAR"
		},
		{
			"bufferView":8,
			"componentType":5126,
			"count":32,
			"max":[
				0.9579328894615173,
				1,
				0.9579328894615173
			],
			"min":[
				-0.9579328894615173,
				1,
				-0.9579328894615173
			],
			"type":"VEC3"
		},
		{
			"bufferView":9,
			"componentType":5126,
			"count":32,
			"type":"VEC3"
		},
		{
			"bufferView":10,
			"componentType":5126,
			"count":32,
			"type":"VEC2"
		},
		{
			"bufferView":11,
			"componentType":5123,
			"count":90,
			"type":"SCALAR"
		},
		{
			"bufferView":12,
			"componentType":5126,
			"count":25,
			"max":[
				1.0416666666666667
			],
			"min":[
				0.041666666666666664
			],
			"type":"SCALAR"
		},
		{
			"bufferView":13,
			"componentType":5126,
			"count":25,
			"type":"VEC3"
		},
		{
			"bufferView":14,
			"componentType":5126,
			"count":25,
			"type":"VEC4"
		}
	],
	"bufferViews":[
		{
			"buffer":0,
			"byteLength":5136,
			"byteOffset":0,
			"target":34962
		},
		{
			"buffer":0,
			"byteLength":5136,
			"byteOffset":5136,
			"target":34962
		},
		{
			"buffer":0,
			"byteLength":3424,
			"byteOffset":10272,
			"target":34962
		},
		{
			"buffer":0,
			"byteLength":3048,
			"byteOffset":13696,
			"target":34963
		},
		{
			"buffer":0,
			"byteLength":7728,
			"byteOffset":16744,
			"target":34962
		},
		{
			"buffer":0,
			"byteLength":7728,
			"byteOffset":24472,
			"target":34962
		},
		{
			"buffer":0,
			"byteLength":5152,
			"byteOffset":32200,
			"target":34962
		},
		{
			"buffer":0,
			"byteLength":4404,
			"byteOffset":37352,
			"target":34963
		},
		{
			"buffer":0,
			"byteLength":384,
			"byteOffset":41756,
			"target":34962
		},
		{
			"buffer":0,
			"byteLength":384,
			"byteOffset":42140,
			"target":34962
		},
		{
			"buffer":0,
			"byteLength":256,
			"byteOffset":42524,
			"target":34962
		},
		{
			"buffer":0,
			"byteLength":180,
			"byteOffset":42780,
			"target":34963
		},
		{
			"buffer":0,
			"byteLength":100,
			"byteOffset":42960
		},
		{
			"buffer":0,
			"byteLength":300,
			"byteOffset":43060
		},
		{
			"buffer":0,
			"byteLength":400,
			"byteOffset":43360
		}
	],
	"buffers":[
		{
			"byteLength":43760,
			"uri":"Model13.bin"
		}
	]
}
