{
	"asset":{
		"generator":"Khronos glTF Blender I/O v4.3.47",
		"version":"2.0"
	},
	"scene":0,
	"scenes":[
		{
			"name":"Scene",
			"nodes":[
				0,
				1
			]
		}
	],
	"nodes":[
		{
			"mesh":0,
			"name":"Cylinder",
			"scale":[
				1,
				0.3084557056427002,
				1
			]
		},
		{
			"mesh":1,
			"name":"Cylinder.001",
			"scale":[
				1.040433406829834,
				0.1565437912940979,
				1.040433406829834
			],
			"translation":[
				0,
				0.20889198780059814,
				0
			]
		}
	],
	"animations":[
		{
			"channels":[
				{
					"sampler":0,
					"target":{
						"node":1,
						"path":"translation"
					}
				},
				{
					"sampler":1,
					"target":{
						"node":1,
						"path":"rotation"
					}
				}
			],
			"name":"Cylinder.001Action",
			"samplers":[
				{
					"input":8,
					"interpolation":"LINEAR",
					"output":9
				},
				{
					"input":8,
					"interpolation":"LINEAR",
					"output":10
				}
			]
		}
	],
	"meshes":[
		{
			"name":"Cylinder",
			"primitives":[
				{
					"attributes":{
						"POSITION":0,
						"NORMAL":1,
						"TEXCOORD_0":2
					},
					"indices":3
				}
			]
		},
		{
			"name":"Cylinder.001",
			"primitives":[
				{
					"attributes":{
						"POSITION":4,
						"NORMAL":5,
						"TEXCOORD_0":6
					},
					"indices":7
				}
			]
		}
	],
	"accessors":[
		{
			"bufferView":0,
			"componentType":5126,
			"count":30,
			"max":[
				0.8660253882408142,
				1,
				1
			],
			"min":[
				-0.8660253882408142,
				-1,
				-1
			],
			"type":"VEC3"
		},
		{
			"bufferView":1,
			"componentType":5126,
			"count":30,
			"type":"VEC3"
		},
		{
			"bufferView":2,
			"componentType":5126,
			"count":30,
			"type":"VEC2"
		},
		{
			"bufferView":3,
			"componentType":5123,
			"count":48,
			"type":"SCALAR"
		},
		{
			"bufferView":4,
			"componentType":5126,
			"count":30,
			"max":[
				0.8660253882408142,
				1,
				1
			],
			"min":[
				-0.8660253882408142,
				-1,
				-1
			],
			"type":"VEC3"
		},
		{
			"bufferView":5,
			"componentType":5126,
			"count":30,
			"type":"VEC3"
		},
		{
			"bufferView":6,
			"componentType":5126,
			"count":30,
			"type":"VEC2"
		},
		{
			"bufferView":7,
			"componentType":5123,
			"count":48,
			"type":"SCALAR"
		},
		{
			"bufferView":8,
			"componentType":5126,
			"count":25,
			"max":[
				1.0416666666666667
			],
			"min":[
				0.041666666666666664
			],
			"type":"SCALAR"
		},
		{
			"bufferView":9,
			"componentType":5126,
			"count":25,
			"type":"VEC3"
		},
		{
			"bufferView":10,
			"componentType":5126,
			"count":25,
			"type":"VEC4"
		}
	],
	"bufferViews":[
		{
			"buffer":0,
			"byteLength":360,
			"byteOffset":0,
			"target":34962
		},
		{
			"buffer":0,
			"byteLength":360,
			"byteOffset":360,
			"target":34962
		},
		{
			"buffer":0,
			"byteLength":240,
			"byteOffset":720,
			"target":34962
		},
		{
			"buffer":0,
			"byteLength":96,
			"byteOffset":960,
			"target":34963
		},
		{
			"buffer":0,
			"byteLength":360,
			"byteOffset":1056,
			"target":34962
		},
		{
			"buffer":0,
			"byteLength":360,
			"byteOffset":1416,
			"target":34962
		},
		{
			"buffer":0,
			"byteLength":240,
			"byteOffset":1776,
			"target":34962
		},
		{
			"buffer":0,
			"byteLength":96,
			"byteOffset":2016,
			"target":34963
		},
		{
			"buffer":0,
			"byteLength":100,
			"byteOffset":2112
		},
		{
			"buffer":0,
			"byteLength":300,
			"byteOffset":2212
		},
		{
			"buffer":0,
			"byteLength":400,
			"byteOffset":2512
		}
	],
	"buffers":[
		{
			"byteLength":2912,
			"uri":"Model17.bin"
		}
	]
}
