{
	"asset":{
		"generator":"Khronos glTF Blender I/O v4.3.47",
		"version":"2.0"
	},
	"scene":0,
	"scenes":[
		{
			"name":"Scene",
			"nodes":[
				0,
				1,
				2
			]
		}
	],
	"nodes":[
		{
			"name":"Empty",
			"rotation":[
				0.006385311018675566,
				0.709291934967041,
				-0.015221922658383846,
				0.7047216296195984
			],
			"scale":[
				1.202473759651184,
				1.0342676639556885,
				1.0086071491241455
			],
			"translation":[
				-0.4339224696159363,
				0.09948849678039551,
				0.048797011375427246
			]
		},
		{
			"mesh":0,
			"name":"Cylinder",
			"rotation":[
				0,
				0,
				-1,
				7.549790126404332e-08
			],
			"scale":[
				0.7450499534606934,
				0.7450499534606934,
				0.7450499534606934
			],
			"translation":[
				-0.04348078370094299,
				0,
				-0.05097381770610809
			]
		},
		{
			"mesh":1,
			"name":"Cylinder.001",
			"scale":[
				0.4764356017112732,
				0.3176370859146118,
				0.4764356017112732
			],
			"translation":[
				-0.047907281666994095,
				2.8377199172973633,
				-0.04302627965807915
			]
		}
	],
	"materials":[
		{
			"alphaMode":"BLEND",
			"doubleSided":true,
			"name":"Bottom",
			"pbrMetallicRoughness":{
				"baseColorFactor":[
					0,
					0,
					0,
					0.6774193644523621
				],
				"metallicFactor":0,
				"roughnessFactor":0.5
			}
		},
		{
			"doubleSided":true,
			"name":"Top",
			"pbrMetallicRoughness":{
				"baseColorFactor":[
					0.01345713809132576,
					0.01345713809132576,
					0.01345713809132576,
					1
				],
				"metallicFactor":0.8387096524238586,
				"roughnessFactor":0.5
			}
		}
	],
	"meshes":[
		{
			"name":"Cylinder.010",
			"primitives":[
				{
					"attributes":{
						"POSITION":0,
						"NORMAL":1,
						"TEXCOORD_0":2
					},
					"indices":3,
					"material":0
				}
			]
		},
		{
			"name":"Cylinder.011",
			"primitives":[
				{
					"attributes":{
						"POSITION":4,
						"NORMAL":5,
						"TEXCOORD_0":6
					},
					"indices":7,
					"material":1
				}
			]
		}
	],
	"accessors":[
		{
			"bufferView":0,
			"componentType":5126,
			"count":601,
			"max":[
				1.0490278005599976,
				2.1507632732391357,
				1.0490278005599976
			],
			"min":[
				-1.0490278005599976,
				-3.978705883026123,
				-1.0490278005599976
			],
			"type":"VEC3"
		},
		{
			"bufferView":1,
			"componentType":5126,
			"count":601,
			"type":"VEC3"
		},
		{
			"bufferView":2,
			"componentType":5126,
			"count":601,
			"type":"VEC2"
		},
		{
			"bufferView":3,
			"componentType":5123,
			"count":3303,
			"type":"SCALAR"
		},
		{
			"bufferView":4,
			"componentType":5126,
			"count":320,
			"max":[
				1.0918018817901611,
				1,
				1.0918017625808716
			],
			"min":[
				-1.0918018817901611,
				0.2010297179222107,
				-1.0918018817901611
			],
			"type":"VEC3"
		},
		{
			"bufferView":5,
			"componentType":5126,
			"count":320,
			"type":"VEC3"
		},
		{
			"bufferView":6,
			"componentType":5126,
			"count":320,
			"type":"VEC2"
		},
		{
			"bufferView":7,
			"componentType":5123,
			"count":1530,
			"type":"SCALAR"
		}
	],
	"bufferViews":[
		{
			"buffer":0,
			"byteLength":7212,
			"byteOffset":0,
			"target":34962
		},
		{
			"buffer":0,
			"byteLength":7212,
			"byteOffset":7212,
			"target":34962
		},
		{
			"buffer":0,
			"byteLength":4808,
			"byteOffset":14424,
			"target":34962
		},
		{
			"buffer":0,
			"byteLength":6606,
			"byteOffset":19232,
			"target":34963
		},
		{
			"buffer":0,
			"byteLength":3840,
			"byteOffset":25840,
			"target":34962
		},
		{
			"buffer":0,
			"byteLength":3840,
			"byteOffset":29680,
			"target":34962
		},
		{
			"buffer":0,
			"byteLength":2560,
			"byteOffset":33520,
			"target":34962
		},
		{
			"buffer":0,
			"byteLength":3060,
			"byteOffset":36080,
			"target":34963
		}
	],
	"buffers":[
		{
			"byteLength":39140,
			"uri":"Model24Forth.bin"
		}
	]
}
