{
	"asset":{
		"generator":"Khronos glTF Blender I/O v4.3.47",
		"version":"2.0"
	},
	"scene":0,
	"scenes":[
		{
			"name":"Scene",
			"nodes":[
				14
			]
		}
	],
	"nodes":[
		{
			"name":"Bone.009",
			"rotation":[
				-1.2434497875801753e-14,
				0,
				0,
				1
			],
			"translation":[
				0,
				2,
				1.4210854715202004e-14
			]
		},
		{
			"name":"Bone.005",
			"rotation":[
				-4.214684778958144e-08,
				-4.214684778958144e-08,
				-0.7071067690849304,
				0.7071067690849304
			],
			"translation":[
				1.0044773817062378,
				1.0410113334655762,
				-1.4210854715202004e-14
			]
		},
		{
			"name":"Bone.006",
			"rotation":[
				1.2644055402688537e-07,
				-1.2644055402688537e-07,
				0.7071067690849304,
				0.7071067690849304
			],
			"translation":[
				-0.9991588592529297,
				1.0096287727355957,
				0
			]
		},
		{
			"children":[
				0,
				1,
				2
			],
			"name":"Bone.002",
			"translation":[
				0,
				2,
				0
			]
		},
		{
			"name":"Bone.010",
			"rotation":[
				1.7763568394002505e-15,
				0,
				-2.117582368135751e-22,
				1
			],
			"scale":[
				1,
				0.9999999403953552,
				1
			],
			"translation":[
				-1.0658141036401503e-14,
				2,
				-3.552713678800501e-15
			]
		},
		{
			"children":[
				4
			],
			"name":"Bone.004",
			"rotation":[
				-4.214684778958144e-08,
				-4.214684778958144e-08,
				-0.7071067690849304,
				0.7071067690849304
			],
			"translation":[
				1,
				1,
				1.4210854715202004e-14
			]
		},
		{
			"children":[
				3,
				5
			],
			"name":"Bone.001",
			"rotation":[
				2.1855694143368964e-08,
				0,
				0,
				1
			],
			"translation":[
				0,
				2,
				-7.105427357601002e-15
			]
		},
		{
			"name":"Bone.007",
			"rotation":[
				1.4189485852966754e-07,
				-1.4189485852966754e-07,
				0.7071067690849304,
				0.7071067690849304
			],
			"translation":[
				-0.9991588592529297,
				1.0096287727355957,
				-4.3290498297210434e-08
			]
		},
		{
			"name":"Bone.008",
			"rotation":[
				-2.6692537957728746e-08,
				-2.6692537957728746e-08,
				-0.7071067690849304,
				0.7071067690849304
			],
			"translation":[
				1.0044773817062378,
				1.0410113334655762,
				-4.19187387024067e-08
			]
		},
		{
			"children":[
				6,
				7,
				8
			],
			"name":"Bone"
		},
		{
			"name":"Bone.011",
			"rotation":[
				2.1855692367012125e-08,
				-4.77671313351617e-16,
				2.127730034602094e-15,
				1
			],
			"translation":[
				4.6612646603877775e-17,
				2,
				3.5527130435257905e-15
			]
		},
		{
			"children":[
				10
			],
			"name":"Bone.003",
			"rotation":[
				-4.214684778958144e-08,
				1.1238230790411308e-08,
				0.7071067690849304,
				0.7071067690849304
			],
			"translation":[
				-1,
				-1,
				-4.371138828673793e-08
			]
		},
		{
			"name":"neutral_bone",
			"rotation":[
				-0.7071067690849304,
				0,
				0,
				0.7071067690849304
			]
		},
		{
			"mesh":0,
			"name":"Plane",
			"skin":0
		},
		{
			"children":[
				13,
				9,
				11,
				12
			],
			"name":"Armature",
			"rotation":[
				-0.7071068286895752,
				0,
				0,
				0.7071068286895752
			],
			"translation":[
				0,
				0,
				-1
			]
		}
	],
	"animations":[
		{
			"channels":[
				{
					"sampler":0,
					"target":{
						"node":9,
						"path":"translation"
					}
				},
				{
					"sampler":1,
					"target":{
						"node":9,
						"path":"rotation"
					}
				},
				{
					"sampler":2,
					"target":{
						"node":9,
						"path":"scale"
					}
				},
				{
					"sampler":3,
					"target":{
						"node":6,
						"path":"translation"
					}
				},
				{
					"sampler":4,
					"target":{
						"node":6,
						"path":"rotation"
					}
				},
				{
					"sampler":5,
					"target":{
						"node":6,
						"path":"scale"
					}
				},
				{
					"sampler":6,
					"target":{
						"node":3,
						"path":"translation"
					}
				},
				{
					"sampler":7,
					"target":{
						"node":3,
						"path":"rotation"
					}
				},
				{
					"sampler":8,
					"target":{
						"node":3,
						"path":"scale"
					}
				},
				{
					"sampler":9,
					"target":{
						"node":0,
						"path":"translation"
					}
				},
				{
					"sampler":10,
					"target":{
						"node":0,
						"path":"rotation"
					}
				},
				{
					"sampler":11,
					"target":{
						"node":0,
						"path":"scale"
					}
				},
				{
					"sampler":12,
					"target":{
						"node":1,
						"path":"translation"
					}
				},
				{
					"sampler":13,
					"target":{
						"node":1,
						"path":"rotation"
					}
				},
				{
					"sampler":14,
					"target":{
						"node":1,
						"path":"scale"
					}
				},
				{
					"sampler":15,
					"target":{
						"node":2,
						"path":"translation"
					}
				},
				{
					"sampler":16,
					"target":{
						"node":2,
						"path":"rotation"
					}
				},
				{
					"sampler":17,
					"target":{
						"node":2,
						"path":"scale"
					}
				},
				{
					"sampler":18,
					"target":{
						"node":5,
						"path":"translation"
					}
				},
				{
					"sampler":19,
					"target":{
						"node":5,
						"path":"rotation"
					}
				},
				{
					"sampler":20,
					"target":{
						"node":5,
						"path":"scale"
					}
				},
				{
					"sampler":21,
					"target":{
						"node":4,
						"path":"translation"
					}
				},
				{
					"sampler":22,
					"target":{
						"node":4,
						"path":"rotation"
					}
				},
				{
					"sampler":23,
					"target":{
						"node":4,
						"path":"scale"
					}
				},
				{
					"sampler":24,
					"target":{
						"node":7,
						"path":"translation"
					}
				},
				{
					"sampler":25,
					"target":{
						"node":7,
						"path":"rotation"
					}
				},
				{
					"sampler":26,
					"target":{
						"node":7,
						"path":"scale"
					}
				},
				{
					"sampler":27,
					"target":{
						"node":8,
						"path":"translation"
					}
				},
				{
					"sampler":28,
					"target":{
						"node":8,
						"path":"rotation"
					}
				},
				{
					"sampler":29,
					"target":{
						"node":8,
						"path":"scale"
					}
				},
				{
					"sampler":30,
					"target":{
						"node":11,
						"path":"translation"
					}
				},
				{
					"sampler":31,
					"target":{
						"node":11,
						"path":"rotation"
					}
				},
				{
					"sampler":32,
					"target":{
						"node":11,
						"path":"scale"
					}
				},
				{
					"sampler":33,
					"target":{
						"node":10,
						"path":"translation"
					}
				},
				{
					"sampler":34,
					"target":{
						"node":10,
						"path":"rotation"
					}
				},
				{
					"sampler":35,
					"target":{
						"node":10,
						"path":"scale"
					}
				}
			],
			"name":"ArmatureAction",
			"samplers":[
				{
					"input":33,
					"interpolation":"STEP",
					"output":34
				},
				{
					"input":35,
					"interpolation":"LINEAR",
					"output":36
				},
				{
					"input":33,
					"interpolation":"STEP",
					"output":37
				},
				{
					"input":33,
					"interpolation":"STEP",
					"output":38
				},
				{
					"input":35,
					"interpolation":"LINEAR",
					"output":39
				},
				{
					"input":33,
					"interpolation":"STEP",
					"output":40
				},
				{
					"input":33,
					"interpolation":"STEP",
					"output":41
				},
				{
					"input":35,
					"interpolation":"LINEAR",
					"output":42
				},
				{
					"input":33,
					"interpolation":"STEP",
					"output":43
				},
				{
					"input":33,
					"interpolation":"STEP",
					"output":44
				},
				{
					"input":35,
					"interpolation":"LINEAR",
					"output":45
				},
				{
					"input":33,
					"interpolation":"STEP",
					"output":46
				},
				{
					"input":33,
					"interpolation":"STEP",
					"output":47
				},
				{
					"input":35,
					"interpolation":"LINEAR",
					"output":48
				},
				{
					"input":33,
					"interpolation":"STEP",
					"output":49
				},
				{
					"input":33,
					"interpolation":"STEP",
					"output":50
				},
				{
					"input":35,
					"interpolation":"LINEAR",
					"output":51
				},
				{
					"input":33,
					"interpolation":"STEP",
					"output":52
				},
				{
					"input":33,
					"interpolation":"STEP",
					"output":53
				},
				{
					"input":35,
					"interpolation":"LINEAR",
					"output":54
				},
				{
					"input":33,
					"interpolation":"STEP",
					"output":55
				},
				{
					"input":33,
					"interpolation":"STEP",
					"output":56
				},
				{
					"input":35,
					"interpolation":"LINEAR",
					"output":57
				},
				{
					"input":33,
					"interpolation":"STEP",
					"output":58
				},
				{
					"input":33,
					"interpolation":"STEP",
					"output":59
				},
				{
					"input":35,
					"interpolation":"LINEAR",
					"output":60
				},
				{
					"input":33,
					"interpolation":"STEP",
					"output":61
				},
				{
					"input":33,
					"interpolation":"STEP",
					"output":62
				},
				{
					"input":35,
					"interpolation":"LINEAR",
					"output":63
				},
				{
					"input":33,
					"interpolation":"STEP",
					"output":64
				},
				{
					"input":33,
					"interpolation":"STEP",
					"output":65
				},
				{
					"input":35,
					"interpolation":"LINEAR",
					"output":66
				},
				{
					"input":33,
					"interpolation":"STEP",
					"output":67
				},
				{
					"input":33,
					"interpolation":"STEP",
					"output":68
				},
				{
					"input":35,
					"interpolation":"LINEAR",
					"output":69
				},
				{
					"input":33,
					"interpolation":"STEP",
					"output":70
				}
			]
		}
	],
	"materials":[
		{
			"doubleSided":true,
			"name":"Top",
			"pbrMetallicRoughness":{
				"baseColorTexture":{
					"index":0
				},
				"metallicFactor":0,
				"roughnessFactor":0.5
			}
		},
		{
			"doubleSided":true,
			"name":"Bottom",
			"pbrMetallicRoughness":{
				"baseColorTexture":{
					"index":1
				},
				"metallicFactor":0,
				"roughnessFactor":0.5
			}
		},
		{
			"doubleSided":true,
			"name":"Left",
			"pbrMetallicRoughness":{
				"baseColorTexture":{
					"index":2
				},
				"metallicFactor":0,
				"roughnessFactor":0.5
			}
		},
		{
			"doubleSided":true,
			"name":"Right",
			"pbrMetallicRoughness":{
				"baseColorTexture":{
					"index":3
				},
				"metallicFactor":0,
				"roughnessFactor":0.5
			}
		},
		{
			"doubleSided":true,
			"name":"Front",
			"pbrMetallicRoughness":{
				"baseColorTexture":{
					"index":4
				},
				"metallicFactor":0,
				"roughnessFactor":0.5
			}
		},
		{
			"doubleSided":true,
			"name":"Back",
			"pbrMetallicRoughness":{
				"baseColorTexture":{
					"index":5
				},
				"metallicFactor":0,
				"roughnessFactor":0.5
			}
		}
	],
	"meshes":[
		{
			"name":"Plane",
			"primitives":[
				{
					"attributes":{
						"POSITION":0,
						"NORMAL":1,
						"TEXCOORD_0":2,
						"JOINTS_0":3,
						"WEIGHTS_0":4
					},
					"indices":5,
					"material":0
				},
				{
					"attributes":{
						"POSITION":6,
						"NORMAL":7,
						"TEXCOORD_0":8,
						"JOINTS_0":9,
						"WEIGHTS_0":10
					},
					"indices":11,
					"material":1
				},
				{
					"attributes":{
						"POSITION":12,
						"NORMAL":13,
						"TEXCOORD_0":14,
						"JOINTS_0":15,
						"WEIGHTS_0":16
					},
					"indices":11,
					"material":2
				},
				{
					"attributes":{
						"POSITION":17,
						"NORMAL":18,
						"TEXCOORD_0":19,
						"JOINTS_0":20,
						"WEIGHTS_0":21
					},
					"indices":11,
					"material":3
				},
				{
					"attributes":{
						"POSITION":22,
						"NORMAL":23,
						"TEXCOORD_0":24,
						"JOINTS_0":25,
						"WEIGHTS_0":26
					},
					"indices":11,
					"material":4
				},
				{
					"attributes":{
						"POSITION":27,
						"NORMAL":28,
						"TEXCOORD_0":29,
						"JOINTS_0":30,
						"WEIGHTS_0":31
					},
					"indices":11,
					"material":5
				}
			]
		}
	],
	"textures":[
		{
			"sampler":0,
			"source":0
		},
		{
			"sampler":0,
			"source":0
		},
		{
			"sampler":0,
			"source":0
		},
		{
			"sampler":0,
			"source":0
		},
		{
			"sampler":0,
			"source":0
		},
		{
			"sampler":0,
			"source":0
		}
	],
	"images":[
		{
			"mimeType":"image/jpeg",
			"name":"brown-fabric-texture-min",
			"uri":"brown-fabric-texture-min.jpg"
		}
	],
	"skins":[
		{
			"inverseBindMatrices":32,
			"joints":[
				9,
				6,
				3,
				0,
				1,
				2,
				5,
				4,
				7,
				8,
				11,
				10,
				12
			],
			"name":"Armature"
		}
	],
	"accessors":[
		{
			"bufferView":0,
			"componentType":5126,
			"count":87,
			"max":[
				3.3419034481048584,
				0,
				1
			],
			"min":[
				-3.3721280097961426,
				0,
				-7.2188215255737305
			],
			"type":"VEC3"
		},
		{
			"bufferView":1,
			"componentType":5126,
			"count":87,
			"type":"VEC3"
		},
		{
			"bufferView":2,
			"componentType":5126,
			"count":87,
			"type":"VEC2"
		},
		{
			"bufferView":3,
			"componentType":5121,
			"count":87,
			"type":"VEC4"
		},
		{
			"bufferView":4,
			"componentType":5126,
			"count":87,
			"type":"VEC4"
		},
		{
			"bufferView":5,
			"componentType":5123,
			"count":228,
			"type":"SCALAR"
		},
		{
			"bufferView":6,
			"componentType":5126,
			"count":4,
			"max":[
				-1,
				0,
				1
			],
			"min":[
				-3,
				0,
				-1
			],
			"type":"VEC3"
		},
		{
			"bufferView":7,
			"componentType":5126,
			"count":4,
			"type":"VEC3"
		},
		{
			"bufferView":8,
			"componentType":5126,
			"count":4,
			"type":"VEC2"
		},
		{
			"bufferView":9,
			"componentType":5121,
			"count":4,
			"type":"VEC4"
		},
		{
			"bufferView":10,
			"componentType":5126,
			"count":4,
			"type":"VEC4"
		},
		{
			"bufferView":11,
			"componentType":5123,
			"count":6,
			"type":"SCALAR"
		},
		{
			"bufferView":12,
			"componentType":5126,
			"count":4,
			"max":[
				1,
				0,
				-1
			],
			"min":[
				-1,
				0,
				-3
			],
			"type":"VEC3"
		},
		{
			"bufferView":13,
			"componentType":5126,
			"count":4,
			"type":"VEC3"
		},
		{
			"bufferView":14,
			"componentType":5126,
			"count":4,
			"type":"VEC2"
		},
		{
			"bufferView":15,
			"componentType":5121,
			"count":4,
			"type":"VEC4"
		},
		{
			"bufferView":16,
			"componentType":5126,
			"count":4,
			"type":"VEC4"
		},
		{
			"bufferView":17,
			"componentType":5126,
			"count":4,
			"max":[
				1,
				0,
				-5
			],
			"min":[
				-1,
				0,
				-7
			],
			"type":"VEC3"
		},
		{
			"bufferView":18,
			"componentType":5126,
			"count":4,
			"type":"VEC3"
		},
		{
			"bufferView":19,
			"componentType":5126,
			"count":4,
			"type":"VEC2"
		},
		{
			"bufferView":20,
			"componentType":5121,
			"count":4,
			"type":"VEC4"
		},
		{
			"bufferView":21,
			"componentType":5126,
			"count":4,
			"type":"VEC4"
		},
		{
			"bufferView":22,
			"componentType":5126,
			"count":4,
			"max":[
				1,
				0,
				-3
			],
			"min":[
				-1,
				0,
				-5
			],
			"type":"VEC3"
		},
		{
			"bufferView":23,
			"componentType":5126,
			"count":4,
			"type":"VEC3"
		},
		{
			"bufferView":24,
			"componentType":5126,
			"count":4,
			"type":"VEC2"
		},
		{
			"bufferView":25,
			"componentType":5121,
			"count":4,
			"type":"VEC4"
		},
		{
			"bufferView":26,
			"componentType":5126,
			"count":4,
			"type":"VEC4"
		},
		{
			"bufferView":27,
			"componentType":5126,
			"count":4,
			"max":[
				1,
				0,
				1
			],
			"min":[
				-1,
				0,
				-1
			],
			"type":"VEC3"
		},
		{
			"bufferView":28,
			"componentType":5126,
			"count":4,
			"type":"VEC3"
		},
		{
			"bufferView":29,
			"componentType":5126,
			"count":4,
			"type":"VEC2"
		},
		{
			"bufferView":30,
			"componentType":5121,
			"count":4,
			"type":"VEC4"
		},
		{
			"bufferView":31,
			"componentType":5126,
			"count":4,
			"type":"VEC4"
		},
		{
			"bufferView":32,
			"componentType":5126,
			"count":13,
			"type":"MAT4"
		},
		{
			"bufferView":33,
			"componentType":5126,
			"count":2,
			"max":[
				1.5
			],
			"min":[
				0.041666666666666664
			],
			"type":"SCALAR"
		},
		{
			"bufferView":34,
			"componentType":5126,
			"count":2,
			"type":"VEC3"
		},
		{
			"bufferView":35,
			"componentType":5126,
			"count":36,
			"max":[
				1.5
			],
			"min":[
				0.041666666666666664
			],
			"type":"SCALAR"
		},
		{
			"bufferView":36,
			"componentType":5126,
			"count":36,
			"type":"VEC4"
		},
		{
			"bufferView":37,
			"componentType":5126,
			"count":2,
			"type":"VEC3"
		},
		{
			"bufferView":38,
			"componentType":5126,
			"count":2,
			"type":"VEC3"
		},
		{
			"bufferView":39,
			"componentType":5126,
			"count":36,
			"type":"VEC4"
		},
		{
			"bufferView":40,
			"componentType":5126,
			"count":2,
			"type":"VEC3"
		},
		{
			"bufferView":41,
			"componentType":5126,
			"count":2,
			"type":"VEC3"
		},
		{
			"bufferView":42,
			"componentType":5126,
			"count":36,
			"type":"VEC4"
		},
		{
			"bufferView":43,
			"componentType":5126,
			"count":2,
			"type":"VEC3"
		},
		{
			"bufferView":44,
			"componentType":5126,
			"count":2,
			"type":"VEC3"
		},
		{
			"bufferView":45,
			"componentType":5126,
			"count":36,
			"type":"VEC4"
		},
		{
			"bufferView":46,
			"componentType":5126,
			"count":2,
			"type":"VEC3"
		},
		{
			"bufferView":47,
			"componentType":5126,
			"count":2,
			"type":"VEC3"
		},
		{
			"bufferView":48,
			"componentType":5126,
			"count":36,
			"type":"VEC4"
		},
		{
			"bufferView":49,
			"componentType":5126,
			"count":2,
			"type":"VEC3"
		},
		{
			"bufferView":50,
			"componentType":5126,
			"count":2,
			"type":"VEC3"
		},
		{
			"bufferView":51,
			"componentType":5126,
			"count":36,
			"type":"VEC4"
		},
		{
			"bufferView":52,
			"componentType":5126,
			"count":2,
			"type":"VEC3"
		},
		{
			"bufferView":53,
			"componentType":5126,
			"count":2,
			"type":"VEC3"
		},
		{
			"bufferView":54,
			"componentType":5126,
			"count":36,
			"type":"VEC4"
		},
		{
			"bufferView":55,
			"componentType":5126,
			"count":2,
			"type":"VEC3"
		},
		{
			"bufferView":56,
			"componentType":5126,
			"count":2,
			"type":"VEC3"
		},
		{
			"bufferView":57,
			"componentType":5126,
			"count":36,
			"type":"VEC4"
		},
		{
			"bufferView":58,
			"componentType":5126,
			"count":2,
			"type":"VEC3"
		},
		{
			"bufferView":59,
			"componentType":5126,
			"count":2,
			"type":"VEC3"
		},
		{
			"bufferView":60,
			"componentType":5126,
			"count":36,
			"type":"VEC4"
		},
		{
			"bufferView":61,
			"componentType":5126,
			"count":2,
			"type":"VEC3"
		},
		{
			"bufferView":62,
			"componentType":5126,
			"count":2,
			"type":"VEC3"
		},
		{
			"bufferView":63,
			"componentType":5126,
			"count":36,
			"type":"VEC4"
		},
		{
			"bufferView":64,
			"componentType":5126,
			"count":2,
			"type":"VEC3"
		},
		{
			"bufferView":65,
			"componentType":5126,
			"count":2,
			"type":"VEC3"
		},
		{
			"bufferView":66,
			"componentType":5126,
			"count":36,
			"type":"VEC4"
		},
		{
			"bufferView":67,
			"componentType":5126,
			"count":2,
			"type":"VEC3"
		},
		{
			"bufferView":68,
			"componentType":5126,
			"count":2,
			"type":"VEC3"
		},
		{
			"bufferView":69,
			"componentType":5126,
			"count":36,
			"type":"VEC4"
		},
		{
			"bufferView":70,
			"componentType":5126,
			"count":2,
			"type":"VEC3"
		}
	],
	"bufferViews":[
		{
			"buffer":0,
			"byteLength":1044,
			"byteOffset":0,
			"target":34962
		},
		{
			"buffer":0,
			"byteLength":1044,
			"byteOffset":1044,
			"target":34962
		},
		{
			"buffer":0,
			"byteLength":696,
			"byteOffset":2088,
			"target":34962
		},
		{
			"buffer":0,
			"byteLength":348,
			"byteOffset":2784,
			"target":34962
		},
		{
			"buffer":0,
			"byteLength":1392,
			"byteOffset":3132,
			"target":34962
		},
		{
			"buffer":0,
			"byteLength":456,
			"byteOffset":4524,
			"target":34963
		},
		{
			"buffer":0,
			"byteLength":48,
			"byteOffset":4980,
			"target":34962
		},
		{
			"buffer":0,
			"byteLength":48,
			"byteOffset":5028,
			"target":34962
		},
		{
			"buffer":0,
			"byteLength":32,
			"byteOffset":5076,
			"target":34962
		},
		{
			"buffer":0,
			"byteLength":16,
			"byteOffset":5108,
			"target":34962
		},
		{
			"buffer":0,
			"byteLength":64,
			"byteOffset":5124,
			"target":34962
		},
		{
			"buffer":0,
			"byteLength":12,
			"byteOffset":5188,
			"target":34963
		},
		{
			"buffer":0,
			"byteLength":48,
			"byteOffset":5200,
			"target":34962
		},
		{
			"buffer":0,
			"byteLength":48,
			"byteOffset":5248,
			"target":34962
		},
		{
			"buffer":0,
			"byteLength":32,
			"byteOffset":5296,
			"target":34962
		},
		{
			"buffer":0,
			"byteLength":16,
			"byteOffset":5328,
			"target":34962
		},
		{
			"buffer":0,
			"byteLength":64,
			"byteOffset":5344,
			"target":34962
		},
		{
			"buffer":0,
			"byteLength":48,
			"byteOffset":5408,
			"target":34962
		},
		{
			"buffer":0,
			"byteLength":48,
			"byteOffset":5456,
			"target":34962
		},
		{
			"buffer":0,
			"byteLength":32,
			"byteOffset":5504,
			"target":34962
		},
		{
			"buffer":0,
			"byteLength":16,
			"byteOffset":5536,
			"target":34962
		},
		{
			"buffer":0,
			"byteLength":64,
			"byteOffset":5552,
			"target":34962
		},
		{
			"buffer":0,
			"byteLength":48,
			"byteOffset":5616,
			"target":34962
		},
		{
			"buffer":0,
			"byteLength":48,
			"byteOffset":5664,
			"target":34962
		},
		{
			"buffer":0,
			"byteLength":32,
			"byteOffset":5712,
			"target":34962
		},
		{
			"buffer":0,
			"byteLength":16,
			"byteOffset":5744,
			"target":34962
		},
		{
			"buffer":0,
			"byteLength":64,
			"byteOffset":5760,
			"target":34962
		},
		{
			"buffer":0,
			"byteLength":48,
			"byteOffset":5824,
			"target":34962
		},
		{
			"buffer":0,
			"byteLength":48,
			"byteOffset":5872,
			"target":34962
		},
		{
			"buffer":0,
			"byteLength":32,
			"byteOffset":5920,
			"target":34962
		},
		{
			"buffer":0,
			"byteLength":16,
			"byteOffset":5952,
			"target":34962
		},
		{
			"buffer":0,
			"byteLength":64,
			"byteOffset":5968,
			"target":34962
		},
		{
			"buffer":0,
			"byteLength":832,
			"byteOffset":6032
		},
		{
			"buffer":0,
			"byteLength":8,
			"byteOffset":6864
		},
		{
			"buffer":0,
			"byteLength":24,
			"byteOffset":6872
		},
		{
			"buffer":0,
			"byteLength":144,
			"byteOffset":6896
		},
		{
			"buffer":0,
			"byteLength":576,
			"byteOffset":7040
		},
		{
			"buffer":0,
			"byteLength":24,
			"byteOffset":7616
		},
		{
			"buffer":0,
			"byteLength":24,
			"byteOffset":7640
		},
		{
			"buffer":0,
			"byteLength":576,
			"byteOffset":7664
		},
		{
			"buffer":0,
			"byteLength":24,
			"byteOffset":8240
		},
		{
			"buffer":0,
			"byteLength":24,
			"byteOffset":8264
		},
		{
			"buffer":0,
			"byteLength":576,
			"byteOffset":8288
		},
		{
			"buffer":0,
			"byteLength":24,
			"byteOffset":8864
		},
		{
			"buffer":0,
			"byteLength":24,
			"byteOffset":8888
		},
		{
			"buffer":0,
			"byteLength":576,
			"byteOffset":8912
		},
		{
			"buffer":0,
			"byteLength":24,
			"byteOffset":9488
		},
		{
			"buffer":0,
			"byteLength":24,
			"byteOffset":9512
		},
		{
			"buffer":0,
			"byteLength":576,
			"byteOffset":9536
		},
		{
			"buffer":0,
			"byteLength":24,
			"byteOffset":10112
		},
		{
			"buffer":0,
			"byteLength":24,
			"byteOffset":10136
		},
		{
			"buffer":0,
			"byteLength":576,
			"byteOffset":10160
		},
		{
			"buffer":0,
			"byteLength":24,
			"byteOffset":10736
		},
		{
			"buffer":0,
			"byteLength":24,
			"byteOffset":10760
		},
		{
			"buffer":0,
			"byteLength":576,
			"byteOffset":10784
		},
		{
			"buffer":0,
			"byteLength":24,
			"byteOffset":11360
		},
		{
			"buffer":0,
			"byteLength":24,
			"byteOffset":11384
		},
		{
			"buffer":0,
			"byteLength":576,
			"byteOffset":11408
		},
		{
			"buffer":0,
			"byteLength":24,
			"byteOffset":11984
		},
		{
			"buffer":0,
			"byteLength":24,
			"byteOffset":12008
		},
		{
			"buffer":0,
			"byteLength":576,
			"byteOffset":12032
		},
		{
			"buffer":0,
			"byteLength":24,
			"byteOffset":12608
		},
		{
			"buffer":0,
			"byteLength":24,
			"byteOffset":12632
		},
		{
			"buffer":0,
			"byteLength":576,
			"byteOffset":12656
		},
		{
			"buffer":0,
			"byteLength":24,
			"byteOffset":13232
		},
		{
			"buffer":0,
			"byteLength":24,
			"byteOffset":13256
		},
		{
			"buffer":0,
			"byteLength":576,
			"byteOffset":13280
		},
		{
			"buffer":0,
			"byteLength":24,
			"byteOffset":13856
		},
		{
			"buffer":0,
			"byteLength":24,
			"byteOffset":13880
		},
		{
			"buffer":0,
			"byteLength":576,
			"byteOffset":13904
		},
		{
			"buffer":0,
			"byteLength":24,
			"byteOffset":14480
		}
	],
	"samplers":[
		{
			"magFilter":9729,
			"minFilter":9987
		}
	],
	"buffers":[
		{
			"byteLength":14504,
			"uri":"Model018.bin"
		}
	]
}
