{
	"asset":{
		"generator":"Khronos glTF Blender I/O v4.3.47",
		"version":"2.0"
	},
	"scene":0,
	"scenes":[
		{
			"name":"Scene",
			"nodes":[
				0
			]
		}
	],
	"nodes":[
		{
			"mesh":0,
			"name":"Cube",
			"scale":[
				2.2719438076019287,
				0.6068063974380493,
				3.463071346282959
			]
		}
	],
	"materials":[
		{
			"doubleSided":true,
			"name":"FullBody",
			"pbrMetallicRoughness":{
				"baseColorTexture":{
					"index":0
				},
				"metallicFactor":0,
				"roughnessFactor":0.5
			}
		}
	],
	"meshes":[
		{
			"name":"Cube.003",
			"primitives":[
				{
					"attributes":{
						"POSITION":0,
						"NORMAL":1,
						"TEXCOORD_0":2
					},
					"indices":3,
					"material":0
				}
			]
		}
	],
	"textures":[
		{
			"sampler":0,
			"source":0
		}
	],
	"images":[
		{
			"mimeType":"image/jpeg",
			"name":"foam texture 3",
			"uri":"foam%20texture%203.jpg"
		}
	],
	"accessors":[
		{
			"bufferView":0,
			"componentType":5126,
			"count":823,
			"max":[
				1,
				1,
				1
			],
			"min":[
				-1,
				-1,
				-1
			],
			"type":"VEC3"
		},
		{
			"bufferView":1,
			"componentType":5126,
			"count":823,
			"type":"VEC3"
		},
		{
			"bufferView":2,
			"componentType":5126,
			"count":823,
			"type":"VEC2"
		},
		{
			"bufferView":3,
			"componentType":5123,
			"count":3528,
			"type":"SCALAR"
		}
	],
	"bufferViews":[
		{
			"buffer":0,
			"byteLength":9876,
			"byteOffset":0,
			"target":34962
		},
		{
			"buffer":0,
			"byteLength":9876,
			"byteOffset":9876,
			"target":34962
		},
		{
			"buffer":0,
			"byteLength":6584,
			"byteOffset":19752,
			"target":34962
		},
		{
			"buffer":0,
			"byteLength":7056,
			"byteOffset":26336,
			"target":34963
		}
	],
	"samplers":[
		{
			"magFilter":9729,
			"minFilter":9987
		}
	],
	"buffers":[
		{
			"byteLength":33392,
			"uri":"Model22Fifth.bin"
		}
	]
}
