{
	"asset":{
		"generator":"Khronos glTF Blender I/O v4.3.47",
		"version":"2.0"
	},
	"scene":0,
	"scenes":[
		{
			"name":"Scene",
			"nodes":[
				14
			]
		}
	],
	"nodes":[
		{
			"name":"Bone.002",
			"translation":[
				0,
				1.0000001192092896,
				0
			]
		},
		{
			"children":[
				0
			],
			"name":"Bone"
		},
		{
			"name":"Bone.003",
			"rotation":[
				-0.7071067690849304,
				5.338508302088485e-08,
				5.338508302088485e-08,
				0.7071067690849304
			],
			"translation":[
				-7.677950009110646e-08,
				0.4999997615814209,
				-0.5084877014160156
			]
		},
		{
			"name":"Bone.006",
			"rotation":[
				0.7071067690849304,
				5.338507591545749e-08,
				-5.338507591545749e-08,
				0.7071067690849304
			],
			"translation":[
				7.42655856811325e-08,
				0.5241329669952393,
				0.4918387532234192
			]
		},
		{
			"name":"Bone.008",
			"rotation":[
				2.117582368135751e-22,
				-3.3407489407866354e-22,
				3.552713678800501e-15,
				1
			],
			"translation":[
				-7.186274954912561e-22,
				1,
				0
			]
		},
		{
			"children":[
				4
			],
			"name":"Bone.007",
			"rotation":[
				0.7071067690849304,
				3.090862321641907e-08,
				-3.090862321641907e-08,
				0.7071067690849304
			],
			"translation":[
				4.299791100947914e-08,
				1.0168092250823975,
				0.4918387532234192
			]
		},
		{
			"children":[
				5
			],
			"name":"Bone.010",
			"rotation":[
				0,
				3.178651297730539e-08,
				0,
				1
			],
			"translation":[
				-2.7755575615628914e-17,
				0.9999998807907104,
				0
			]
		},
		{
			"children":[
				2,
				3,
				6
			],
			"name":"Bone.009",
			"rotation":[
				0.7071067690849304,
				-5.338507591545749e-08,
				-5.338507591545749e-08,
				0.7071067690849304
			],
			"translation":[
				0,
				-0.5084877014160156,
				1.0277619361877441
			]
		},
		{
			"name":"Bone.004",
			"rotation":[
				1.3767878215276141e-07,
				-0.7071067690849304,
				0.7071067690849304,
				1.3767878215276141e-07
			],
			"translation":[
				-1.9801240114247776e-07,
				0.44154858589172363,
				-0.5084877014160156
			]
		},
		{
			"name":"Bone.005",
			"rotation":[
				-1.3767882478532556e-07,
				-0.7071067690849304,
				-0.7071067690849304,
				1.3767878215276141e-07
			],
			"translation":[
				1.9152909658259887e-07,
				0.5447279214859009,
				0.4918387532234192
			]
		},
		{
			"name":"Bone.013",
			"rotation":[
				0,
				1.4210854715202004e-14,
				0,
				1
			],
			"translation":[
				5.551115123125783e-17,
				0.1070399284362793,
				0
			]
		},
		{
			"children":[
				10
			],
			"name":"Bone.012",
			"rotation":[
				0,
				1.4210854715202004e-14,
				0,
				1
			],
			"translation":[
				5.551115123125783e-17,
				1.000000238418579,
				0
			]
		},
		{
			"children":[
				8,
				9,
				11
			],
			"name":"Bone.011",
			"rotation":[
				-1.376787679419067e-07,
				0.7071067690849304,
				-0.7071067690849304,
				1.376787679419067e-07
			],
			"translation":[
				0,
				-0.5084877014160156,
				-1.0207289457321167
			]
		},
		{
			"mesh":0,
			"name":"Top",
			"skin":0
		},
		{
			"children":[
				13,
				1,
				7,
				12
			],
			"name":"Armature",
			"scale":[
				1.993306040763855,
				1.993306040763855,
				1.993306040763855
			],
			"translation":[
				0,
				1.0098886489868164,
				0
			]
		}
	],
	"animations":[
		{
			"channels":[
				{
					"sampler":0,
					"target":{
						"node":1,
						"path":"translation"
					}
				},
				{
					"sampler":1,
					"target":{
						"node":1,
						"path":"rotation"
					}
				},
				{
					"sampler":2,
					"target":{
						"node":1,
						"path":"scale"
					}
				},
				{
					"sampler":3,
					"target":{
						"node":0,
						"path":"translation"
					}
				},
				{
					"sampler":4,
					"target":{
						"node":0,
						"path":"rotation"
					}
				},
				{
					"sampler":5,
					"target":{
						"node":0,
						"path":"scale"
					}
				},
				{
					"sampler":6,
					"target":{
						"node":7,
						"path":"translation"
					}
				},
				{
					"sampler":7,
					"target":{
						"node":7,
						"path":"rotation"
					}
				},
				{
					"sampler":8,
					"target":{
						"node":7,
						"path":"scale"
					}
				},
				{
					"sampler":9,
					"target":{
						"node":2,
						"path":"translation"
					}
				},
				{
					"sampler":10,
					"target":{
						"node":2,
						"path":"rotation"
					}
				},
				{
					"sampler":11,
					"target":{
						"node":2,
						"path":"scale"
					}
				},
				{
					"sampler":12,
					"target":{
						"node":3,
						"path":"translation"
					}
				},
				{
					"sampler":13,
					"target":{
						"node":3,
						"path":"rotation"
					}
				},
				{
					"sampler":14,
					"target":{
						"node":3,
						"path":"scale"
					}
				},
				{
					"sampler":15,
					"target":{
						"node":6,
						"path":"translation"
					}
				},
				{
					"sampler":16,
					"target":{
						"node":6,
						"path":"rotation"
					}
				},
				{
					"sampler":17,
					"target":{
						"node":6,
						"path":"scale"
					}
				},
				{
					"sampler":18,
					"target":{
						"node":5,
						"path":"translation"
					}
				},
				{
					"sampler":19,
					"target":{
						"node":5,
						"path":"rotation"
					}
				},
				{
					"sampler":20,
					"target":{
						"node":5,
						"path":"scale"
					}
				},
				{
					"sampler":21,
					"target":{
						"node":4,
						"path":"translation"
					}
				},
				{
					"sampler":22,
					"target":{
						"node":4,
						"path":"rotation"
					}
				},
				{
					"sampler":23,
					"target":{
						"node":4,
						"path":"scale"
					}
				},
				{
					"sampler":24,
					"target":{
						"node":12,
						"path":"translation"
					}
				},
				{
					"sampler":25,
					"target":{
						"node":12,
						"path":"rotation"
					}
				},
				{
					"sampler":26,
					"target":{
						"node":12,
						"path":"scale"
					}
				},
				{
					"sampler":27,
					"target":{
						"node":8,
						"path":"translation"
					}
				},
				{
					"sampler":28,
					"target":{
						"node":8,
						"path":"rotation"
					}
				},
				{
					"sampler":29,
					"target":{
						"node":8,
						"path":"scale"
					}
				},
				{
					"sampler":30,
					"target":{
						"node":9,
						"path":"translation"
					}
				},
				{
					"sampler":31,
					"target":{
						"node":9,
						"path":"rotation"
					}
				},
				{
					"sampler":32,
					"target":{
						"node":9,
						"path":"scale"
					}
				},
				{
					"sampler":33,
					"target":{
						"node":11,
						"path":"translation"
					}
				},
				{
					"sampler":34,
					"target":{
						"node":11,
						"path":"rotation"
					}
				},
				{
					"sampler":35,
					"target":{
						"node":11,
						"path":"scale"
					}
				},
				{
					"sampler":36,
					"target":{
						"node":10,
						"path":"translation"
					}
				},
				{
					"sampler":37,
					"target":{
						"node":10,
						"path":"rotation"
					}
				},
				{
					"sampler":38,
					"target":{
						"node":10,
						"path":"scale"
					}
				}
			],
			"name":"ArmatureAction",
			"samplers":[
				{
					"input":7,
					"interpolation":"STEP",
					"output":8
				},
				{
					"input":9,
					"interpolation":"LINEAR",
					"output":10
				},
				{
					"input":7,
					"interpolation":"STEP",
					"output":11
				},
				{
					"input":7,
					"interpolation":"STEP",
					"output":12
				},
				{
					"input":9,
					"interpolation":"LINEAR",
					"output":13
				},
				{
					"input":7,
					"interpolation":"STEP",
					"output":14
				},
				{
					"input":7,
					"interpolation":"STEP",
					"output":15
				},
				{
					"input":9,
					"interpolation":"LINEAR",
					"output":16
				},
				{
					"input":7,
					"interpolation":"STEP",
					"output":17
				},
				{
					"input":7,
					"interpolation":"STEP",
					"output":18
				},
				{
					"input":9,
					"interpolation":"LINEAR",
					"output":19
				},
				{
					"input":7,
					"interpolation":"STEP",
					"output":20
				},
				{
					"input":7,
					"interpolation":"STEP",
					"output":21
				},
				{
					"input":9,
					"interpolation":"LINEAR",
					"output":22
				},
				{
					"input":7,
					"interpolation":"STEP",
					"output":23
				},
				{
					"input":7,
					"interpolation":"STEP",
					"output":24
				},
				{
					"input":9,
					"interpolation":"LINEAR",
					"output":25
				},
				{
					"input":7,
					"interpolation":"STEP",
					"output":26
				},
				{
					"input":7,
					"interpolation":"STEP",
					"output":27
				},
				{
					"input":9,
					"interpolation":"LINEAR",
					"output":28
				},
				{
					"input":7,
					"interpolation":"STEP",
					"output":29
				},
				{
					"input":7,
					"interpolation":"STEP",
					"output":30
				},
				{
					"input":9,
					"interpolation":"LINEAR",
					"output":31
				},
				{
					"input":7,
					"interpolation":"STEP",
					"output":32
				},
				{
					"input":7,
					"interpolation":"STEP",
					"output":33
				},
				{
					"input":9,
					"interpolation":"LINEAR",
					"output":34
				},
				{
					"input":7,
					"interpolation":"STEP",
					"output":35
				},
				{
					"input":7,
					"interpolation":"STEP",
					"output":36
				},
				{
					"input":9,
					"interpolation":"LINEAR",
					"output":37
				},
				{
					"input":7,
					"interpolation":"STEP",
					"output":38
				},
				{
					"input":7,
					"interpolation":"STEP",
					"output":39
				},
				{
					"input":9,
					"interpolation":"LINEAR",
					"output":40
				},
				{
					"input":7,
					"interpolation":"STEP",
					"output":41
				},
				{
					"input":7,
					"interpolation":"STEP",
					"output":42
				},
				{
					"input":9,
					"interpolation":"LINEAR",
					"output":43
				},
				{
					"input":7,
					"interpolation":"STEP",
					"output":44
				},
				{
					"input":7,
					"interpolation":"STEP",
					"output":45
				},
				{
					"input":7,
					"interpolation":"STEP",
					"output":46
				},
				{
					"input":7,
					"interpolation":"STEP",
					"output":47
				}
			]
		}
	],
	"materials":[
		{
			"doubleSided":true,
			"name":"FullBody",
			"normalTexture":{
				"index":0,
				"scale":2.5999996662139893
			},
			"pbrMetallicRoughness":{
				"baseColorTexture":{
					"index":1
				},
				"metallicFactor":0,
				"roughnessFactor":0.8045454621315002
			}
		}
	],
	"meshes":[
		{
			"name":"Plane",
			"primitives":[
				{
					"attributes":{
						"POSITION":0,
						"NORMAL":1,
						"TEXCOORD_0":2,
						"JOINTS_0":3,
						"WEIGHTS_0":4
					},
					"indices":5,
					"material":0
				}
			]
		}
	],
	"textures":[
		{
			"sampler":0,
			"source":0
		},
		{
			"sampler":0,
			"source":0
		}
	],
	"images":[
		{
			"mimeType":"image/jpeg",
			"name":"cardboard-texture-background",
			"uri":"cardboard-texture-background.jpg"
		}
	],
	"skins":[
		{
			"inverseBindMatrices":6,
			"joints":[
				1,
				0,
				7,
				2,
				3,
				6,
				5,
				4,
				12,
				8,
				9,
				11,
				10
			],
			"name":"Armature"
		}
	],
	"accessors":[
		{
			"bufferView":0,
			"componentType":5126,
			"count":732,
			"max":[
				7.54979225803254e-08,
				3.32914662361145,
				8.030980110168457
			],
			"min":[
				-0.040000077337026596,
				-3.307190179824829,
				-4.522736072540283
			],
			"type":"VEC3"
		},
		{
			"bufferView":1,
			"componentType":5126,
			"count":732,
			"type":"VEC3"
		},
		{
			"bufferView":2,
			"componentType":5126,
			"count":732,
			"type":"VEC2"
		},
		{
			"bufferView":3,
			"componentType":5121,
			"count":732,
			"type":"VEC4"
		},
		{
			"bufferView":4,
			"componentType":5126,
			"count":732,
			"type":"VEC4"
		},
		{
			"bufferView":5,
			"componentType":5123,
			"count":1500,
			"type":"SCALAR"
		},
		{
			"bufferView":6,
			"componentType":5126,
			"count":13,
			"type":"MAT4"
		},
		{
			"bufferView":7,
			"componentType":5126,
			"count":2,
			"max":[
				1.6666666666666667
			],
			"min":[
				0.041666666666666664
			],
			"type":"SCALAR"
		},
		{
			"bufferView":8,
			"componentType":5126,
			"count":2,
			"type":"VEC3"
		},
		{
			"bufferView":9,
			"componentType":5126,
			"count":40,
			"max":[
				1.6666666666666667
			],
			"min":[
				0.041666666666666664
			],
			"type":"SCALAR"
		},
		{
			"bufferView":10,
			"componentType":5126,
			"count":40,
			"type":"VEC4"
		},
		{
			"bufferView":11,
			"componentType":5126,
			"count":2,
			"type":"VEC3"
		},
		{
			"bufferView":12,
			"componentType":5126,
			"count":2,
			"type":"VEC3"
		},
		{
			"bufferView":13,
			"componentType":5126,
			"count":40,
			"type":"VEC4"
		},
		{
			"bufferView":14,
			"componentType":5126,
			"count":2,
			"type":"VEC3"
		},
		{
			"bufferView":15,
			"componentType":5126,
			"count":2,
			"type":"VEC3"
		},
		{
			"bufferView":16,
			"componentType":5126,
			"count":40,
			"type":"VEC4"
		},
		{
			"bufferView":17,
			"componentType":5126,
			"count":2,
			"type":"VEC3"
		},
		{
			"bufferView":18,
			"componentType":5126,
			"count":2,
			"type":"VEC3"
		},
		{
			"bufferView":19,
			"componentType":5126,
			"count":40,
			"type":"VEC4"
		},
		{
			"bufferView":20,
			"componentType":5126,
			"count":2,
			"type":"VEC3"
		},
		{
			"bufferView":21,
			"componentType":5126,
			"count":2,
			"type":"VEC3"
		},
		{
			"bufferView":22,
			"componentType":5126,
			"count":40,
			"type":"VEC4"
		},
		{
			"bufferView":23,
			"componentType":5126,
			"count":2,
			"type":"VEC3"
		},
		{
			"bufferView":24,
			"componentType":5126,
			"count":2,
			"type":"VEC3"
		},
		{
			"bufferView":25,
			"componentType":5126,
			"count":40,
			"type":"VEC4"
		},
		{
			"bufferView":26,
			"componentType":5126,
			"count":2,
			"type":"VEC3"
		},
		{
			"bufferView":27,
			"componentType":5126,
			"count":2,
			"type":"VEC3"
		},
		{
			"bufferView":28,
			"componentType":5126,
			"count":40,
			"type":"VEC4"
		},
		{
			"bufferView":29,
			"componentType":5126,
			"count":2,
			"type":"VEC3"
		},
		{
			"bufferView":30,
			"componentType":5126,
			"count":2,
			"type":"VEC3"
		},
		{
			"bufferView":31,
			"componentType":5126,
			"count":40,
			"type":"VEC4"
		},
		{
			"bufferView":32,
			"componentType":5126,
			"count":2,
			"type":"VEC3"
		},
		{
			"bufferView":33,
			"componentType":5126,
			"count":2,
			"type":"VEC3"
		},
		{
			"bufferView":34,
			"componentType":5126,
			"count":40,
			"type":"VEC4"
		},
		{
			"bufferView":35,
			"componentType":5126,
			"count":2,
			"type":"VEC3"
		},
		{
			"bufferView":36,
			"componentType":5126,
			"count":2,
			"type":"VEC3"
		},
		{
			"bufferView":37,
			"componentType":5126,
			"count":40,
			"type":"VEC4"
		},
		{
			"bufferView":38,
			"componentType":5126,
			"count":2,
			"type":"VEC3"
		},
		{
			"bufferView":39,
			"componentType":5126,
			"count":2,
			"type":"VEC3"
		},
		{
			"bufferView":40,
			"componentType":5126,
			"count":40,
			"type":"VEC4"
		},
		{
			"bufferView":41,
			"componentType":5126,
			"count":2,
			"type":"VEC3"
		},
		{
			"bufferView":42,
			"componentType":5126,
			"count":2,
			"type":"VEC3"
		},
		{
			"bufferView":43,
			"componentType":5126,
			"count":40,
			"type":"VEC4"
		},
		{
			"bufferView":44,
			"componentType":5126,
			"count":2,
			"type":"VEC3"
		},
		{
			"bufferView":45,
			"componentType":5126,
			"count":2,
			"type":"VEC3"
		},
		{
			"bufferView":46,
			"componentType":5126,
			"count":2,
			"type":"VEC4"
		},
		{
			"bufferView":47,
			"componentType":5126,
			"count":2,
			"type":"VEC3"
		}
	],
	"bufferViews":[
		{
			"buffer":0,
			"byteLength":8784,
			"byteOffset":0,
			"target":34962
		},
		{
			"buffer":0,
			"byteLength":8784,
			"byteOffset":8784,
			"target":34962
		},
		{
			"buffer":0,
			"byteLength":5856,
			"byteOffset":17568,
			"target":34962
		},
		{
			"buffer":0,
			"byteLength":2928,
			"byteOffset":23424,
			"target":34962
		},
		{
			"buffer":0,
			"byteLength":11712,
			"byteOffset":26352,
			"target":34962
		},
		{
			"buffer":0,
			"byteLength":3000,
			"byteOffset":38064,
			"target":34963
		},
		{
			"buffer":0,
			"byteLength":832,
			"byteOffset":41064
		},
		{
			"buffer":0,
			"byteLength":8,
			"byteOffset":41896
		},
		{
			"buffer":0,
			"byteLength":24,
			"byteOffset":41904
		},
		{
			"buffer":0,
			"byteLength":160,
			"byteOffset":41928
		},
		{
			"buffer":0,
			"byteLength":640,
			"byteOffset":42088
		},
		{
			"buffer":0,
			"byteLength":24,
			"byteOffset":42728
		},
		{
			"buffer":0,
			"byteLength":24,
			"byteOffset":42752
		},
		{
			"buffer":0,
			"byteLength":640,
			"byteOffset":42776
		},
		{
			"buffer":0,
			"byteLength":24,
			"byteOffset":43416
		},
		{
			"buffer":0,
			"byteLength":24,
			"byteOffset":43440
		},
		{
			"buffer":0,
			"byteLength":640,
			"byteOffset":43464
		},
		{
			"buffer":0,
			"byteLength":24,
			"byteOffset":44104
		},
		{
			"buffer":0,
			"byteLength":24,
			"byteOffset":44128
		},
		{
			"buffer":0,
			"byteLength":640,
			"byteOffset":44152
		},
		{
			"buffer":0,
			"byteLength":24,
			"byteOffset":44792
		},
		{
			"buffer":0,
			"byteLength":24,
			"byteOffset":44816
		},
		{
			"buffer":0,
			"byteLength":640,
			"byteOffset":44840
		},
		{
			"buffer":0,
			"byteLength":24,
			"byteOffset":45480
		},
		{
			"buffer":0,
			"byteLength":24,
			"byteOffset":45504
		},
		{
			"buffer":0,
			"byteLength":640,
			"byteOffset":45528
		},
		{
			"buffer":0,
			"byteLength":24,
			"byteOffset":46168
		},
		{
			"buffer":0,
			"byteLength":24,
			"byteOffset":46192
		},
		{
			"buffer":0,
			"byteLength":640,
			"byteOffset":46216
		},
		{
			"buffer":0,
			"byteLength":24,
			"byteOffset":46856
		},
		{
			"buffer":0,
			"byteLength":24,
			"byteOffset":46880
		},
		{
			"buffer":0,
			"byteLength":640,
			"byteOffset":46904
		},
		{
			"buffer":0,
			"byteLength":24,
			"byteOffset":47544
		},
		{
			"buffer":0,
			"byteLength":24,
			"byteOffset":47568
		},
		{
			"buffer":0,
			"byteLength":640,
			"byteOffset":47592
		},
		{
			"buffer":0,
			"byteLength":24,
			"byteOffset":48232
		},
		{
			"buffer":0,
			"byteLength":24,
			"byteOffset":48256
		},
		{
			"buffer":0,
			"byteLength":640,
			"byteOffset":48280
		},
		{
			"buffer":0,
			"byteLength":24,
			"byteOffset":48920
		},
		{
			"buffer":0,
			"byteLength":24,
			"byteOffset":48944
		},
		{
			"buffer":0,
			"byteLength":640,
			"byteOffset":48968
		},
		{
			"buffer":0,
			"byteLength":24,
			"byteOffset":49608
		},
		{
			"buffer":0,
			"byteLength":24,
			"byteOffset":49632
		},
		{
			"buffer":0,
			"byteLength":640,
			"byteOffset":49656
		},
		{
			"buffer":0,
			"byteLength":24,
			"byteOffset":50296
		},
		{
			"buffer":0,
			"byteLength":24,
			"byteOffset":50320
		},
		{
			"buffer":0,
			"byteLength":32,
			"byteOffset":50344
		},
		{
			"buffer":0,
			"byteLength":24,
			"byteOffset":50376
		}
	],
	"samplers":[
		{
			"magFilter":9729,
			"minFilter":9987
		}
	],
	"buffers":[
		{
			"byteLength":50400,
			"uri":"Model20Sixth.bin"
		}
	]
}
