{
	"asset":{
		"generator":"Khronos glTF Blender I/O v4.3.47",
		"version":"2.0"
	},
	"scene":0,
	"scenes":[
		{
			"name":"Scene",
			"nodes":[
				0,
				1,
				2
			]
		}
	],
	"nodes":[
		{
			"mesh":0,
			"name":"Cube",
			"scale":[
				1,
				0.47556746006011963,
				1.9513275623321533
			]
		},
		{
			"name":"Cube.001",
			"scale":[
				1.0233081579208374,
				0.2768777310848236,
				1.9968093633651733
			],
			"translation":[
				0,
				0.4389779567718506,
				0
			]
		},
		{
			"mesh":1,
			"name":"Plane",
			"scale":[
				1,
				1,
				1.7574772834777832
			],
			"translation":[
				0,
				0.6223560571670532,
				0
			]
		}
	],
	"animations":[
		{
			"channels":[
				{
					"sampler":0,
					"target":{
						"node":1,
						"path":"translation"
					}
				},
				{
					"sampler":1,
					"target":{
						"node":1,
						"path":"rotation"
					}
				}
			],
			"name":"Cube.001Action.001",
			"samplers":[
				{
					"input":8,
					"interpolation":"LINEAR",
					"output":9
				},
				{
					"input":8,
					"interpolation":"LINEAR",
					"output":10
				}
			]
		},
		{
			"channels":[
				{
					"sampler":0,
					"target":{
						"node":2,
						"path":"translation"
					}
				},
				{
					"sampler":1,
					"target":{
						"node":2,
						"path":"rotation"
					}
				}
			],
			"name":"PlaneAction",
			"samplers":[
				{
					"input":8,
					"interpolation":"LINEAR",
					"output":11
				},
				{
					"input":8,
					"interpolation":"LINEAR",
					"output":12
				}
			]
		}
	],
	"materials":[
		{
			"doubleSided":true,
			"name":"Bottom",
			"pbrMetallicRoughness":{
				"baseColorTexture":{
					"index":0
				},
				"metallicFactor":0,
				"roughnessFactor":0.5
			}
		},
		{
			"alphaMode":"BLEND",
			"doubleSided":true,
			"name":"mat",
			"pbrMetallicRoughness":{
				"baseColorFactor":[
					0.800000011920929,
					0.800000011920929,
					0.800000011920929,
					0.5591397881507874
				],
				"metallicFactor":0.07526881992816925,
				"roughnessFactor":0.5
			}
		}
	],
	"meshes":[
		{
			"name":"Cube.001",
			"primitives":[
				{
					"attributes":{
						"POSITION":0,
						"NORMAL":1,
						"TEXCOORD_0":2
					},
					"indices":3,
					"material":0
				}
			]
		},
		{
			"name":"Plane",
			"primitives":[
				{
					"attributes":{
						"POSITION":4,
						"NORMAL":5,
						"TEXCOORD_0":6
					},
					"indices":7,
					"material":1
				}
			]
		}
	],
	"textures":[
		{
			"sampler":0,
			"source":0
		}
	],
	"images":[
		{
			"mimeType":"image/jpeg",
			"name":"0-8mm-decorative-laminates",
			"uri":"0-8mm-decorative-laminates.jpg"
		}
	],
	"accessors":[
		{
			"bufferView":0,
			"componentType":5126,
			"count":50,
			"max":[
				1,
				1,
				1
			],
			"min":[
				-1,
				-1,
				-1
			],
			"type":"VEC3"
		},
		{
			"bufferView":1,
			"componentType":5126,
			"count":50,
			"type":"VEC3"
		},
		{
			"bufferView":2,
			"componentType":5126,
			"count":50,
			"type":"VEC2"
		},
		{
			"bufferView":3,
			"componentType":5123,
			"count":84,
			"type":"SCALAR"
		},
		{
			"bufferView":4,
			"componentType":5126,
			"count":4,
			"max":[
				1,
				0,
				1
			],
			"min":[
				-1,
				0,
				-1
			],
			"type":"VEC3"
		},
		{
			"bufferView":5,
			"componentType":5126,
			"count":4,
			"type":"VEC3"
		},
		{
			"bufferView":6,
			"componentType":5126,
			"count":4,
			"type":"VEC2"
		},
		{
			"bufferView":7,
			"componentType":5123,
			"count":6,
			"type":"SCALAR"
		},
		{
			"bufferView":8,
			"componentType":5126,
			"count":25,
			"max":[
				1.0416666666666667
			],
			"min":[
				0.041666666666666664
			],
			"type":"SCALAR"
		},
		{
			"bufferView":9,
			"componentType":5126,
			"count":25,
			"type":"VEC3"
		},
		{
			"bufferView":10,
			"componentType":5126,
			"count":25,
			"type":"VEC4"
		},
		{
			"bufferView":11,
			"componentType":5126,
			"count":25,
			"type":"VEC3"
		},
		{
			"bufferView":12,
			"componentType":5126,
			"count":25,
			"type":"VEC4"
		}
	],
	"bufferViews":[
		{
			"buffer":0,
			"byteLength":600,
			"byteOffset":0,
			"target":34962
		},
		{
			"buffer":0,
			"byteLength":600,
			"byteOffset":600,
			"target":34962
		},
		{
			"buffer":0,
			"byteLength":400,
			"byteOffset":1200,
			"target":34962
		},
		{
			"buffer":0,
			"byteLength":168,
			"byteOffset":1600,
			"target":34963
		},
		{
			"buffer":0,
			"byteLength":48,
			"byteOffset":1768,
			"target":34962
		},
		{
			"buffer":0,
			"byteLength":48,
			"byteOffset":1816,
			"target":34962
		},
		{
			"buffer":0,
			"byteLength":32,
			"byteOffset":1864,
			"target":34962
		},
		{
			"buffer":0,
			"byteLength":12,
			"byteOffset":1896,
			"target":34963
		},
		{
			"buffer":0,
			"byteLength":100,
			"byteOffset":1908
		},
		{
			"buffer":0,
			"byteLength":300,
			"byteOffset":2008
		},
		{
			"buffer":0,
			"byteLength":400,
			"byteOffset":2308
		},
		{
			"buffer":0,
			"byteLength":300,
			"byteOffset":2708
		},
		{
			"buffer":0,
			"byteLength":400,
			"byteOffset":3008
		}
	],
	"samplers":[
		{
			"magFilter":9729,
			"minFilter":9987
		}
	],
	"buffers":[
		{
			"byteLength":3408,
			"uri":"Model18Second.bin"
		}
	]
}
