{
	"asset":{
		"generator":"Khronos glTF Blender I/O v4.3.47",
		"version":"2.0"
	},
	"scene":0,
	"scenes":[
		{
			"name":"Scene",
			"nodes":[
				0
			]
		}
	],
	"nodes":[
		{
			"mesh":0,
			"name":"Cube",
			"rotation":[
				-0.5000003576278687,
				0,
				0,
				0.8660253286361694
			],
			"scale":[
				1,
				1,
				0.5331822633743286
			]
		}
	],
	"materials":[
		{
			"doubleSided":true,
			"name":"Material.001",
			"pbrMetallicRoughness":{
				"baseColorTexture":{
					"index":0
				},
				"metallicFactor":0,
				"roughnessFactor":0.5
			}
		}
	],
	"meshes":[
		{
			"name":"Cube.001",
			"primitives":[
				{
					"attributes":{
						"POSITION":0,
						"NORMAL":1,
						"TEXCOORD_0":2
					},
					"indices":3,
					"material":0
				}
			]
		}
	],
	"textures":[
		{
			"sampler":0,
			"source":0
		}
	],
	"images":[
		{
			"mimeType":"image/png",
			"name":"Rope",
			"uri":"Rope.png"
		}
	],
	"accessors":[
		{
			"bufferView":0,
			"componentType":5126,
			"count":5510,
			"max":[
				2.491325616836548,
				0.7863362431526184,
				0.7705881595611572
			],
			"min":[
				-1.1610159873962402,
				-0.8856536746025085,
				-1.1412909030914307
			],
			"type":"VEC3"
		},
		{
			"bufferView":1,
			"componentType":5126,
			"count":5510,
			"type":"VEC3"
		},
		{
			"bufferView":2,
			"componentType":5126,
			"count":5510,
			"type":"VEC2"
		},
		{
			"bufferView":3,
			"componentType":5123,
			"count":5568,
			"type":"SCALAR"
		}
	],
	"bufferViews":[
		{
			"buffer":0,
			"byteLength":66120,
			"byteOffset":0,
			"target":34962
		},
		{
			"buffer":0,
			"byteLength":66120,
			"byteOffset":66120,
			"target":34962
		},
		{
			"buffer":0,
			"byteLength":44080,
			"byteOffset":132240,
			"target":34962
		},
		{
			"buffer":0,
			"byteLength":11136,
			"byteOffset":176320,
			"target":34963
		}
	],
	"samplers":[
		{
			"magFilter":9729,
			"minFilter":9987
		}
	],
	"buffers":[
		{
			"byteLength":187456,
			"uri":"Pillow.bin"
		}
	]
}
