{
	"asset":{
		"generator":"Khronos glTF Blender I/O v4.3.47",
		"version":"2.0"
	},
	"scene":0,
	"scenes":[
		{
			"name":"Scene",
			"nodes":[
				0
			]
		}
	],
	"nodes":[
		{
			"mesh":0,
			"name":"Sphere",
			"scale":[
				2.50342059135437,
				2.50342059135437,
				2.50342059135437
			]
		}
	],
	"materials":[
		{
			"doubleSided":true,
			"name":"Material.001",
			"normalTexture":{
				"index":0
			},
			"pbrMetallicRoughness":{
				"baseColorTexture":{
					"index":1
				},
				"metallicFactor":0,
				"roughnessFactor":0.5
			}
		}
	],
	"meshes":[
		{
			"name":"Sphere.002",
			"primitives":[
				{
					"attributes":{
						"POSITION":0,
						"NORMAL":1,
						"TEXCOORD_0":2
					},
					"indices":3,
					"material":0
				}
			]
		}
	],
	"textures":[
		{
			"sampler":0,
			"source":0
		},
		{
			"sampler":0,
			"source":0
		}
	],
	"images":[
		{
			"mimeType":"image/jpeg",
			"name":"rock",
			"uri":"rock.jpg"
		}
	],
	"accessors":[
		{
			"bufferView":0,
			"componentType":5126,
			"count":13049,
			"max":[
				1.4877831935882568,
				1.3891466856002808,
				1.4596163034439087
			],
			"min":[
				-1.1735116243362427,
				-0.9932180643081665,
				-1.4841970205307007
			],
			"type":"VEC3"
		},
		{
			"bufferView":1,
			"componentType":5126,
			"count":13049,
			"type":"VEC3"
		},
		{
			"bufferView":2,
			"componentType":5126,
			"count":13049,
			"type":"VEC2"
		},
		{
			"bufferView":3,
			"componentType":5123,
			"count":19788,
			"type":"SCALAR"
		}
	],
	"bufferViews":[
		{
			"buffer":0,
			"byteLength":156588,
			"byteOffset":0,
			"target":34962
		},
		{
			"buffer":0,
			"byteLength":156588,
			"byteOffset":156588,
			"target":34962
		},
		{
			"buffer":0,
			"byteLength":104392,
			"byteOffset":313176,
			"target":34962
		},
		{
			"buffer":0,
			"byteLength":39576,
			"byteOffset":417568,
			"target":34963
		}
	],
	"samplers":[
		{
			"magFilter":9729,
			"minFilter":9987
		}
	],
	"buffers":[
		{
			"byteLength":457144,
			"uri":"Rock2.bin"
		}
	]
}
