{
	"asset":{
		"generator":"Khronos glTF Blender I/O v4.3.47",
		"version":"2.0"
	},
	"scene":0,
	"scenes":[
		{
			"name":"Scene",
			"nodes":[
				0
			]
		}
	],
	"nodes":[
		{
			"mesh":0,
			"name":"Sphere",
			"scale":[
				2.50342059135437,
				2.50342059135437,
				2.50342059135437
			]
		}
	],
	"materials":[
		{
			"doubleSided":true,
			"name":"Material.001",
			"pbrMetallicRoughness":{
				"baseColorTexture":{
					"index":0
				},
				"metallicFactor":0,
				"roughnessFactor":0.5
			}
		}
	],
	"meshes":[
		{
			"name":"Sphere.002",
			"primitives":[
				{
					"attributes":{
						"POSITION":0,
						"NORMAL":1,
						"TEXCOORD_0":2
					},
					"indices":3,
					"material":0
				}
			]
		}
	],
	"textures":[
		{
			"sampler":0,
			"source":0
		}
	],
	"images":[
		{
			"mimeType":"image/jpeg",
			"name":"rock",
			"uri":"rock.jpg"
		}
	],
	"accessors":[
		{
			"bufferView":0,
			"componentType":5126,
			"count":1944,
			"max":[
				1.5038472414016724,
				1.4073482751846313,
				1.463710069656372
			],
			"min":[
				-1.1775130033493042,
				-1,
				-1.4907560348510742
			],
			"type":"VEC3"
		},
		{
			"bufferView":1,
			"componentType":5126,
			"count":1944,
			"type":"VEC3"
		},
		{
			"bufferView":2,
			"componentType":5126,
			"count":1944,
			"type":"VEC2"
		},
		{
			"bufferView":3,
			"componentType":5123,
			"count":2070,
			"type":"SCALAR"
		}
	],
	"bufferViews":[
		{
			"buffer":0,
			"byteLength":23328,
			"byteOffset":0,
			"target":34962
		},
		{
			"buffer":0,
			"byteLength":23328,
			"byteOffset":23328,
			"target":34962
		},
		{
			"buffer":0,
			"byteLength":15552,
			"byteOffset":46656,
			"target":34962
		},
		{
			"buffer":0,
			"byteLength":4140,
			"byteOffset":62208,
			"target":34963
		}
	],
	"samplers":[
		{
			"magFilter":9729,
			"minFilter":9987
		}
	],
	"buffers":[
		{
			"byteLength":66348,
			"uri":"Rock.bin"
		}
	]
}
