{
	"asset":{
		"generator":"Khronos glTF Blender I/O v4.3.47",
		"version":"2.0"
	},
	"scene":0,
	"scenes":[
		{
			"name":"Scene",
			"nodes":[
				0,
				1,
				2
			]
		}
	],
	"nodes":[
		{
			"mesh":0,
			"name":"Cylinder",
			"rotation":[
				0,
				0,
				0.7071068286895752,
				0.7071068286895752
			],
			"scale":[
				0.6963008642196655,
				0.6963008642196655,
				0.6963008642196655
			],
			"translation":[
				1.1539709568023682,
				0,
				-0.08049562573432922
			]
		},
		{
			"mesh":1,
			"name":"Cylinder.001",
			"rotation":[
				0.7071068286895752,
				0.7071068286895752,
				0,
				0
			],
			"scale":[
				-0.4495227038860321,
				-0.21601834893226624,
				-0.4495227038860321
			],
			"translation":[
				-1.112450361251831,
				0,
				-0.07012373954057693
			]
		},
		{
			"mesh":2,
			"name":"Cylinder.002",
			"rotation":[
				0,
				0,
				-0.7071068286895752,
				0.7071068286895752
			],
			"scale":[
				0.19228315353393555,
				0.19228315353393555,
				0.19228315353393555
			],
			"translation":[
				-1.551525592803955,
				0,
				-0.0716286450624466
			]
		}
	],
	"materials":[
		{
			"alphaMode":"BLEND",
			"doubleSided":true,
			"name":"Fullbody",
			"pbrMetallicRoughness":{
				"baseColorFactor":[
					0.800000011920929,
					0.800000011920929,
					0.800000011920929,
					0.800000011920929
				],
				"metallicFactor":0.22272726893424988,
				"roughnessFactor":0.12272727489471436
			}
		},
		{
			"doubleSided":true,
			"name":"Material.001",
			"pbrMetallicRoughness":{
				"baseColorFactor":[
					1,
					0.4300234913825989,
					0.031550031155347824,
					1
				],
				"metallicFactor":0.7978982925415039,
				"roughnessFactor":0.16666699945926666
			}
		},
		{
			"doubleSided":true,
			"name":"Tip",
			"pbrMetallicRoughness":{
				"baseColorFactor":[
					0.009253941476345062,
					0.009253941476345062,
					0.009253941476345062,
					1
				],
				"metallicFactor":0,
				"roughnessFactor":0.6000000238418579
			}
		}
	],
	"meshes":[
		{
			"name":"Cylinder",
			"primitives":[
				{
					"attributes":{
						"POSITION":0,
						"NORMAL":1,
						"TEXCOORD_0":2
					},
					"indices":3,
					"material":0
				}
			]
		},
		{
			"name":"Cylinder.002",
			"primitives":[
				{
					"attributes":{
						"POSITION":4,
						"NORMAL":5,
						"TEXCOORD_0":6
					},
					"indices":7,
					"material":1
				}
			]
		},
		{
			"name":"Cylinder.003",
			"primitives":[
				{
					"attributes":{
						"POSITION":8,
						"NORMAL":9,
						"TEXCOORD_0":10
					},
					"indices":11,
					"material":2
				}
			]
		}
	],
	"accessors":[
		{
			"bufferView":0,
			"componentType":5126,
			"count":1033,
			"max":[
				1,
				3.048884391784668,
				1
			],
			"min":[
				-1,
				-1.467336654663086,
				-1
			],
			"type":"VEC3"
		},
		{
			"bufferView":1,
			"componentType":5126,
			"count":1033,
			"type":"VEC3"
		},
		{
			"bufferView":2,
			"componentType":5126,
			"count":1033,
			"type":"VEC2"
		},
		{
			"bufferView":3,
			"componentType":5123,
			"count":3636,
			"type":"SCALAR"
		},
		{
			"bufferView":4,
			"componentType":5126,
			"count":1154,
			"max":[
				1,
				1,
				1
			],
			"min":[
				-1,
				-1,
				-1
			],
			"type":"VEC3"
		},
		{
			"bufferView":5,
			"componentType":5126,
			"count":1154,
			"type":"VEC3"
		},
		{
			"bufferView":6,
			"componentType":5126,
			"count":1154,
			"type":"VEC2"
		},
		{
			"bufferView":7,
			"componentType":5123,
			"count":4212,
			"type":"SCALAR"
		},
		{
			"bufferView":8,
			"componentType":5126,
			"count":328,
			"max":[
				1.1307308673858643,
				1.1582558155059814,
				1.1307308673858643
			],
			"min":[
				-1.1307308673858643,
				-2.514566421508789,
				-1.1307308673858643
			],
			"type":"VEC3"
		},
		{
			"bufferView":9,
			"componentType":5126,
			"count":328,
			"type":"VEC3"
		},
		{
			"bufferView":10,
			"componentType":5126,
			"count":328,
			"type":"VEC2"
		},
		{
			"bufferView":11,
			"componentType":5123,
			"count":1524,
			"type":"SCALAR"
		}
	],
	"bufferViews":[
		{
			"buffer":0,
			"byteLength":12396,
			"byteOffset":0,
			"target":34962
		},
		{
			"buffer":0,
			"byteLength":12396,
			"byteOffset":12396,
			"target":34962
		},
		{
			"buffer":0,
			"byteLength":8264,
			"byteOffset":24792,
			"target":34962
		},
		{
			"buffer":0,
			"byteLength":7272,
			"byteOffset":33056,
			"target":34963
		},
		{
			"buffer":0,
			"byteLength":13848,
			"byteOffset":40328,
			"target":34962
		},
		{
			"buffer":0,
			"byteLength":13848,
			"byteOffset":54176,
			"target":34962
		},
		{
			"buffer":0,
			"byteLength":9232,
			"byteOffset":68024,
			"target":34962
		},
		{
			"buffer":0,
			"byteLength":8424,
			"byteOffset":77256,
			"target":34963
		},
		{
			"buffer":0,
			"byteLength":3936,
			"byteOffset":85680,
			"target":34962
		},
		{
			"buffer":0,
			"byteLength":3936,
			"byteOffset":89616,
			"target":34962
		},
		{
			"buffer":0,
			"byteLength":2624,
			"byteOffset":93552,
			"target":34962
		},
		{
			"buffer":0,
			"byteLength":3048,
			"byteOffset":96176,
			"target":34963
		}
	],
	"buffers":[
		{
			"byteLength":99224,
			"uri":"SerumBottle3.bin"
		}
	]
}
