{
	"asset":{
		"generator":"Khronos glTF Blender I/O v4.3.47",
		"version":"2.0"
	},
	"scene":0,
	"scenes":[
		{
			"name":"Scene",
			"nodes":[
				2
			]
		}
	],
	"nodes":[
		{
			"mesh":0,
			"name":"Cylinder.001",
			"rotation":[
				1,
				0,
				0,
				4.371135275960114e-08
			],
			"scale":[
				-0.6455869078636169,
				-0.3102370798587799,
				-0.6455869078636169
			],
			"translation":[
				0,
				3.2549455165863037,
				0.014895555563271046
			]
		},
		{
			"mesh":1,
			"name":"Cylinder.002",
			"rotation":[
				0,
				0,
				-1,
				7.549789415861596e-08
			],
			"scale":[
				0.27614954113960266,
				0.27614954113960266,
				0.27614954113960266
			],
			"translation":[
				0,
				3.8855278491973877,
				0.012734240852296352
			]
		},
		{
			"children":[
				0,
				1
			],
			"mesh":2,
			"name":"Cylinder",
			"rotation":[
				0,
				0.7071068286895752,
				0,
				0.7071068286895752
			],
			"scale":[
				0.9953536987304688,
				0.9953536987304688,
				0.9953536987304688
			],
			"translation":[
				0,
				-0.8132697343826294,
				0
			]
		}
	],
	"materials":[
		{
			"doubleSided":true,
			"name":"Material.001",
			"pbrMetallicRoughness":{
				"baseColorFactor":[
					1,
					0.4300234913825989,
					0.031550031155347824,
					1
				],
				"metallicFactor":0.7978982925415039,
				"roughnessFactor":0.16666699945926666
			}
		},
		{
			"doubleSided":true,
			"name":"Tip",
			"pbrMetallicRoughness":{
				"baseColorFactor":[
					0.009253941476345062,
					0.009253941476345062,
					0.009253941476345062,
					1
				],
				"metallicFactor":0,
				"roughnessFactor":0.6000000238418579
			}
		},
		{
			"alphaMode":"BLEND",
			"doubleSided":true,
			"name":"Bottom",
			"pbrMetallicRoughness":{
				"baseColorFactor":[
					0.3575083315372467,
					0.20263934135437012,
					0.015880322083830833,
					0.5647604465484619
				],
				"metallicFactor":0.7558162212371826,
				"roughnessFactor":0.12727272510528564
			}
		}
	],
	"meshes":[
		{
			"name":"Cylinder.002",
			"primitives":[
				{
					"attributes":{
						"POSITION":0,
						"NORMAL":1,
						"TEXCOORD_0":2
					},
					"indices":3,
					"material":0
				}
			]
		},
		{
			"name":"Cylinder.003",
			"primitives":[
				{
					"attributes":{
						"POSITION":4,
						"NORMAL":5,
						"TEXCOORD_0":6
					},
					"indices":7,
					"material":1
				}
			]
		},
		{
			"name":"Cylinder",
			"primitives":[
				{
					"attributes":{
						"POSITION":8,
						"NORMAL":9,
						"TEXCOORD_0":10
					},
					"indices":11,
					"material":2
				}
			]
		}
	],
	"accessors":[
		{
			"bufferView":0,
			"componentType":5126,
			"count":1154,
			"max":[
				1,
				1,
				1
			],
			"min":[
				-1,
				-1,
				-1
			],
			"type":"VEC3"
		},
		{
			"bufferView":1,
			"componentType":5126,
			"count":1154,
			"type":"VEC3"
		},
		{
			"bufferView":2,
			"componentType":5126,
			"count":1154,
			"type":"VEC2"
		},
		{
			"bufferView":3,
			"componentType":5123,
			"count":4212,
			"type":"SCALAR"
		},
		{
			"bufferView":4,
			"componentType":5126,
			"count":328,
			"max":[
				1.1307308673858643,
				1.1582558155059814,
				1.1307308673858643
			],
			"min":[
				-1.1307308673858643,
				-2.514566421508789,
				-1.1307308673858643
			],
			"type":"VEC3"
		},
		{
			"bufferView":5,
			"componentType":5126,
			"count":328,
			"type":"VEC3"
		},
		{
			"bufferView":6,
			"componentType":5126,
			"count":328,
			"type":"VEC2"
		},
		{
			"bufferView":7,
			"componentType":5123,
			"count":1524,
			"type":"SCALAR"
		},
		{
			"bufferView":8,
			"componentType":5126,
			"count":1033,
			"max":[
				1,
				3.048884391784668,
				1
			],
			"min":[
				-1,
				-1.467336654663086,
				-1
			],
			"type":"VEC3"
		},
		{
			"bufferView":9,
			"componentType":5126,
			"count":1033,
			"type":"VEC3"
		},
		{
			"bufferView":10,
			"componentType":5126,
			"count":1033,
			"type":"VEC2"
		},
		{
			"bufferView":11,
			"componentType":5123,
			"count":3636,
			"type":"SCALAR"
		}
	],
	"bufferViews":[
		{
			"buffer":0,
			"byteLength":13848,
			"byteOffset":0,
			"target":34962
		},
		{
			"buffer":0,
			"byteLength":13848,
			"byteOffset":13848,
			"target":34962
		},
		{
			"buffer":0,
			"byteLength":9232,
			"byteOffset":27696,
			"target":34962
		},
		{
			"buffer":0,
			"byteLength":8424,
			"byteOffset":36928,
			"target":34963
		},
		{
			"buffer":0,
			"byteLength":3936,
			"byteOffset":45352,
			"target":34962
		},
		{
			"buffer":0,
			"byteLength":3936,
			"byteOffset":49288,
			"target":34962
		},
		{
			"buffer":0,
			"byteLength":2624,
			"byteOffset":53224,
			"target":34962
		},
		{
			"buffer":0,
			"byteLength":3048,
			"byteOffset":55848,
			"target":34963
		},
		{
			"buffer":0,
			"byteLength":12396,
			"byteOffset":58896,
			"target":34962
		},
		{
			"buffer":0,
			"byteLength":12396,
			"byteOffset":71292,
			"target":34962
		},
		{
			"buffer":0,
			"byteLength":8264,
			"byteOffset":83688,
			"target":34962
		},
		{
			"buffer":0,
			"byteLength":7272,
			"byteOffset":91952,
			"target":34963
		}
	],
	"buffers":[
		{
			"byteLength":99224,
			"uri":"SerumBottle14.bin"
		}
	]
}
