{
	"asset":{
		"generator":"Khronos glTF Blender I/O v4.3.47",
		"version":"2.0"
	},
	"scene":0,
	"scenes":[
		{
			"name":"Scene",
			"nodes":[
				2
			]
		}
	],
	"nodes":[
		{
			"mesh":0,
			"name":"Cube.001",
			"rotation":[
				0,
				0,
				-0.7071067094802856,
				0.7071068286895752
			],
			"scale":[
				1.0831787586212158,
				0.5273205041885376,
				1.0303314924240112
			],
			"translation":[
				-0.53089839220047,
				0,
				0
			]
		},
		{
			"mesh":1,
			"name":"Cube.002",
			"rotation":[
				0,
				0,
				0.7071068286895752,
				0.7071068286895752
			],
			"scale":[
				1.0831787586212158,
				0.5273205041885376,
				1.0303314924240112
			],
			"translation":[
				0.5634921193122864,
				0,
				0
			]
		},
		{
			"children":[
				0,
				1
			],
			"mesh":2,
			"name":"Cube",
			"rotation":[
				0.08962060511112213,
				0.7014043927192688,
				-0.08962060511112213,
				0.7014043927192688
			],
			"scale":[
				1.8271979093551636,
				0.935154139995575,
				2.8481009006500244
			]
		}
	],
	"animations":[
		{
			"channels":[
				{
					"sampler":0,
					"target":{
						"node":0,
						"path":"translation"
					}
				}
			],
			"name":"Cube.001Action",
			"samplers":[
				{
					"input":46,
					"interpolation":"LINEAR",
					"output":47
				}
			]
		},
		{
			"channels":[
				{
					"sampler":0,
					"target":{
						"node":1,
						"path":"translation"
					}
				}
			],
			"name":"Cube.002Action.003",
			"samplers":[
				{
					"input":48,
					"interpolation":"LINEAR",
					"output":49
				}
			]
		}
	],
	"materials":[
		{
			"doubleSided":true,
			"name":"Material.002",
			"pbrMetallicRoughness":{
				"baseColorFactor":[
					0.800000011920929,
					0.800000011920929,
					0.800000011920929,
					1
				],
				"metallicFactor":0,
				"roughnessFactor":0.5
			}
		},
		{
			"doubleSided":true,
			"name":"Front",
			"pbrMetallicRoughness":{
				"baseColorTexture":{
					"index":0
				},
				"metallicFactor":0,
				"roughnessFactor":0.5
			}
		},
		{
			"doubleSided":true,
			"name":"Back",
			"pbrMetallicRoughness":{
				"baseColorTexture":{
					"index":1
				},
				"metallicFactor":0,
				"roughnessFactor":0.5
			}
		},
		{
			"doubleSided":true,
			"name":"Top",
			"pbrMetallicRoughness":{
				"baseColorTexture":{
					"index":2
				},
				"metallicFactor":0,
				"roughnessFactor":0.5
			}
		},
		{
			"doubleSided":true,
			"name":"Bottom",
			"pbrMetallicRoughness":{
				"baseColorTexture":{
					"index":3
				},
				"metallicFactor":0,
				"roughnessFactor":0.5
			}
		},
		{
			"doubleSided":true,
			"name":"Left",
			"pbrMetallicRoughness":{
				"baseColorTexture":{
					"index":4
				},
				"metallicFactor":0,
				"roughnessFactor":0.5
			}
		},
		{
			"doubleSided":true,
			"name":"fullbody",
			"pbrMetallicRoughness":{
				"baseColorFactor":[
					0.800000011920929,
					0.800000011920929,
					0.800000011920929,
					1
				],
				"metallicFactor":0,
				"roughnessFactor":0.5
			}
		},
		{
			"doubleSided":true,
			"name":"Right",
			"pbrMetallicRoughness":{
				"baseColorTexture":{
					"index":5
				},
				"metallicFactor":0,
				"roughnessFactor":0.5
			}
		},
		{
			"doubleSided":true,
			"name":"Inner",
			"pbrMetallicRoughness":{
				"baseColorTexture":{
					"index":6
				},
				"metallicFactor":0,
				"roughnessFactor":0.5
			}
		}
	],
	"meshes":[
		{
			"name":"Cube.002",
			"primitives":[
				{
					"attributes":{
						"POSITION":0,
						"NORMAL":1,
						"TEXCOORD_0":2
					},
					"indices":3,
					"material":0
				},
				{
					"attributes":{
						"POSITION":4,
						"NORMAL":5,
						"TEXCOORD_0":6
					},
					"indices":7,
					"material":1
				},
				{
					"attributes":{
						"POSITION":8,
						"NORMAL":9,
						"TEXCOORD_0":10
					},
					"indices":11,
					"material":2
				},
				{
					"attributes":{
						"POSITION":12,
						"NORMAL":13,
						"TEXCOORD_0":14
					},
					"indices":11,
					"material":3
				},
				{
					"attributes":{
						"POSITION":15,
						"NORMAL":16,
						"TEXCOORD_0":17
					},
					"indices":7,
					"material":4
				},
				{
					"attributes":{
						"POSITION":18,
						"NORMAL":19,
						"TEXCOORD_0":20
					},
					"indices":21,
					"material":5
				}
			]
		},
		{
			"name":"Cube.003",
			"primitives":[
				{
					"attributes":{
						"POSITION":22,
						"NORMAL":23,
						"TEXCOORD_0":24
					},
					"indices":25,
					"material":6
				},
				{
					"attributes":{
						"POSITION":26,
						"NORMAL":27,
						"TEXCOORD_0":28
					},
					"indices":7,
					"material":3
				},
				{
					"attributes":{
						"POSITION":29,
						"NORMAL":30,
						"TEXCOORD_0":31
					},
					"indices":32,
					"material":4
				},
				{
					"attributes":{
						"POSITION":33,
						"NORMAL":34,
						"TEXCOORD_0":35
					},
					"indices":7,
					"material":1
				},
				{
					"attributes":{
						"POSITION":36,
						"NORMAL":37,
						"TEXCOORD_0":38
					},
					"indices":11,
					"material":2
				},
				{
					"attributes":{
						"POSITION":39,
						"NORMAL":40,
						"TEXCOORD_0":41
					},
					"indices":21,
					"material":7
				}
			]
		},
		{
			"name":"Cube.001",
			"primitives":[
				{
					"attributes":{
						"POSITION":42,
						"NORMAL":43,
						"TEXCOORD_0":44
					},
					"indices":45,
					"material":8
				}
			]
		}
	],
	"textures":[
		{
			"sampler":0,
			"source":0
		},
		{
			"sampler":0,
			"source":0
		},
		{
			"sampler":0,
			"source":0
		},
		{
			"sampler":0,
			"source":0
		},
		{
			"sampler":0,
			"source":0
		},
		{
			"sampler":0,
			"source":0
		},
		{
			"sampler":0,
			"source":1
		}
	],
	"images":[
		{
			"mimeType":"image/jpeg",
			"name":"Poliigon_StoneQuartzite_8060_BaseColor",
			"uri":"Poliigon_StoneQuartzite_8060_BaseColor.jpg"
		},
		{
			"mimeType":"image/jpeg",
			"name":"tina-dawson-Kim9COAIEGc-unsplash",
			"uri":"tina-dawson-Kim9COAIEGc-unsplash.jpg"
		}
	],
	"accessors":[
		{
			"bufferView":0,
			"componentType":5126,
			"count":986,
			"max":[
				1.0399690866470337,
				1,
				1.0399692058563232
			],
			"min":[
				-1.0399690866470337,
				-1.0399365425109863,
				-1.0399692058563232
			],
			"type":"VEC3"
		},
		{
			"bufferView":1,
			"componentType":5126,
			"count":986,
			"type":"VEC3"
		},
		{
			"bufferView":2,
			"componentType":5126,
			"count":986,
			"type":"VEC2"
		},
		{
			"bufferView":3,
			"componentType":5123,
			"count":4854,
			"type":"SCALAR"
		},
		{
			"bufferView":4,
			"componentType":5126,
			"count":4,
			"max":[
				0.9979767799377441,
				1,
				1.0399692058563232
			],
			"min":[
				-0.9979766607284546,
				-0.9979754090309143,
				1.0399365425109863
			],
			"type":"VEC3"
		},
		{
			"bufferView":5,
			"componentType":5126,
			"count":4,
			"type":"VEC3"
		},
		{
			"bufferView":6,
			"componentType":5126,
			"count":4,
			"type":"VEC2"
		},
		{
			"bufferView":7,
			"componentType":5123,
			"count":6,
			"type":"SCALAR"
		},
		{
			"bufferView":8,
			"componentType":5126,
			"count":4,
			"max":[
				0.9979766607284546,
				1,
				-1.0399365425109863
			],
			"min":[
				-0.9979767799377441,
				-0.9979754090309143,
				-1.0399692058563232
			],
			"type":"VEC3"
		},
		{
			"bufferView":9,
			"componentType":5126,
			"count":4,
			"type":"VEC3"
		},
		{
			"bufferView":10,
			"componentType":5126,
			"count":4,
			"type":"VEC2"
		},
		{
			"bufferView":11,
			"componentType":5123,
			"count":6,
			"type":"SCALAR"
		},
		{
			"bufferView":12,
			"componentType":5126,
			"count":4,
			"max":[
				-1.0399365425109863,
				1,
				0.9979760646820068
			],
			"min":[
				-1.0399690866470337,
				-0.9979767203330994,
				-0.9979761242866516
			],
			"type":"VEC3"
		},
		{
			"bufferView":13,
			"componentType":5126,
			"count":4,
			"type":"VEC3"
		},
		{
			"bufferView":14,
			"componentType":5126,
			"count":4,
			"type":"VEC2"
		},
		{
			"bufferView":15,
			"componentType":5126,
			"count":4,
			"max":[
				1.0399690866470337,
				1,
				0.9979761242866516
			],
			"min":[
				1.0399365425109863,
				-0.9979767203330994,
				-0.9979760646820068
			],
			"type":"VEC3"
		},
		{
			"bufferView":16,
			"componentType":5126,
			"count":4,
			"type":"VEC3"
		},
		{
			"bufferView":17,
			"componentType":5126,
			"count":4,
			"type":"VEC2"
		},
		{
			"bufferView":18,
			"componentType":5126,
			"count":4,
			"max":[
				0.9979754090309143,
				-1.0399365425109863,
				0.9979767203330994
			],
			"min":[
				-0.9979754090309143,
				-1.0399365425109863,
				-0.9979767203330994
			],
			"type":"VEC3"
		},
		{
			"bufferView":19,
			"componentType":5126,
			"count":4,
			"type":"VEC3"
		},
		{
			"bufferView":20,
			"componentType":5126,
			"count":4,
			"type":"VEC2"
		},
		{
			"bufferView":21,
			"componentType":5123,
			"count":6,
			"type":"SCALAR"
		},
		{
			"bufferView":22,
			"componentType":5126,
			"count":1324,
			"max":[
				1.0399786233901978,
				1,
				1.0399786233901978
			],
			"min":[
				-1.0399786233901978,
				-1.0399562120437622,
				-1.0399786233901978
			],
			"type":"VEC3"
		},
		{
			"bufferView":23,
			"componentType":5126,
			"count":1324,
			"type":"VEC3"
		},
		{
			"bufferView":24,
			"componentType":5126,
			"count":1324,
			"type":"VEC2"
		},
		{
			"bufferView":25,
			"componentType":5123,
			"count":6690,
			"type":"SCALAR"
		},
		{
			"bufferView":26,
			"componentType":5126,
			"count":4,
			"max":[
				1.0399786233901978,
				1,
				0.9924289584159851
			],
			"min":[
				1.0399562120437622,
				-0.9924284815788269,
				-0.9924282431602478
			],
			"type":"VEC3"
		},
		{
			"bufferView":27,
			"componentType":5126,
			"count":4,
			"type":"VEC3"
		},
		{
			"bufferView":28,
			"componentType":5126,
			"count":4,
			"type":"VEC2"
		},
		{
			"bufferView":29,
			"componentType":5126,
			"count":9,
			"max":[
				-1.0399562120437622,
				1,
				0.9924282431602478
			],
			"min":[
				-1.0399786233901978,
				-0.9924284815788269,
				-0.9924289584159851
			],
			"type":"VEC3"
		},
		{
			"bufferView":30,
			"componentType":5126,
			"count":9,
			"type":"VEC3"
		},
		{
			"bufferView":31,
			"componentType":5126,
			"count":9,
			"type":"VEC2"
		},
		{
			"bufferView":32,
			"componentType":5123,
			"count":24,
			"type":"SCALAR"
		},
		{
			"bufferView":33,
			"componentType":5126,
			"count":4,
			"max":[
				0.992428719997406,
				1,
				1.0399786233901978
			],
			"min":[
				-0.992428719997406,
				-0.9924293160438538,
				1.0399560928344727
			],
			"type":"VEC3"
		},
		{
			"bufferView":34,
			"componentType":5126,
			"count":4,
			"type":"VEC3"
		},
		{
			"bufferView":35,
			"componentType":5126,
			"count":4,
			"type":"VEC2"
		},
		{
			"bufferView":36,
			"componentType":5126,
			"count":4,
			"max":[
				0.992428719997406,
				1,
				-1.0399560928344727
			],
			"min":[
				-0.992428719997406,
				-0.9924293160438538,
				-1.0399786233901978
			],
			"type":"VEC3"
		},
		{
			"bufferView":37,
			"componentType":5126,
			"count":4,
			"type":"VEC3"
		},
		{
			"bufferView":38,
			"componentType":5126,
			"count":4,
			"type":"VEC2"
		},
		{
			"bufferView":39,
			"componentType":5126,
			"count":4,
			"max":[
				0.9924293160438538,
				-1.0399560928344727,
				0.9924284815788269
			],
			"min":[
				-0.9924293160438538,
				-1.0399562120437622,
				-0.9924284815788269
			],
			"type":"VEC3"
		},
		{
			"bufferView":40,
			"componentType":5126,
			"count":4,
			"type":"VEC3"
		},
		{
			"bufferView":41,
			"componentType":5126,
			"count":4,
			"type":"VEC2"
		},
		{
			"bufferView":42,
			"componentType":5126,
			"count":8226,
			"max":[
				1,
				1,
				1
			],
			"min":[
				-1,
				-1,
				-1
			],
			"type":"VEC3"
		},
		{
			"bufferView":43,
			"componentType":5126,
			"count":8226,
			"type":"VEC3"
		},
		{
			"bufferView":44,
			"componentType":5126,
			"count":8226,
			"type":"VEC2"
		},
		{
			"bufferView":45,
			"componentType":5123,
			"count":12516,
			"type":"SCALAR"
		},
		{
			"bufferView":46,
			"componentType":5126,
			"count":25,
			"max":[
				1.0416666666666667
			],
			"min":[
				0.041666666666666664
			],
			"type":"SCALAR"
		},
		{
			"bufferView":47,
			"componentType":5126,
			"count":25,
			"type":"VEC3"
		},
		{
			"bufferView":48,
			"componentType":5126,
			"count":26,
			"max":[
				1.0416666666666667
			],
			"min":[
				0
			],
			"type":"SCALAR"
		},
		{
			"bufferView":49,
			"componentType":5126,
			"count":26,
			"type":"VEC3"
		}
	],
	"bufferViews":[
		{
			"buffer":0,
			"byteLength":11832,
			"byteOffset":0,
			"target":34962
		},
		{
			"buffer":0,
			"byteLength":11832,
			"byteOffset":11832,
			"target":34962
		},
		{
			"buffer":0,
			"byteLength":7888,
			"byteOffset":23664,
			"target":34962
		},
		{
			"buffer":0,
			"byteLength":9708,
			"byteOffset":31552,
			"target":34963
		},
		{
			"buffer":0,
			"byteLength":48,
			"byteOffset":41260,
			"target":34962
		},
		{
			"buffer":0,
			"byteLength":48,
			"byteOffset":41308,
			"target":34962
		},
		{
			"buffer":0,
			"byteLength":32,
			"byteOffset":41356,
			"target":34962
		},
		{
			"buffer":0,
			"byteLength":12,
			"byteOffset":41388,
			"target":34963
		},
		{
			"buffer":0,
			"byteLength":48,
			"byteOffset":41400,
			"target":34962
		},
		{
			"buffer":0,
			"byteLength":48,
			"byteOffset":41448,
			"target":34962
		},
		{
			"buffer":0,
			"byteLength":32,
			"byteOffset":41496,
			"target":34962
		},
		{
			"buffer":0,
			"byteLength":12,
			"byteOffset":41528,
			"target":34963
		},
		{
			"buffer":0,
			"byteLength":48,
			"byteOffset":41540,
			"target":34962
		},
		{
			"buffer":0,
			"byteLength":48,
			"byteOffset":41588,
			"target":34962
		},
		{
			"buffer":0,
			"byteLength":32,
			"byteOffset":41636,
			"target":34962
		},
		{
			"buffer":0,
			"byteLength":48,
			"byteOffset":41668,
			"target":34962
		},
		{
			"buffer":0,
			"byteLength":48,
			"byteOffset":41716,
			"target":34962
		},
		{
			"buffer":0,
			"byteLength":32,
			"byteOffset":41764,
			"target":34962
		},
		{
			"buffer":0,
			"byteLength":48,
			"byteOffset":41796,
			"target":34962
		},
		{
			"buffer":0,
			"byteLength":48,
			"byteOffset":41844,
			"target":34962
		},
		{
			"buffer":0,
			"byteLength":32,
			"byteOffset":41892,
			"target":34962
		},
		{
			"buffer":0,
			"byteLength":12,
			"byteOffset":41924,
			"target":34963
		},
		{
			"buffer":0,
			"byteLength":15888,
			"byteOffset":41936,
			"target":34962
		},
		{
			"buffer":0,
			"byteLength":15888,
			"byteOffset":57824,
			"target":34962
		},
		{
			"buffer":0,
			"byteLength":10592,
			"byteOffset":73712,
			"target":34962
		},
		{
			"buffer":0,
			"byteLength":13380,
			"byteOffset":84304,
			"target":34963
		},
		{
			"buffer":0,
			"byteLength":48,
			"byteOffset":97684,
			"target":34962
		},
		{
			"buffer":0,
			"byteLength":48,
			"byteOffset":97732,
			"target":34962
		},
		{
			"buffer":0,
			"byteLength":32,
			"byteOffset":97780,
			"target":34962
		},
		{
			"buffer":0,
			"byteLength":108,
			"byteOffset":97812,
			"target":34962
		},
		{
			"buffer":0,
			"byteLength":108,
			"byteOffset":97920,
			"target":34962
		},
		{
			"buffer":0,
			"byteLength":72,
			"byteOffset":98028,
			"target":34962
		},
		{
			"buffer":0,
			"byteLength":48,
			"byteOffset":98100,
			"target":34963
		},
		{
			"buffer":0,
			"byteLength":48,
			"byteOffset":98148,
			"target":34962
		},
		{
			"buffer":0,
			"byteLength":48,
			"byteOffset":98196,
			"target":34962
		},
		{
			"buffer":0,
			"byteLength":32,
			"byteOffset":98244,
			"target":34962
		},
		{
			"buffer":0,
			"byteLength":48,
			"byteOffset":98276,
			"target":34962
		},
		{
			"buffer":0,
			"byteLength":48,
			"byteOffset":98324,
			"target":34962
		},
		{
			"buffer":0,
			"byteLength":32,
			"byteOffset":98372,
			"target":34962
		},
		{
			"buffer":0,
			"byteLength":48,
			"byteOffset":98404,
			"target":34962
		},
		{
			"buffer":0,
			"byteLength":48,
			"byteOffset":98452,
			"target":34962
		},
		{
			"buffer":0,
			"byteLength":32,
			"byteOffset":98500,
			"target":34962
		},
		{
			"buffer":0,
			"byteLength":98712,
			"byteOffset":98532,
			"target":34962
		},
		{
			"buffer":0,
			"byteLength":98712,
			"byteOffset":197244,
			"target":34962
		},
		{
			"buffer":0,
			"byteLength":65808,
			"byteOffset":295956,
			"target":34962
		},
		{
			"buffer":0,
			"byteLength":25032,
			"byteOffset":361764,
			"target":34963
		},
		{
			"buffer":0,
			"byteLength":100,
			"byteOffset":386796
		},
		{
			"buffer":0,
			"byteLength":300,
			"byteOffset":386896
		},
		{
			"buffer":0,
			"byteLength":104,
			"byteOffset":387196
		},
		{
			"buffer":0,
			"byteLength":312,
			"byteOffset":387300
		}
	],
	"samplers":[
		{
			"magFilter":9729,
			"minFilter":9987
		}
	],
	"buffers":[
		{
			"byteLength":387612,
			"uri":"TwoSideOpenBox.bin"
		}
	]
}
