{
	"asset":{
		"generator":"Khronos glTF Blender I/O v4.3.47",
		"version":"2.0"
	},
	"scene":0,
	"scenes":[
		{
			"name":"Scene",
			"nodes":[
				0
			]
		}
	],
	"nodes":[
		{
			"mesh":0,
			"name":"Plane",
			"scale":[
				1,
				1,
				2
			]
		}
	],
	"materials":[
		{
			"doubleSided":true,
			"name":"Base",
			"pbrMetallicRoughness":{
				"baseColorFactor":[
					0.800000011920929,
					0.800000011920929,
					0.800000011920929,
					1
				],
				"metallicFactor":0,
				"roughnessFactor":0.8225806355476379
			}
		},
		{
			"doubleSided":true,
			"name":"Front",
			"pbrMetallicRoughness":{
				"baseColorTexture":{
					"index":0
				},
				"metallicFactor":0,
				"roughnessFactor":0.5
			}
		},
		{
			"doubleSided":true,
			"name":"Back",
			"pbrMetallicRoughness":{
				"baseColorTexture":{
					"index":1
				},
				"metallicFactor":0,
				"roughnessFactor":0.5
			}
		},
		{
			"doubleSided":true,
			"name":"Left",
			"pbrMetallicRoughness":{
				"baseColorTexture":{
					"index":2
				},
				"metallicFactor":0,
				"roughnessFactor":0.5
			}
		},
		{
			"doubleSided":true,
			"name":"Right",
			"pbrMetallicRoughness":{
				"baseColorTexture":{
					"index":3
				},
				"metallicFactor":0,
				"roughnessFactor":0.5
			}
		},
		{
			"doubleSided":true,
			"name":"Bottom",
			"pbrMetallicRoughness":{
				"baseColorTexture":{
					"index":4
				},
				"metallicFactor":0,
				"roughnessFactor":0.5
			}
		}
	],
	"meshes":[
		{
			"name":"Plane",
			"primitives":[
				{
					"attributes":{
						"POSITION":0,
						"NORMAL":1,
						"TEXCOORD_0":2
					},
					"indices":3,
					"material":0
				},
				{
					"attributes":{
						"POSITION":4,
						"NORMAL":5,
						"TEXCOORD_0":6
					},
					"indices":7,
					"material":1
				},
				{
					"attributes":{
						"POSITION":8,
						"NORMAL":9,
						"TEXCOORD_0":10
					},
					"indices":11,
					"material":2
				},
				{
					"attributes":{
						"POSITION":12,
						"NORMAL":13,
						"TEXCOORD_0":14
					},
					"indices":15,
					"material":3
				},
				{
					"attributes":{
						"POSITION":16,
						"NORMAL":17,
						"TEXCOORD_0":18
					},
					"indices":19,
					"material":4
				},
				{
					"attributes":{
						"POSITION":20,
						"NORMAL":21,
						"TEXCOORD_0":22
					},
					"indices":23,
					"material":5
				}
			]
		}
	],
	"textures":[
		{
			"sampler":0,
			"source":0
		},
		{
			"sampler":0,
			"source":0
		},
		{
			"sampler":0,
			"source":0
		},
		{
			"sampler":0,
			"source":0
		},
		{
			"sampler":0,
			"source":0
		}
	],
	"images":[
		{
			"mimeType":"image/jpeg",
			"name":"CardBoard",
			"uri":"CardBoard.jpg"
		}
	],
	"accessors":[
		{
			"bufferView":0,
			"componentType":5126,
			"count":136,
			"max":[
				1.040414571762085,
				2.2316105365753174,
				1.0085967779159546
			],
			"min":[
				-1.040414571762085,
				0.040414512157440186,
				-1.0470643043518066
			],
			"type":"VEC3"
		},
		{
			"bufferView":1,
			"componentType":5126,
			"count":136,
			"type":"VEC3"
		},
		{
			"bufferView":2,
			"componentType":5126,
			"count":136,
			"type":"VEC2"
		},
		{
			"bufferView":3,
			"componentType":5123,
			"count":204,
			"type":"SCALAR"
		},
		{
			"bufferView":4,
			"componentType":5126,
			"count":4,
			"max":[
				1,
				0.6575857400894165,
				1
			],
			"min":[
				-1,
				0,
				1
			],
			"type":"VEC3"
		},
		{
			"bufferView":5,
			"componentType":5126,
			"count":4,
			"type":"VEC3"
		},
		{
			"bufferView":6,
			"componentType":5126,
			"count":4,
			"type":"VEC2"
		},
		{
			"bufferView":7,
			"componentType":5123,
			"count":6,
			"type":"SCALAR"
		},
		{
			"bufferView":8,
			"componentType":5126,
			"count":22,
			"max":[
				1.040414571762085,
				2.2119596004486084,
				-0.9366573691368103
			],
			"min":[
				-1.040414571762085,
				0,
				-1.0150142908096313
			],
			"type":"VEC3"
		},
		{
			"bufferView":9,
			"componentType":5126,
			"count":22,
			"type":"VEC3"
		},
		{
			"bufferView":10,
			"componentType":5126,
			"count":22,
			"type":"VEC2"
		},
		{
			"bufferView":11,
			"componentType":5123,
			"count":36,
			"type":"SCALAR"
		},
		{
			"bufferView":12,
			"componentType":5126,
			"count":22,
			"max":[
				1.0098259449005127,
				2.2238378524780273,
				1.0085967779159546
			],
			"min":[
				0.8888168931007385,
				0,
				-1.047041654586792
			],
			"type":"VEC3"
		},
		{
			"bufferView":13,
			"componentType":5126,
			"count":22,
			"type":"VEC3"
		},
		{
			"bufferView":14,
			"componentType":5126,
			"count":22,
			"type":"VEC2"
		},
		{
			"bufferView":15,
			"componentType":5123,
			"count":36,
			"type":"SCALAR"
		},
		{
			"bufferView":16,
			"componentType":5126,
			"count":22,
			"max":[
				-0.8968754410743713,
				2.223871946334839,
				1
			],
			"min":[
				-1.0098700523376465,
				0,
				-1.0470643043518066
			],
			"type":"VEC3"
		},
		{
			"bufferView":17,
			"componentType":5126,
			"count":22,
			"type":"VEC3"
		},
		{
			"bufferView":18,
			"componentType":5126,
			"count":22,
			"type":"VEC2"
		},
		{
			"bufferView":19,
			"componentType":5123,
			"count":36,
			"type":"SCALAR"
		},
		{
			"bufferView":20,
			"componentType":5126,
			"count":4,
			"max":[
				1,
				0,
				1
			],
			"min":[
				-1,
				0,
				-1
			],
			"type":"VEC3"
		},
		{
			"bufferView":21,
			"componentType":5126,
			"count":4,
			"type":"VEC3"
		},
		{
			"bufferView":22,
			"componentType":5126,
			"count":4,
			"type":"VEC2"
		},
		{
			"bufferView":23,
			"componentType":5123,
			"count":6,
			"type":"SCALAR"
		}
	],
	"bufferViews":[
		{
			"buffer":0,
			"byteLength":1632,
			"byteOffset":0,
			"target":34962
		},
		{
			"buffer":0,
			"byteLength":1632,
			"byteOffset":1632,
			"target":34962
		},
		{
			"buffer":0,
			"byteLength":1088,
			"byteOffset":3264,
			"target":34962
		},
		{
			"buffer":0,
			"byteLength":408,
			"byteOffset":4352,
			"target":34963
		},
		{
			"buffer":0,
			"byteLength":48,
			"byteOffset":4760,
			"target":34962
		},
		{
			"buffer":0,
			"byteLength":48,
			"byteOffset":4808,
			"target":34962
		},
		{
			"buffer":0,
			"byteLength":32,
			"byteOffset":4856,
			"target":34962
		},
		{
			"buffer":0,
			"byteLength":12,
			"byteOffset":4888,
			"target":34963
		},
		{
			"buffer":0,
			"byteLength":264,
			"byteOffset":4900,
			"target":34962
		},
		{
			"buffer":0,
			"byteLength":264,
			"byteOffset":5164,
			"target":34962
		},
		{
			"buffer":0,
			"byteLength":176,
			"byteOffset":5428,
			"target":34962
		},
		{
			"buffer":0,
			"byteLength":72,
			"byteOffset":5604,
			"target":34963
		},
		{
			"buffer":0,
			"byteLength":264,
			"byteOffset":5676,
			"target":34962
		},
		{
			"buffer":0,
			"byteLength":264,
			"byteOffset":5940,
			"target":34962
		},
		{
			"buffer":0,
			"byteLength":176,
			"byteOffset":6204,
			"target":34962
		},
		{
			"buffer":0,
			"byteLength":72,
			"byteOffset":6380,
			"target":34963
		},
		{
			"buffer":0,
			"byteLength":264,
			"byteOffset":6452,
			"target":34962
		},
		{
			"buffer":0,
			"byteLength":264,
			"byteOffset":6716,
			"target":34962
		},
		{
			"buffer":0,
			"byteLength":176,
			"byteOffset":6980,
			"target":34962
		},
		{
			"buffer":0,
			"byteLength":72,
			"byteOffset":7156,
			"target":34963
		},
		{
			"buffer":0,
			"byteLength":48,
			"byteOffset":7228,
			"target":34962
		},
		{
			"buffer":0,
			"byteLength":48,
			"byteOffset":7276,
			"target":34962
		},
		{
			"buffer":0,
			"byteLength":32,
			"byteOffset":7324,
			"target":34962
		},
		{
			"buffer":0,
			"byteLength":12,
			"byteOffset":7356,
			"target":34963
		}
	],
	"samplers":[
		{
			"magFilter":9729,
			"minFilter":9987
		}
	],
	"buffers":[
		{
			"byteLength":7368,
			"uri":"VisitingCardHolder2.bin"
		}
	]
}
