{
	"asset":{
		"generator":"Khronos glTF Blender I/O v4.3.47",
		"version":"2.0"
	},
	"scene":0,
	"scenes":[
		{
			"name":"Scene",
			"nodes":[
				0
			]
		}
	],
	"nodes":[
		{
			"mesh":0,
			"name":"Plane",
			"scale":[
				1,
				1,
				2
			]
		}
	],
	"materials":[
		{
			"doubleSided":true,
			"name":"Base",
			"pbrMetallicRoughness":{
				"baseColorFactor":[
					0.800000011920929,
					0.800000011920929,
					0.800000011920929,
					1
				],
				"metallicFactor":0,
				"roughnessFactor":0.8225806355476379
			}
		},
		{
			"doubleSided":true,
			"name":"Front",
			"pbrMetallicRoughness":{
				"baseColorTexture":{
					"index":0
				},
				"metallicFactor":0,
				"roughnessFactor":0.5
			}
		},
		{
			"doubleSided":true,
			"name":"Back",
			"pbrMetallicRoughness":{
				"baseColorTexture":{
					"index":1
				},
				"metallicFactor":0,
				"roughnessFactor":0.5
			}
		},
		{
			"doubleSided":true,
			"name":"Left",
			"pbrMetallicRoughness":{
				"baseColorTexture":{
					"index":2
				},
				"metallicFactor":0,
				"roughnessFactor":0.5
			}
		},
		{
			"doubleSided":true,
			"name":"Right",
			"pbrMetallicRoughness":{
				"baseColorTexture":{
					"index":3
				},
				"metallicFactor":0,
				"roughnessFactor":0.5
			}
		}
	],
	"meshes":[
		{
			"name":"Plane",
			"primitives":[
				{
					"attributes":{
						"POSITION":0,
						"NORMAL":1,
						"TEXCOORD_0":2
					},
					"indices":3,
					"material":0
				},
				{
					"attributes":{
						"POSITION":4,
						"NORMAL":5,
						"TEXCOORD_0":6
					},
					"indices":7,
					"material":1
				},
				{
					"attributes":{
						"POSITION":8,
						"NORMAL":9,
						"TEXCOORD_0":10
					},
					"indices":11,
					"material":2
				},
				{
					"attributes":{
						"POSITION":12,
						"NORMAL":13,
						"TEXCOORD_0":14
					},
					"indices":15,
					"material":3
				},
				{
					"attributes":{
						"POSITION":16,
						"NORMAL":17,
						"TEXCOORD_0":18
					},
					"indices":19,
					"material":4
				}
			]
		}
	],
	"textures":[
		{
			"sampler":0,
			"source":0
		},
		{
			"sampler":0,
			"source":0
		},
		{
			"sampler":0,
			"source":0
		},
		{
			"sampler":0,
			"source":0
		}
	],
	"images":[
		{
			"mimeType":"image/jpeg",
			"name":"CardBoard",
			"uri":"CardBoard.jpg"
		}
	],
	"accessors":[
		{
			"bufferView":0,
			"componentType":5126,
			"count":172,
			"max":[
				1.040414571762085,
				2.2316105365753174,
				1.0085967779159546
			],
			"min":[
				-1.040414571762085,
				0,
				-1.0470643043518066
			],
			"type":"VEC3"
		},
		{
			"bufferView":1,
			"componentType":5126,
			"count":172,
			"type":"VEC3"
		},
		{
			"bufferView":2,
			"componentType":5126,
			"count":172,
			"type":"VEC2"
		},
		{
			"bufferView":3,
			"componentType":5123,
			"count":258,
			"type":"SCALAR"
		},
		{
			"bufferView":4,
			"componentType":5126,
			"count":4,
			"max":[
				1,
				0.6575857400894165,
				1
			],
			"min":[
				-1,
				0,
				1
			],
			"type":"VEC3"
		},
		{
			"bufferView":5,
			"componentType":5126,
			"count":4,
			"type":"VEC3"
		},
		{
			"bufferView":6,
			"componentType":5126,
			"count":4,
			"type":"VEC2"
		},
		{
			"bufferView":7,
			"componentType":5123,
			"count":6,
			"type":"SCALAR"
		},
		{
			"bufferView":8,
			"componentType":5126,
			"count":14,
			"max":[
				1.0098259449005127,
				2.1715450286865234,
				-0.9505025148391724
			],
			"min":[
				-1.0098700523376465,
				0,
				-1.0150142908096313
			],
			"type":"VEC3"
		},
		{
			"bufferView":9,
			"componentType":5126,
			"count":14,
			"type":"VEC3"
		},
		{
			"bufferView":10,
			"componentType":5126,
			"count":14,
			"type":"VEC2"
		},
		{
			"bufferView":11,
			"componentType":5123,
			"count":24,
			"type":"SCALAR"
		},
		{
			"bufferView":12,
			"componentType":5126,
			"count":10,
			"max":[
				1,
				2.1715450286865234,
				1
			],
			"min":[
				0.9321572780609131,
				0,
				-1
			],
			"type":"VEC3"
		},
		{
			"bufferView":13,
			"componentType":5126,
			"count":10,
			"type":"VEC3"
		},
		{
			"bufferView":14,
			"componentType":5126,
			"count":10,
			"type":"VEC2"
		},
		{
			"bufferView":15,
			"componentType":5123,
			"count":18,
			"type":"SCALAR"
		},
		{
			"bufferView":16,
			"componentType":5126,
			"count":10,
			"max":[
				-0.9391462802886963,
				2.1715450286865234,
				1
			],
			"min":[
				-1,
				0,
				-1
			],
			"type":"VEC3"
		},
		{
			"bufferView":17,
			"componentType":5126,
			"count":10,
			"type":"VEC3"
		},
		{
			"bufferView":18,
			"componentType":5126,
			"count":10,
			"type":"VEC2"
		},
		{
			"bufferView":19,
			"componentType":5123,
			"count":18,
			"type":"SCALAR"
		}
	],
	"bufferViews":[
		{
			"buffer":0,
			"byteLength":2064,
			"byteOffset":0,
			"target":34962
		},
		{
			"buffer":0,
			"byteLength":2064,
			"byteOffset":2064,
			"target":34962
		},
		{
			"buffer":0,
			"byteLength":1376,
			"byteOffset":4128,
			"target":34962
		},
		{
			"buffer":0,
			"byteLength":516,
			"byteOffset":5504,
			"target":34963
		},
		{
			"buffer":0,
			"byteLength":48,
			"byteOffset":6020,
			"target":34962
		},
		{
			"buffer":0,
			"byteLength":48,
			"byteOffset":6068,
			"target":34962
		},
		{
			"buffer":0,
			"byteLength":32,
			"byteOffset":6116,
			"target":34962
		},
		{
			"buffer":0,
			"byteLength":12,
			"byteOffset":6148,
			"target":34963
		},
		{
			"buffer":0,
			"byteLength":168,
			"byteOffset":6160,
			"target":34962
		},
		{
			"buffer":0,
			"byteLength":168,
			"byteOffset":6328,
			"target":34962
		},
		{
			"buffer":0,
			"byteLength":112,
			"byteOffset":6496,
			"target":34962
		},
		{
			"buffer":0,
			"byteLength":48,
			"byteOffset":6608,
			"target":34963
		},
		{
			"buffer":0,
			"byteLength":120,
			"byteOffset":6656,
			"target":34962
		},
		{
			"buffer":0,
			"byteLength":120,
			"byteOffset":6776,
			"target":34962
		},
		{
			"buffer":0,
			"byteLength":80,
			"byteOffset":6896,
			"target":34962
		},
		{
			"buffer":0,
			"byteLength":36,
			"byteOffset":6976,
			"target":34963
		},
		{
			"buffer":0,
			"byteLength":120,
			"byteOffset":7012,
			"target":34962
		},
		{
			"buffer":0,
			"byteLength":120,
			"byteOffset":7132,
			"target":34962
		},
		{
			"buffer":0,
			"byteLength":80,
			"byteOffset":7252,
			"target":34962
		},
		{
			"buffer":0,
			"byteLength":36,
			"byteOffset":7332,
			"target":34963
		}
	],
	"samplers":[
		{
			"magFilter":9729,
			"minFilter":9987
		}
	],
	"buffers":[
		{
			"byteLength":7368,
			"uri":"VisitingCardHolder.bin"
		}
	]
}
