{
	"asset":{
		"generator":"Khronos glTF Blender I/O v4.3.47",
		"version":"2.0"
	},
	"scene":0,
	"scenes":[
		{
			"name":"Scene",
			"nodes":[
				0
			]
		}
	],
	"nodes":[
		{
			"mesh":0,
			"name":"Plane",
			"scale":[
				1,
				1,
				2
			]
		}
	],
	"materials":[
		{
			"doubleSided":true,
			"name":"Base",
			"pbrMetallicRoughness":{
				"baseColorFactor":[
					0.800000011920929,
					0.800000011920929,
					0.800000011920929,
					1
				],
				"metallicFactor":0,
				"roughnessFactor":0.8225806355476379
			}
		},
		{
			"doubleSided":true,
			"name":"Front",
			"pbrMetallicRoughness":{
				"baseColorTexture":{
					"index":0
				},
				"metallicFactor":0,
				"roughnessFactor":0.5
			}
		},
		{
			"doubleSided":true,
			"name":"Back",
			"pbrMetallicRoughness":{
				"baseColorTexture":{
					"index":1
				},
				"metallicFactor":0,
				"roughnessFactor":0.5
			}
		},
		{
			"doubleSided":true,
			"name":"Left",
			"pbrMetallicRoughness":{
				"baseColorTexture":{
					"index":2
				},
				"metallicFactor":0,
				"roughnessFactor":0.5
			}
		},
		{
			"doubleSided":true,
			"name":"Right",
			"pbrMetallicRoughness":{
				"baseColorTexture":{
					"index":3
				},
				"metallicFactor":0,
				"roughnessFactor":0.5
			}
		}
	],
	"meshes":[
		{
			"name":"Plane",
			"primitives":[
				{
					"attributes":{
						"POSITION":0,
						"NORMAL":1,
						"TEXCOORD_0":2
					},
					"indices":3,
					"material":0
				},
				{
					"attributes":{
						"POSITION":4,
						"NORMAL":5,
						"TEXCOORD_0":6
					},
					"indices":7,
					"material":1
				},
				{
					"attributes":{
						"POSITION":8,
						"NORMAL":9,
						"TEXCOORD_0":10
					},
					"indices":11,
					"material":2
				},
				{
					"attributes":{
						"POSITION":12,
						"NORMAL":13,
						"TEXCOORD_0":14
					},
					"indices":15,
					"material":3
				},
				{
					"attributes":{
						"POSITION":16,
						"NORMAL":17,
						"TEXCOORD_0":18
					},
					"indices":19,
					"material":4
				}
			]
		}
	],
	"textures":[
		{
			"sampler":0,
			"source":0
		},
		{
			"sampler":0,
			"source":0
		},
		{
			"sampler":0,
			"source":0
		},
		{
			"sampler":0,
			"source":0
		}
	],
	"images":[
		{
			"mimeType":"image/jpeg",
			"name":"CardBoard",
			"uri":"CardBoard.jpg"
		}
	],
	"accessors":[
		{
			"bufferView":0,
			"componentType":5126,
			"count":140,
			"max":[
				1.040414571762085,
				2.2316105365753174,
				1.0085967779159546
			],
			"min":[
				-1.040414571762085,
				0,
				-1.0470643043518066
			],
			"type":"VEC3"
		},
		{
			"bufferView":1,
			"componentType":5126,
			"count":140,
			"type":"VEC3"
		},
		{
			"bufferView":2,
			"componentType":5126,
			"count":140,
			"type":"VEC2"
		},
		{
			"bufferView":3,
			"componentType":5123,
			"count":210,
			"type":"SCALAR"
		},
		{
			"bufferView":4,
			"componentType":5126,
			"count":4,
			"max":[
				1,
				0.6575857400894165,
				1
			],
			"min":[
				-1,
				0,
				1
			],
			"type":"VEC3"
		},
		{
			"bufferView":5,
			"componentType":5126,
			"count":4,
			"type":"VEC3"
		},
		{
			"bufferView":6,
			"componentType":5126,
			"count":4,
			"type":"VEC2"
		},
		{
			"bufferView":7,
			"componentType":5123,
			"count":6,
			"type":"SCALAR"
		},
		{
			"bufferView":8,
			"componentType":5126,
			"count":22,
			"max":[
				1.040414571762085,
				2.2119596004486084,
				-0.9366573691368103
			],
			"min":[
				-1.040414571762085,
				0,
				-1.0150142908096313
			],
			"type":"VEC3"
		},
		{
			"bufferView":9,
			"componentType":5126,
			"count":22,
			"type":"VEC3"
		},
		{
			"bufferView":10,
			"componentType":5126,
			"count":22,
			"type":"VEC2"
		},
		{
			"bufferView":11,
			"componentType":5123,
			"count":36,
			"type":"SCALAR"
		},
		{
			"bufferView":12,
			"componentType":5126,
			"count":22,
			"max":[
				1.0098259449005127,
				2.2238378524780273,
				1.0085967779159546
			],
			"min":[
				0.8888168931007385,
				0,
				-1.047041654586792
			],
			"type":"VEC3"
		},
		{
			"bufferView":13,
			"componentType":5126,
			"count":22,
			"type":"VEC3"
		},
		{
			"bufferView":14,
			"componentType":5126,
			"count":22,
			"type":"VEC2"
		},
		{
			"bufferView":15,
			"componentType":5123,
			"count":36,
			"type":"SCALAR"
		},
		{
			"bufferView":16,
			"componentType":5126,
			"count":22,
			"max":[
				-0.8968754410743713,
				2.223871946334839,
				1
			],
			"min":[
				-1.0098700523376465,
				0,
				-1.0470643043518066
			],
			"type":"VEC3"
		},
		{
			"bufferView":17,
			"componentType":5126,
			"count":22,
			"type":"VEC3"
		},
		{
			"bufferView":18,
			"componentType":5126,
			"count":22,
			"type":"VEC2"
		},
		{
			"bufferView":19,
			"componentType":5123,
			"count":36,
			"type":"SCALAR"
		}
	],
	"bufferViews":[
		{
			"buffer":0,
			"byteLength":1680,
			"byteOffset":0,
			"target":34962
		},
		{
			"buffer":0,
			"byteLength":1680,
			"byteOffset":1680,
			"target":34962
		},
		{
			"buffer":0,
			"byteLength":1120,
			"byteOffset":3360,
			"target":34962
		},
		{
			"buffer":0,
			"byteLength":420,
			"byteOffset":4480,
			"target":34963
		},
		{
			"buffer":0,
			"byteLength":48,
			"byteOffset":4900,
			"target":34962
		},
		{
			"buffer":0,
			"byteLength":48,
			"byteOffset":4948,
			"target":34962
		},
		{
			"buffer":0,
			"byteLength":32,
			"byteOffset":4996,
			"target":34962
		},
		{
			"buffer":0,
			"byteLength":12,
			"byteOffset":5028,
			"target":34963
		},
		{
			"buffer":0,
			"byteLength":264,
			"byteOffset":5040,
			"target":34962
		},
		{
			"buffer":0,
			"byteLength":264,
			"byteOffset":5304,
			"target":34962
		},
		{
			"buffer":0,
			"byteLength":176,
			"byteOffset":5568,
			"target":34962
		},
		{
			"buffer":0,
			"byteLength":72,
			"byteOffset":5744,
			"target":34963
		},
		{
			"buffer":0,
			"byteLength":264,
			"byteOffset":5816,
			"target":34962
		},
		{
			"buffer":0,
			"byteLength":264,
			"byteOffset":6080,
			"target":34962
		},
		{
			"buffer":0,
			"byteLength":176,
			"byteOffset":6344,
			"target":34962
		},
		{
			"buffer":0,
			"byteLength":72,
			"byteOffset":6520,
			"target":34963
		},
		{
			"buffer":0,
			"byteLength":264,
			"byteOffset":6592,
			"target":34962
		},
		{
			"buffer":0,
			"byteLength":264,
			"byteOffset":6856,
			"target":34962
		},
		{
			"buffer":0,
			"byteLength":176,
			"byteOffset":7120,
			"target":34962
		},
		{
			"buffer":0,
			"byteLength":72,
			"byteOffset":7296,
			"target":34963
		}
	],
	"samplers":[
		{
			"magFilter":9729,
			"minFilter":9987
		}
	],
	"buffers":[
		{
			"byteLength":7368,
			"uri":"VisitingCardHolder1.bin"
		}
	]
}
