{
	"asset":{
		"generator":"Khronos glTF Blender I/O v4.3.47",
		"version":"2.0"
	},
	"scene":0,
	"scenes":[
		{
			"name":"Scene",
			"nodes":[
				0,
				1
			]
		}
	],
	"nodes":[
		{
			"mesh":0,
			"name":"Plane",
			"rotation":[
				1,
				0,
				0,
				0
			],
			"scale":[
				-1.5550283193588257,
				-1,
				-1
			],
			"translation":[
				0.0028685815632343292,
				0,
				0
			]
		},
		{
			"mesh":1,
			"name":"Plane.001",
			"rotation":[
				1,
				0,
				0,
				2.6618774427333847e-05
			],
			"scale":[
				1.6580427885055542,
				1.0640079975128174,
				1.0640079975128174
			],
			"translation":[
				0,
				0.5213361978530884,
				0
			]
		}
	],
	"animations":[
		{
			"channels":[
				{
					"sampler":0,
					"target":{
						"node":1,
						"path":"translation"
					}
				},
				{
					"sampler":1,
					"target":{
						"node":1,
						"path":"rotation"
					}
				}
			],
			"name":"Plane.001Action",
			"samplers":[
				{
					"input":27,
					"interpolation":"LINEAR",
					"output":28
				},
				{
					"input":27,
					"interpolation":"LINEAR",
					"output":29
				}
			]
		}
	],
	"materials":[
		{
			"doubleSided":true,
			"name":"Left",
			"pbrMetallicRoughness":{
				"baseColorTexture":{
					"index":0
				},
				"metallicFactor":0,
				"roughnessFactor":0.5
			}
		},
		{
			"doubleSided":true,
			"name":"Mat",
			"pbrMetallicRoughness":{
				"baseColorFactor":[
					0.800000011920929,
					0.800000011920929,
					0.800000011920929,
					1
				],
				"metallicFactor":0.1505376398563385,
				"roughnessFactor":0.5
			}
		},
		{
			"doubleSided":true,
			"name":"Front",
			"pbrMetallicRoughness":{
				"baseColorTexture":{
					"index":1
				},
				"metallicFactor":0,
				"roughnessFactor":0.5
			}
		},
		{
			"doubleSided":true,
			"name":"Back",
			"pbrMetallicRoughness":{
				"baseColorTexture":{
					"index":2
				},
				"metallicFactor":0,
				"roughnessFactor":0.5
			}
		},
		{
			"doubleSided":true,
			"name":"Top",
			"pbrMetallicRoughness":{
				"baseColorTexture":{
					"index":3
				},
				"metallicFactor":0,
				"roughnessFactor":0.5
			}
		},
		{
			"doubleSided":true,
			"name":"Right",
			"pbrMetallicRoughness":{
				"baseColorTexture":{
					"index":4
				},
				"metallicFactor":0,
				"roughnessFactor":0.5
			}
		}
	],
	"meshes":[
		{
			"name":"Plane",
			"primitives":[
				{
					"attributes":{
						"POSITION":0,
						"NORMAL":1,
						"TEXCOORD_0":2
					},
					"indices":3,
					"material":0
				}
			]
		},
		{
			"name":"Plane.001",
			"primitives":[
				{
					"attributes":{
						"POSITION":4,
						"NORMAL":5,
						"TEXCOORD_0":6
					},
					"indices":7,
					"material":1
				},
				{
					"attributes":{
						"POSITION":8,
						"NORMAL":9,
						"TEXCOORD_0":10
					},
					"indices":11,
					"material":2
				},
				{
					"attributes":{
						"POSITION":12,
						"NORMAL":13,
						"TEXCOORD_0":14
					},
					"indices":15,
					"material":3
				},
				{
					"attributes":{
						"POSITION":16,
						"NORMAL":17,
						"TEXCOORD_0":18
					},
					"indices":19,
					"material":4
				},
				{
					"attributes":{
						"POSITION":20,
						"NORMAL":21,
						"TEXCOORD_0":22
					},
					"indices":23,
					"material":0
				},
				{
					"attributes":{
						"POSITION":24,
						"NORMAL":25,
						"TEXCOORD_0":26
					},
					"indices":11,
					"material":5
				}
			]
		}
	],
	"textures":[
		{
			"sampler":0,
			"source":0
		},
		{
			"sampler":0,
			"source":0
		},
		{
			"sampler":0,
			"source":0
		},
		{
			"sampler":0,
			"source":0
		},
		{
			"sampler":0,
			"source":0
		}
	],
	"images":[
		{
			"mimeType":"image/jpeg",
			"name":"tina-dawson-Kim9COAIEGc-unsplash",
			"uri":"tina-dawson-Kim9COAIEGc-unsplash.jpg"
		}
	],
	"accessors":[
		{
			"bufferView":0,
			"componentType":5126,
			"count":48,
			"max":[
				1,
				0.48534590005874634,
				1
			],
			"min":[
				-1,
				0,
				-1
			],
			"type":"VEC3"
		},
		{
			"bufferView":1,
			"componentType":5126,
			"count":48,
			"type":"VEC3"
		},
		{
			"bufferView":2,
			"componentType":5126,
			"count":48,
			"type":"VEC2"
		},
		{
			"bufferView":3,
			"componentType":5123,
			"count":84,
			"type":"SCALAR"
		},
		{
			"bufferView":4,
			"componentType":5126,
			"count":28,
			"max":[
				1,
				0.48534590005874634,
				1
			],
			"min":[
				-1,
				0.06998300552368164,
				-1
			],
			"type":"VEC3"
		},
		{
			"bufferView":5,
			"componentType":5126,
			"count":28,
			"type":"VEC3"
		},
		{
			"bufferView":6,
			"componentType":5126,
			"count":28,
			"type":"VEC2"
		},
		{
			"bufferView":7,
			"componentType":5123,
			"count":54,
			"type":"SCALAR"
		},
		{
			"bufferView":8,
			"componentType":5126,
			"count":4,
			"max":[
				1,
				0.48534590005874634,
				1
			],
			"min":[
				1,
				0,
				-1
			],
			"type":"VEC3"
		},
		{
			"bufferView":9,
			"componentType":5126,
			"count":4,
			"type":"VEC3"
		},
		{
			"bufferView":10,
			"componentType":5126,
			"count":4,
			"type":"VEC2"
		},
		{
			"bufferView":11,
			"componentType":5123,
			"count":6,
			"type":"SCALAR"
		},
		{
			"bufferView":12,
			"componentType":5126,
			"count":4,
			"max":[
				-1,
				0.48534590005874634,
				1
			],
			"min":[
				-1,
				0,
				-1
			],
			"type":"VEC3"
		},
		{
			"bufferView":13,
			"componentType":5126,
			"count":4,
			"type":"VEC3"
		},
		{
			"bufferView":14,
			"componentType":5126,
			"count":4,
			"type":"VEC2"
		},
		{
			"bufferView":15,
			"componentType":5123,
			"count":6,
			"type":"SCALAR"
		},
		{
			"bufferView":16,
			"componentType":5126,
			"count":4,
			"max":[
				1,
				0,
				1
			],
			"min":[
				-1,
				0,
				-1
			],
			"type":"VEC3"
		},
		{
			"bufferView":17,
			"componentType":5126,
			"count":4,
			"type":"VEC3"
		},
		{
			"bufferView":18,
			"componentType":5126,
			"count":4,
			"type":"VEC2"
		},
		{
			"bufferView":19,
			"componentType":5123,
			"count":6,
			"type":"SCALAR"
		},
		{
			"bufferView":20,
			"componentType":5126,
			"count":4,
			"max":[
				1,
				0.48534590005874634,
				-1
			],
			"min":[
				-1,
				0,
				-1
			],
			"type":"VEC3"
		},
		{
			"bufferView":21,
			"componentType":5126,
			"count":4,
			"type":"VEC3"
		},
		{
			"bufferView":22,
			"componentType":5126,
			"count":4,
			"type":"VEC2"
		},
		{
			"bufferView":23,
			"componentType":5123,
			"count":6,
			"type":"SCALAR"
		},
		{
			"bufferView":24,
			"componentType":5126,
			"count":4,
			"max":[
				1,
				0.48534590005874634,
				1
			],
			"min":[
				-1,
				0,
				1
			],
			"type":"VEC3"
		},
		{
			"bufferView":25,
			"componentType":5126,
			"count":4,
			"type":"VEC3"
		},
		{
			"bufferView":26,
			"componentType":5126,
			"count":4,
			"type":"VEC2"
		},
		{
			"bufferView":27,
			"componentType":5126,
			"count":21,
			"max":[
				0.8333333333333334
			],
			"min":[
				0
			],
			"type":"SCALAR"
		},
		{
			"bufferView":28,
			"componentType":5126,
			"count":21,
			"type":"VEC3"
		},
		{
			"bufferView":29,
			"componentType":5126,
			"count":21,
			"type":"VEC4"
		}
	],
	"bufferViews":[
		{
			"buffer":0,
			"byteLength":576,
			"byteOffset":0,
			"target":34962
		},
		{
			"buffer":0,
			"byteLength":576,
			"byteOffset":576,
			"target":34962
		},
		{
			"buffer":0,
			"byteLength":384,
			"byteOffset":1152,
			"target":34962
		},
		{
			"buffer":0,
			"byteLength":168,
			"byteOffset":1536,
			"target":34963
		},
		{
			"buffer":0,
			"byteLength":336,
			"byteOffset":1704,
			"target":34962
		},
		{
			"buffer":0,
			"byteLength":336,
			"byteOffset":2040,
			"target":34962
		},
		{
			"buffer":0,
			"byteLength":224,
			"byteOffset":2376,
			"target":34962
		},
		{
			"buffer":0,
			"byteLength":108,
			"byteOffset":2600,
			"target":34963
		},
		{
			"buffer":0,
			"byteLength":48,
			"byteOffset":2708,
			"target":34962
		},
		{
			"buffer":0,
			"byteLength":48,
			"byteOffset":2756,
			"target":34962
		},
		{
			"buffer":0,
			"byteLength":32,
			"byteOffset":2804,
			"target":34962
		},
		{
			"buffer":0,
			"byteLength":12,
			"byteOffset":2836,
			"target":34963
		},
		{
			"buffer":0,
			"byteLength":48,
			"byteOffset":2848,
			"target":34962
		},
		{
			"buffer":0,
			"byteLength":48,
			"byteOffset":2896,
			"target":34962
		},
		{
			"buffer":0,
			"byteLength":32,
			"byteOffset":2944,
			"target":34962
		},
		{
			"buffer":0,
			"byteLength":12,
			"byteOffset":2976,
			"target":34963
		},
		{
			"buffer":0,
			"byteLength":48,
			"byteOffset":2988,
			"target":34962
		},
		{
			"buffer":0,
			"byteLength":48,
			"byteOffset":3036,
			"target":34962
		},
		{
			"buffer":0,
			"byteLength":32,
			"byteOffset":3084,
			"target":34962
		},
		{
			"buffer":0,
			"byteLength":12,
			"byteOffset":3116,
			"target":34963
		},
		{
			"buffer":0,
			"byteLength":48,
			"byteOffset":3128,
			"target":34962
		},
		{
			"buffer":0,
			"byteLength":48,
			"byteOffset":3176,
			"target":34962
		},
		{
			"buffer":0,
			"byteLength":32,
			"byteOffset":3224,
			"target":34962
		},
		{
			"buffer":0,
			"byteLength":12,
			"byteOffset":3256,
			"target":34963
		},
		{
			"buffer":0,
			"byteLength":48,
			"byteOffset":3268,
			"target":34962
		},
		{
			"buffer":0,
			"byteLength":48,
			"byteOffset":3316,
			"target":34962
		},
		{
			"buffer":0,
			"byteLength":32,
			"byteOffset":3364,
			"target":34962
		},
		{
			"buffer":0,
			"byteLength":84,
			"byteOffset":3396
		},
		{
			"buffer":0,
			"byteLength":252,
			"byteOffset":3480
		},
		{
			"buffer":0,
			"byteLength":336,
			"byteOffset":3732
		}
	],
	"samplers":[
		{
			"magFilter":9729,
			"minFilter":9987
		}
	],
	"buffers":[
		{
			"byteLength":4068,
			"uri":"WalletBoxFull.bin"
		}
	]
}
