{
	"asset":{
		"generator":"Khronos glTF Blender I/O v4.3.47",
		"version":"2.0"
	},
	"scene":0,
	"scenes":[
		{
			"name":"Scene",
			"nodes":[
				0,
				6
			]
		}
	],
	"nodes":[
		{
			"mesh":0,
			"name":"Plane",
			"translation":[
				0,
				0.003412452759221196,
				0
			]
		},
		{
			"name":"Bone.002",
			"rotation":[
				-7.446429921857415e-22,
				1.0658141036401503e-14,
				8.415836454914345e-15,
				1
			],
			"translation":[
				-3.946258738622005e-15,
				2.469815969467163,
				-4.390592296487642e-22
			]
		},
		{
			"children":[
				1
			],
			"name":"Bone.001",
			"rotation":[
				-1.4249830089236963e-15,
				3.774894707930798e-08,
				3.774894707930798e-08,
				1
			],
			"translation":[
				7.105427357601002e-15,
				1.0000001192092896,
				0
			]
		},
		{
			"children":[
				2
			],
			"name":"Bone",
			"rotation":[
				0,
				0,
				-3.552713678800501e-15,
				1
			],
			"translation":[
				-7.105427357601002e-15,
				1.1920928955078125e-07,
				0
			]
		},
		{
			"name":"neutral_bone",
			"rotation":[
				-0.7071067690849304,
				0,
				0,
				0.7071067690849304
			]
		},
		{
			"mesh":1,
			"name":"Plane.001",
			"skin":0
		},
		{
			"children":[
				5,
				3,
				4
			],
			"name":"Armature",
			"rotation":[
				0,
				0,
				0.7071067690849304,
				0.7071068286895752
			],
			"scale":[
				0.8442925214767456,
				0.8442925214767456,
				0.8442925214767456
			],
			"translation":[
				-1.0305060148239136,
				0,
				0
			]
		}
	],
	"animations":[
		{
			"channels":[
				{
					"sampler":0,
					"target":{
						"node":3,
						"path":"translation"
					}
				},
				{
					"sampler":1,
					"target":{
						"node":3,
						"path":"rotation"
					}
				},
				{
					"sampler":2,
					"target":{
						"node":3,
						"path":"scale"
					}
				},
				{
					"sampler":3,
					"target":{
						"node":2,
						"path":"translation"
					}
				},
				{
					"sampler":4,
					"target":{
						"node":2,
						"path":"rotation"
					}
				},
				{
					"sampler":5,
					"target":{
						"node":2,
						"path":"scale"
					}
				},
				{
					"sampler":6,
					"target":{
						"node":1,
						"path":"translation"
					}
				},
				{
					"sampler":7,
					"target":{
						"node":1,
						"path":"rotation"
					}
				},
				{
					"sampler":8,
					"target":{
						"node":1,
						"path":"scale"
					}
				}
			],
			"name":"ArmatureAction",
			"samplers":[
				{
					"input":31,
					"interpolation":"STEP",
					"output":32
				},
				{
					"input":33,
					"interpolation":"LINEAR",
					"output":34
				},
				{
					"input":31,
					"interpolation":"STEP",
					"output":35
				},
				{
					"input":31,
					"interpolation":"STEP",
					"output":36
				},
				{
					"input":33,
					"interpolation":"LINEAR",
					"output":37
				},
				{
					"input":31,
					"interpolation":"STEP",
					"output":38
				},
				{
					"input":31,
					"interpolation":"STEP",
					"output":39
				},
				{
					"input":33,
					"interpolation":"LINEAR",
					"output":40
				},
				{
					"input":31,
					"interpolation":"STEP",
					"output":41
				}
			]
		}
	],
	"materials":[
		{
			"doubleSided":true,
			"name":"Left",
			"pbrMetallicRoughness":{
				"baseColorTexture":{
					"index":0
				},
				"metallicFactor":0,
				"roughnessFactor":0.5
			}
		},
		{
			"doubleSided":true,
			"name":"Right",
			"pbrMetallicRoughness":{
				"baseColorTexture":{
					"index":1
				},
				"metallicFactor":0,
				"roughnessFactor":0.5
			}
		},
		{
			"doubleSided":true,
			"name":"Bottom",
			"pbrMetallicRoughness":{
				"baseColorTexture":{
					"index":2
				},
				"metallicFactor":0,
				"roughnessFactor":0.5
			}
		},
		{
			"doubleSided":true,
			"name":"Top",
			"pbrMetallicRoughness":{
				"baseColorTexture":{
					"index":3
				},
				"metallicFactor":0,
				"roughnessFactor":0.5
			}
		},
		{
			"doubleSided":true,
			"name":"Back",
			"pbrMetallicRoughness":{
				"baseColorTexture":{
					"index":4
				},
				"metallicFactor":0,
				"roughnessFactor":0.5
			}
		},
		{
			"doubleSided":true,
			"name":"Front",
			"pbrMetallicRoughness":{
				"baseColorTexture":{
					"index":5
				},
				"metallicFactor":0,
				"roughnessFactor":0.5
			}
		}
	],
	"meshes":[
		{
			"name":"Plane",
			"primitives":[
				{
					"attributes":{
						"POSITION":0,
						"NORMAL":1,
						"TEXCOORD_0":2
					},
					"indices":3,
					"material":0
				},
				{
					"attributes":{
						"POSITION":4,
						"NORMAL":5,
						"TEXCOORD_0":6
					},
					"indices":7,
					"material":1
				}
			]
		},
		{
			"name":"Plane.001",
			"primitives":[
				{
					"attributes":{
						"POSITION":8,
						"NORMAL":9,
						"TEXCOORD_0":10,
						"JOINTS_0":11,
						"WEIGHTS_0":12
					},
					"indices":13,
					"material":2
				},
				{
					"attributes":{
						"POSITION":14,
						"NORMAL":15,
						"TEXCOORD_0":16,
						"JOINTS_0":17,
						"WEIGHTS_0":18
					},
					"indices":19,
					"material":3
				},
				{
					"attributes":{
						"POSITION":20,
						"NORMAL":21,
						"TEXCOORD_0":22,
						"JOINTS_0":23,
						"WEIGHTS_0":24
					},
					"indices":19,
					"material":4
				},
				{
					"attributes":{
						"POSITION":25,
						"NORMAL":26,
						"TEXCOORD_0":27,
						"JOINTS_0":28,
						"WEIGHTS_0":29
					},
					"indices":19,
					"material":5
				}
			]
		}
	],
	"textures":[
		{
			"sampler":0,
			"source":0
		},
		{
			"sampler":0,
			"source":0
		},
		{
			"sampler":0,
			"source":0
		},
		{
			"sampler":0,
			"source":0
		},
		{
			"sampler":0,
			"source":0
		},
		{
			"sampler":0,
			"source":0
		}
	],
	"images":[
		{
			"mimeType":"image/jpeg",
			"name":"cardboard-texture-background",
			"uri":"cardboard-texture-background.jpg"
		}
	],
	"skins":[
		{
			"inverseBindMatrices":30,
			"joints":[
				3,
				2,
				1,
				4
			],
			"name":"Armature"
		}
	],
	"accessors":[
		{
			"bufferView":0,
			"componentType":5126,
			"count":58,
			"max":[
				1,
				0.8228111267089844,
				1
			],
			"min":[
				-1,
				0,
				-1
			],
			"type":"VEC3"
		},
		{
			"bufferView":1,
			"componentType":5126,
			"count":58,
			"type":"VEC3"
		},
		{
			"bufferView":2,
			"componentType":5126,
			"count":58,
			"type":"VEC2"
		},
		{
			"bufferView":3,
			"componentType":5123,
			"count":120,
			"type":"SCALAR"
		},
		{
			"bufferView":4,
			"componentType":5126,
			"count":6,
			"max":[
				1,
				0.8228111267089844,
				1
			],
			"min":[
				-1,
				0,
				1
			],
			"type":"VEC3"
		},
		{
			"bufferView":5,
			"componentType":5126,
			"count":6,
			"type":"VEC3"
		},
		{
			"bufferView":6,
			"componentType":5126,
			"count":6,
			"type":"VEC2"
		},
		{
			"bufferView":7,
			"componentType":5123,
			"count":12,
			"type":"SCALAR"
		},
		{
			"bufferView":8,
			"componentType":5126,
			"count":42,
			"max":[
				1.0368379354476929,
				0.03026742674410343,
				1.050330638885498
			],
			"min":[
				-4.783742427825928,
				-0.03275240585207939,
				-1.050330638885498
			],
			"type":"VEC3"
		},
		{
			"bufferView":9,
			"componentType":5126,
			"count":42,
			"type":"VEC3"
		},
		{
			"bufferView":10,
			"componentType":5126,
			"count":42,
			"type":"VEC2"
		},
		{
			"bufferView":11,
			"componentType":5121,
			"count":42,
			"type":"VEC4"
		},
		{
			"bufferView":12,
			"componentType":5126,
			"count":42,
			"type":"VEC4"
		},
		{
			"bufferView":13,
			"componentType":5123,
			"count":90,
			"type":"SCALAR"
		},
		{
			"bufferView":14,
			"componentType":5126,
			"count":4,
			"max":[
				-1.8700319528579712,
				-0.0327523835003376,
				1.050330638885498
			],
			"min":[
				-3.9480702877044678,
				-0.032752394676208496,
				-1.050330638885498
			],
			"type":"VEC3"
		},
		{
			"bufferView":15,
			"componentType":5126,
			"count":4,
			"type":"VEC3"
		},
		{
			"bufferView":16,
			"componentType":5126,
			"count":4,
			"type":"VEC2"
		},
		{
			"bufferView":17,
			"componentType":5121,
			"count":4,
			"type":"VEC4"
		},
		{
			"bufferView":18,
			"componentType":5126,
			"count":4,
			"type":"VEC4"
		},
		{
			"bufferView":19,
			"componentType":5123,
			"count":6,
			"type":"SCALAR"
		},
		{
			"bufferView":20,
			"componentType":5126,
			"count":4,
			"max":[
				-1.0335338115692139,
				-0.0327523835003376,
				1.050330638885498
			],
			"min":[
				-1.8700319528579712,
				-0.03275240585207939,
				-1.050330638885498
			],
			"type":"VEC3"
		},
		{
			"bufferView":21,
			"componentType":5126,
			"count":4,
			"type":"VEC3"
		},
		{
			"bufferView":22,
			"componentType":5126,
			"count":4,
			"type":"VEC2"
		},
		{
			"bufferView":23,
			"componentType":5121,
			"count":4,
			"type":"VEC4"
		},
		{
			"bufferView":24,
			"componentType":5126,
			"count":4,
			"type":"VEC4"
		},
		{
			"bufferView":25,
			"componentType":5126,
			"count":4,
			"max":[
				-3.9480702877044678,
				-0.032752394676208496,
				1.0503305196762085
			],
			"min":[
				-4.783742427825928,
				-0.032752394676208496,
				-1.0503305196762085
			],
			"type":"VEC3"
		},
		{
			"bufferView":26,
			"componentType":5126,
			"count":4,
			"type":"VEC3"
		},
		{
			"bufferView":27,
			"componentType":5126,
			"count":4,
			"type":"VEC2"
		},
		{
			"bufferView":28,
			"componentType":5121,
			"count":4,
			"type":"VEC4"
		},
		{
			"bufferView":29,
			"componentType":5126,
			"count":4,
			"type":"VEC4"
		},
		{
			"bufferView":30,
			"componentType":5126,
			"count":4,
			"type":"MAT4"
		},
		{
			"bufferView":31,
			"componentType":5126,
			"count":2,
			"max":[
				1.0416666666666667
			],
			"min":[
				0.041666666666666664
			],
			"type":"SCALAR"
		},
		{
			"bufferView":32,
			"componentType":5126,
			"count":2,
			"type":"VEC3"
		},
		{
			"bufferView":33,
			"componentType":5126,
			"count":25,
			"max":[
				1.0416666666666667
			],
			"min":[
				0.041666666666666664
			],
			"type":"SCALAR"
		},
		{
			"bufferView":34,
			"componentType":5126,
			"count":25,
			"type":"VEC4"
		},
		{
			"bufferView":35,
			"componentType":5126,
			"count":2,
			"type":"VEC3"
		},
		{
			"bufferView":36,
			"componentType":5126,
			"count":2,
			"type":"VEC3"
		},
		{
			"bufferView":37,
			"componentType":5126,
			"count":25,
			"type":"VEC4"
		},
		{
			"bufferView":38,
			"componentType":5126,
			"count":2,
			"type":"VEC3"
		},
		{
			"bufferView":39,
			"componentType":5126,
			"count":2,
			"type":"VEC3"
		},
		{
			"bufferView":40,
			"componentType":5126,
			"count":25,
			"type":"VEC4"
		},
		{
			"bufferView":41,
			"componentType":5126,
			"count":2,
			"type":"VEC3"
		}
	],
	"bufferViews":[
		{
			"buffer":0,
			"byteLength":696,
			"byteOffset":0,
			"target":34962
		},
		{
			"buffer":0,
			"byteLength":696,
			"byteOffset":696,
			"target":34962
		},
		{
			"buffer":0,
			"byteLength":464,
			"byteOffset":1392,
			"target":34962
		},
		{
			"buffer":0,
			"byteLength":240,
			"byteOffset":1856,
			"target":34963
		},
		{
			"buffer":0,
			"byteLength":72,
			"byteOffset":2096,
			"target":34962
		},
		{
			"buffer":0,
			"byteLength":72,
			"byteOffset":2168,
			"target":34962
		},
		{
			"buffer":0,
			"byteLength":48,
			"byteOffset":2240,
			"target":34962
		},
		{
			"buffer":0,
			"byteLength":24,
			"byteOffset":2288,
			"target":34963
		},
		{
			"buffer":0,
			"byteLength":504,
			"byteOffset":2312,
			"target":34962
		},
		{
			"buffer":0,
			"byteLength":504,
			"byteOffset":2816,
			"target":34962
		},
		{
			"buffer":0,
			"byteLength":336,
			"byteOffset":3320,
			"target":34962
		},
		{
			"buffer":0,
			"byteLength":168,
			"byteOffset":3656,
			"target":34962
		},
		{
			"buffer":0,
			"byteLength":672,
			"byteOffset":3824,
			"target":34962
		},
		{
			"buffer":0,
			"byteLength":180,
			"byteOffset":4496,
			"target":34963
		},
		{
			"buffer":0,
			"byteLength":48,
			"byteOffset":4676,
			"target":34962
		},
		{
			"buffer":0,
			"byteLength":48,
			"byteOffset":4724,
			"target":34962
		},
		{
			"buffer":0,
			"byteLength":32,
			"byteOffset":4772,
			"target":34962
		},
		{
			"buffer":0,
			"byteLength":16,
			"byteOffset":4804,
			"target":34962
		},
		{
			"buffer":0,
			"byteLength":64,
			"byteOffset":4820,
			"target":34962
		},
		{
			"buffer":0,
			"byteLength":12,
			"byteOffset":4884,
			"target":34963
		},
		{
			"buffer":0,
			"byteLength":48,
			"byteOffset":4896,
			"target":34962
		},
		{
			"buffer":0,
			"byteLength":48,
			"byteOffset":4944,
			"target":34962
		},
		{
			"buffer":0,
			"byteLength":32,
			"byteOffset":4992,
			"target":34962
		},
		{
			"buffer":0,
			"byteLength":16,
			"byteOffset":5024,
			"target":34962
		},
		{
			"buffer":0,
			"byteLength":64,
			"byteOffset":5040,
			"target":34962
		},
		{
			"buffer":0,
			"byteLength":48,
			"byteOffset":5104,
			"target":34962
		},
		{
			"buffer":0,
			"byteLength":48,
			"byteOffset":5152,
			"target":34962
		},
		{
			"buffer":0,
			"byteLength":32,
			"byteOffset":5200,
			"target":34962
		},
		{
			"buffer":0,
			"byteLength":16,
			"byteOffset":5232,
			"target":34962
		},
		{
			"buffer":0,
			"byteLength":64,
			"byteOffset":5248,
			"target":34962
		},
		{
			"buffer":0,
			"byteLength":256,
			"byteOffset":5312
		},
		{
			"buffer":0,
			"byteLength":8,
			"byteOffset":5568
		},
		{
			"buffer":0,
			"byteLength":24,
			"byteOffset":5576
		},
		{
			"buffer":0,
			"byteLength":100,
			"byteOffset":5600
		},
		{
			"buffer":0,
			"byteLength":400,
			"byteOffset":5700
		},
		{
			"buffer":0,
			"byteLength":24,
			"byteOffset":6100
		},
		{
			"buffer":0,
			"byteLength":24,
			"byteOffset":6124
		},
		{
			"buffer":0,
			"byteLength":400,
			"byteOffset":6148
		},
		{
			"buffer":0,
			"byteLength":24,
			"byteOffset":6548
		},
		{
			"buffer":0,
			"byteLength":24,
			"byteOffset":6572
		},
		{
			"buffer":0,
			"byteLength":400,
			"byteOffset":6596
		},
		{
			"buffer":0,
			"byteLength":24,
			"byteOffset":6996
		}
	],
	"samplers":[
		{
			"magFilter":9729,
			"minFilter":9987
		}
	],
	"buffers":[
		{
			"byteLength":7020,
			"uri":"WalletNewBox6.bin"
		}
	]
}
