{
	"asset":{
		"generator":"Khronos glTF Blender I/O v4.3.47",
		"version":"2.0"
	},
	"scene":0,
	"scenes":[
		{
			"name":"Scene",
			"nodes":[
				0,
				6
			]
		}
	],
	"nodes":[
		{
			"mesh":0,
			"name":"Plane",
			"translation":[
				0,
				0.003412452759221196,
				0
			]
		},
		{
			"name":"Bone.002",
			"rotation":[
				-7.446429921857415e-22,
				1.0658141036401503e-14,
				8.415836454914345e-15,
				1
			],
			"translation":[
				-3.946258738622005e-15,
				2.469815969467163,
				-4.390592296487642e-22
			]
		},
		{
			"children":[
				1
			],
			"name":"Bone.001",
			"rotation":[
				-1.4249830089236963e-15,
				3.774894707930798e-08,
				3.774894707930798e-08,
				1
			],
			"translation":[
				7.105427357601002e-15,
				1.0000001192092896,
				0
			]
		},
		{
			"children":[
				2
			],
			"name":"Bone",
			"rotation":[
				0,
				0,
				-3.552713678800501e-15,
				1
			],
			"translation":[
				-7.105427357601002e-15,
				1.1920928955078125e-07,
				0
			]
		},
		{
			"name":"neutral_bone",
			"rotation":[
				-0.7071067690849304,
				0,
				0,
				0.7071067690849304
			]
		},
		{
			"mesh":1,
			"name":"Plane.001",
			"skin":0
		},
		{
			"children":[
				5,
				3,
				4
			],
			"name":"Armature",
			"rotation":[
				0,
				0,
				0.7071067690849304,
				0.7071068286895752
			],
			"scale":[
				0.8442925214767456,
				0.8442925214767456,
				0.8442925214767456
			],
			"translation":[
				-1.0305060148239136,
				0,
				0
			]
		}
	],
	"animations":[
		{
			"channels":[
				{
					"sampler":0,
					"target":{
						"node":3,
						"path":"translation"
					}
				},
				{
					"sampler":1,
					"target":{
						"node":3,
						"path":"rotation"
					}
				},
				{
					"sampler":2,
					"target":{
						"node":3,
						"path":"scale"
					}
				},
				{
					"sampler":3,
					"target":{
						"node":2,
						"path":"translation"
					}
				},
				{
					"sampler":4,
					"target":{
						"node":2,
						"path":"rotation"
					}
				},
				{
					"sampler":5,
					"target":{
						"node":2,
						"path":"scale"
					}
				},
				{
					"sampler":6,
					"target":{
						"node":1,
						"path":"translation"
					}
				},
				{
					"sampler":7,
					"target":{
						"node":1,
						"path":"rotation"
					}
				},
				{
					"sampler":8,
					"target":{
						"node":1,
						"path":"scale"
					}
				}
			],
			"name":"ArmatureAction",
			"samplers":[
				{
					"input":11,
					"interpolation":"STEP",
					"output":12
				},
				{
					"input":13,
					"interpolation":"LINEAR",
					"output":14
				},
				{
					"input":11,
					"interpolation":"STEP",
					"output":15
				},
				{
					"input":11,
					"interpolation":"STEP",
					"output":16
				},
				{
					"input":13,
					"interpolation":"LINEAR",
					"output":17
				},
				{
					"input":11,
					"interpolation":"STEP",
					"output":18
				},
				{
					"input":11,
					"interpolation":"STEP",
					"output":19
				},
				{
					"input":13,
					"interpolation":"LINEAR",
					"output":20
				},
				{
					"input":11,
					"interpolation":"STEP",
					"output":21
				}
			]
		}
	],
	"materials":[
		{
			"doubleSided":true,
			"name":"Left",
			"pbrMetallicRoughness":{
				"baseColorFactor":[
					0.800000011920929,
					0.800000011920929,
					0.800000011920929,
					1
				],
				"metallicFactor":0,
				"roughnessFactor":0.5
			}
		},
		{
			"doubleSided":true,
			"name":"Bottom",
			"pbrMetallicRoughness":{
				"baseColorFactor":[
					0.800000011920929,
					0.800000011920929,
					0.800000011920929,
					1
				],
				"metallicFactor":0,
				"roughnessFactor":0.5
			}
		}
	],
	"meshes":[
		{
			"name":"Plane",
			"primitives":[
				{
					"attributes":{
						"POSITION":0,
						"NORMAL":1,
						"TEXCOORD_0":2
					},
					"indices":3,
					"material":0
				}
			]
		},
		{
			"name":"Plane.001",
			"primitives":[
				{
					"attributes":{
						"POSITION":4,
						"NORMAL":5,
						"TEXCOORD_0":6,
						"JOINTS_0":7,
						"WEIGHTS_0":8
					},
					"indices":9,
					"material":1
				}
			]
		}
	],
	"skins":[
		{
			"inverseBindMatrices":10,
			"joints":[
				3,
				2,
				1,
				4
			],
			"name":"Armature"
		}
	],
	"accessors":[
		{
			"bufferView":0,
			"componentType":5126,
			"count":64,
			"max":[
				1,
				0.8228111267089844,
				1
			],
			"min":[
				-1,
				0,
				-1
			],
			"type":"VEC3"
		},
		{
			"bufferView":1,
			"componentType":5126,
			"count":64,
			"type":"VEC3"
		},
		{
			"bufferView":2,
			"componentType":5126,
			"count":64,
			"type":"VEC2"
		},
		{
			"bufferView":3,
			"componentType":5123,
			"count":132,
			"type":"SCALAR"
		},
		{
			"bufferView":4,
			"componentType":5126,
			"count":48,
			"max":[
				1.0368379354476929,
				0.03026742674410343,
				1.050330638885498
			],
			"min":[
				-4.783742427825928,
				-0.03275240585207939,
				-1.050330638885498
			],
			"type":"VEC3"
		},
		{
			"bufferView":5,
			"componentType":5126,
			"count":48,
			"type":"VEC3"
		},
		{
			"bufferView":6,
			"componentType":5126,
			"count":48,
			"type":"VEC2"
		},
		{
			"bufferView":7,
			"componentType":5121,
			"count":48,
			"type":"VEC4"
		},
		{
			"bufferView":8,
			"componentType":5126,
			"count":48,
			"type":"VEC4"
		},
		{
			"bufferView":9,
			"componentType":5123,
			"count":108,
			"type":"SCALAR"
		},
		{
			"bufferView":10,
			"componentType":5126,
			"count":4,
			"type":"MAT4"
		},
		{
			"bufferView":11,
			"componentType":5126,
			"count":2,
			"max":[
				1.0416666666666667
			],
			"min":[
				0.041666666666666664
			],
			"type":"SCALAR"
		},
		{
			"bufferView":12,
			"componentType":5126,
			"count":2,
			"type":"VEC3"
		},
		{
			"bufferView":13,
			"componentType":5126,
			"count":25,
			"max":[
				1.0416666666666667
			],
			"min":[
				0.041666666666666664
			],
			"type":"SCALAR"
		},
		{
			"bufferView":14,
			"componentType":5126,
			"count":25,
			"type":"VEC4"
		},
		{
			"bufferView":15,
			"componentType":5126,
			"count":2,
			"type":"VEC3"
		},
		{
			"bufferView":16,
			"componentType":5126,
			"count":2,
			"type":"VEC3"
		},
		{
			"bufferView":17,
			"componentType":5126,
			"count":25,
			"type":"VEC4"
		},
		{
			"bufferView":18,
			"componentType":5126,
			"count":2,
			"type":"VEC3"
		},
		{
			"bufferView":19,
			"componentType":5126,
			"count":2,
			"type":"VEC3"
		},
		{
			"bufferView":20,
			"componentType":5126,
			"count":25,
			"type":"VEC4"
		},
		{
			"bufferView":21,
			"componentType":5126,
			"count":2,
			"type":"VEC3"
		}
	],
	"bufferViews":[
		{
			"buffer":0,
			"byteLength":768,
			"byteOffset":0,
			"target":34962
		},
		{
			"buffer":0,
			"byteLength":768,
			"byteOffset":768,
			"target":34962
		},
		{
			"buffer":0,
			"byteLength":512,
			"byteOffset":1536,
			"target":34962
		},
		{
			"buffer":0,
			"byteLength":264,
			"byteOffset":2048,
			"target":34963
		},
		{
			"buffer":0,
			"byteLength":576,
			"byteOffset":2312,
			"target":34962
		},
		{
			"buffer":0,
			"byteLength":576,
			"byteOffset":2888,
			"target":34962
		},
		{
			"buffer":0,
			"byteLength":384,
			"byteOffset":3464,
			"target":34962
		},
		{
			"buffer":0,
			"byteLength":192,
			"byteOffset":3848,
			"target":34962
		},
		{
			"buffer":0,
			"byteLength":768,
			"byteOffset":4040,
			"target":34962
		},
		{
			"buffer":0,
			"byteLength":216,
			"byteOffset":4808,
			"target":34963
		},
		{
			"buffer":0,
			"byteLength":256,
			"byteOffset":5024
		},
		{
			"buffer":0,
			"byteLength":8,
			"byteOffset":5280
		},
		{
			"buffer":0,
			"byteLength":24,
			"byteOffset":5288
		},
		{
			"buffer":0,
			"byteLength":100,
			"byteOffset":5312
		},
		{
			"buffer":0,
			"byteLength":400,
			"byteOffset":5412
		},
		{
			"buffer":0,
			"byteLength":24,
			"byteOffset":5812
		},
		{
			"buffer":0,
			"byteLength":24,
			"byteOffset":5836
		},
		{
			"buffer":0,
			"byteLength":400,
			"byteOffset":5860
		},
		{
			"buffer":0,
			"byteLength":24,
			"byteOffset":6260
		},
		{
			"buffer":0,
			"byteLength":24,
			"byteOffset":6284
		},
		{
			"buffer":0,
			"byteLength":400,
			"byteOffset":6308
		},
		{
			"buffer":0,
			"byteLength":24,
			"byteOffset":6708
		}
	],
	"buffers":[
		{
			"byteLength":6732,
			"uri":"WalletNewBox.bin"
		}
	]
}
